{"glyphs":{"0":{"ha":907,"x_min":132,"x_max":938,"o":"m 354 -4 q 190 44 249 -4 q 132 189 132 93 q 136 246 132 217 l 219 775 q 319 965 239 899 q 519 1032 400 1032 l 724 1032 q 884 981 831 1032 q 938 838 938 929 q 932 775 938 804 l 849 246 q 753 59 829 122 q 558 -4 676 -4 l 354 -4 m 544 122 q 713 265 689 122 l 790 763 q 793 800 793 776 q 674 907 793 907 l 524 907 q 413 869 457 907 q 357 763 368 832 l 279 265 q 275 232 275 247 q 309 150 275 178 q 404 122 343 122 l 544 122 z "},"1":{"ha":507,"x_min":189,"x_max":560,"o":"m 399 894 l 189 842 l 203 931 l 433 1024 l 560 1024 l 397 0 l 257 0 l 399 894 z "},"2":{"ha":821,"x_min":72,"x_max":838,"o":"m 89 113 l 499 469 q 650 637 601 558 q 699 781 699 715 q 660 869 699 839 q 532 900 622 900 l 246 900 l 264 1008 q 369 1021 276 1010 q 565 1032 463 1032 q 773 975 708 1032 q 838 818 838 918 q 603 406 838 613 l 286 128 l 781 128 l 760 0 l 72 0 l 89 113 z "},"3":{"ha":810,"x_min":60,"x_max":835,"o":"m 435 -8 q 60 13 219 -8 l 76 117 l 406 117 q 554 148 500 117 q 622 258 608 179 q 635 340 635 325 q 589 426 635 397 q 474 457 543 454 l 231 467 l 247 565 l 503 576 q 679 700 660 583 q 690 788 690 779 q 646 877 690 847 q 521 907 601 907 l 232 907 l 249 1010 q 585 1032 407 1032 q 772 984 710 1032 q 835 838 835 936 q 818 704 835 815 q 754 575 804 621 q 646 515 704 529 q 735 460 696 503 q 774 349 774 418 q 764 268 774 339 l 760 236 q 656 55 742 118 q 435 -8 571 -8 z "},"4":{"ha":836,"x_min":86,"x_max":863,"o":"m 576 247 l 104 247 l 86 319 l 567 1024 l 710 1024 l 257 367 l 594 367 l 635 618 l 679 719 l 789 719 l 733 367 l 863 367 l 847 271 l 715 247 l 676 1 l 536 1 l 576 247 z "},"5":{"ha":865,"x_min":129,"x_max":913,"o":"m 457 -7 q 129 10 292 -7 l 147 119 l 482 119 q 623 161 568 119 q 689 271 678 203 l 704 371 q 708 408 708 390 q 676 488 708 460 q 576 515 643 515 l 476 515 q 382 490 418 515 q 329 411 346 465 l 196 411 l 321 1024 l 913 1024 l 892 899 l 433 899 l 367 571 q 430 617 389 599 q 522 635 471 635 l 642 635 q 798 583 744 635 q 851 446 851 532 q 849 394 851 431 l 824 243 q 708 56 804 118 q 457 -7 611 -7 z "},"6":{"ha":858,"x_min":150,"x_max":878,"o":"m 379 -4 q 208 60 265 -4 q 150 288 150 125 q 199 666 150 499 q 353 933 247 833 q 624 1032 460 1032 q 878 1015 754 1032 l 860 907 l 611 907 q 424 822 500 907 q 321 572 347 736 q 590 590 424 590 q 779 550 717 590 q 842 422 842 510 q 836 369 842 406 l 813 225 q 720 51 794 106 q 535 -4 646 -4 l 379 -4 m 526 121 q 628 149 589 121 q 679 249 668 178 l 693 344 q 697 379 697 364 q 658 451 697 432 q 536 471 618 471 l 304 471 q 289 301 289 364 q 322 160 289 200 q 425 121 356 121 l 526 121 z "},"7":{"ha":760,"x_min":189,"x_max":869,"o":"m 679 883 l 189 883 l 211 1024 l 839 1024 l 869 957 l 356 0 l 192 0 l 679 883 z "},"8":{"ha":886,"x_min":131,"x_max":899,"o":"m 353 -4 q 183 39 236 -4 q 131 154 131 82 q 132 180 131 165 q 135 201 133 194 l 158 350 q 214 463 169 417 q 311 519 258 508 q 229 647 229 560 q 235 700 229 664 l 253 818 q 341 981 271 932 q 517 1031 411 1031 l 718 1031 q 853 994 808 1031 q 899 878 899 958 q 893 818 899 863 l 875 700 q 833 598 867 649 q 749 535 799 547 q 821 488 797 524 q 844 401 844 451 q 842 377 844 390 q 840 357 840 364 l 817 206 q 730 44 799 93 q 553 -4 661 -4 l 353 -4 m 603 582 q 697 616 664 582 q 739 699 731 650 l 751 786 q 756 826 756 810 q 732 893 756 874 q 661 913 708 913 l 525 913 q 428 883 461 913 q 383 786 394 854 l 371 699 q 368 669 368 676 q 394 605 368 628 q 472 582 419 582 l 603 582 m 535 115 q 638 143 603 115 q 681 228 672 171 l 699 344 q 703 376 703 364 q 674 442 703 421 q 585 463 646 463 l 453 463 q 355 433 403 463 q 297 344 307 403 l 279 228 q 276 203 276 208 q 309 137 276 158 q 399 115 342 115 l 535 115 z "},"9":{"ha":858,"x_min":142,"x_max":869,"o":"m 640 1029 q 812 965 754 1029 q 869 738 869 900 q 821 359 869 526 q 666 92 772 192 q 396 -7 560 -7 q 142 10 265 -7 l 160 118 l 408 118 q 596 203 519 118 q 699 453 672 289 q 429 435 596 435 q 240 475 303 435 q 178 603 178 515 q 183 656 178 619 l 207 800 q 299 974 225 919 q 485 1029 374 1029 l 640 1029 m 493 904 q 391 876 431 904 q 340 776 351 847 l 326 681 q 322 646 322 663 q 362 574 322 593 q 483 554 401 554 l 715 554 q 731 724 731 661 q 697 865 731 825 q 594 904 664 904 l 493 904 z "},"\u0000":{"ha":0,"x_min":0,"x_max":0,"o":""},"\r":{"ha":335,"x_min":0,"x_max":0,"o":""}," ":{"ha":335,"x_min":0,"x_max":0,"o":""},"A":{"ha":947,"x_min":44,"x_max":906,"o":"m 553 1024 l 731 1024 l 906 0 l 761 0 l 715 268 l 321 268 l 188 0 l 44 0 l 553 1024 m 700 393 l 621 900 l 375 393 l 700 393 z "},"Á":{"ha":947,"x_min":44,"x_max":906,"o":"m 553 1024 l 731 1024 l 906 0 l 761 0 l 715 268 l 321 268 l 188 0 l 44 0 l 553 1024 m 700 393 l 621 900 l 375 393 l 700 393 m 746 1290 l 868 1290 l 675 1099 l 588 1099 l 746 1290 z "},"Ă":{"ha":947,"x_min":44,"x_max":906,"o":"m 553 1024 l 731 1024 l 906 0 l 761 0 l 715 268 l 321 268 l 188 0 l 44 0 l 553 1024 m 700 393 l 621 900 l 375 393 l 700 393 m 639 1093 q 524 1129 567 1093 q 482 1242 482 1165 q 485 1294 482 1256 l 551 1294 q 549 1258 549 1267 q 576 1183 549 1207 q 647 1158 604 1158 q 740 1191 701 1158 q 790 1294 779 1224 l 857 1294 q 783 1141 842 1189 q 639 1093 725 1093 z "},"Ắ":{"ha":947,"x_min":44,"x_max":906,"o":"m 553 1024 l 731 1024 l 906 0 l 761 0 l 715 268 l 321 268 l 188 0 l 44 0 l 553 1024 m 700 393 l 621 900 l 375 393 l 700 393 m 760 1449 l 882 1449 l 689 1257 l 601 1257 l 760 1449 m 628 1081 q 509 1111 553 1081 q 465 1206 465 1142 q 468 1240 465 1228 l 535 1240 q 533 1219 533 1232 q 562 1159 533 1178 q 635 1140 590 1140 q 724 1162 685 1140 q 772 1240 764 1183 l 840 1240 q 771 1119 828 1157 q 628 1081 714 1081 z "},"Ặ":{"ha":947,"x_min":44,"x_max":906,"o":"m 553 1024 l 731 1024 l 906 0 l 761 0 l 715 268 l 321 268 l 188 0 l 44 0 l 553 1024 m 700 393 l 621 900 l 375 393 l 700 393 m 639 1093 q 524 1129 567 1093 q 482 1242 482 1165 q 485 1294 482 1256 l 551 1294 q 549 1258 549 1267 q 576 1183 549 1207 q 647 1158 604 1158 q 740 1191 701 1158 q 790 1294 779 1224 l 857 1294 q 783 1141 842 1189 q 639 1093 725 1093 m 381 -299 q 367 -293 372 -299 q 361 -278 361 -287 l 361 -275 l 381 -158 q 407 -133 382 -133 l 472 -133 q 492 -153 492 -133 l 492 -158 l 474 -275 q 465 -292 472 -286 q 446 -299 457 -299 l 381 -299 z "},"Ằ":{"ha":947,"x_min":44,"x_max":906,"o":"m 553 1024 l 731 1024 l 906 0 l 761 0 l 715 268 l 321 268 l 188 0 l 44 0 l 553 1024 m 700 393 l 621 900 l 375 393 l 700 393 m 493 1449 l 608 1449 l 714 1257 l 632 1257 l 493 1449 m 628 1081 q 509 1111 553 1081 q 465 1206 465 1142 q 468 1240 465 1228 l 535 1240 q 533 1219 533 1232 q 562 1159 533 1178 q 635 1140 590 1140 q 772 1240 757 1140 l 840 1240 q 771 1119 828 1157 q 628 1081 714 1081 z "},"Ẳ":{"ha":947,"x_min":44,"x_max":906,"o":"m 553 1024 l 731 1024 l 906 0 l 761 0 l 715 268 l 321 268 l 188 0 l 44 0 l 553 1024 m 700 393 l 621 900 l 375 393 l 700 393 m 625 1263 q 708 1350 708 1288 q 657 1390 708 1390 q 607 1382 632 1390 l 615 1439 q 685 1449 646 1449 q 785 1361 785 1449 q 614 1199 785 1246 l 625 1263 m 628 1081 q 509 1111 553 1081 q 465 1206 465 1142 q 468 1240 465 1228 l 535 1240 q 533 1219 533 1232 q 562 1159 533 1178 q 635 1140 590 1140 q 772 1240 757 1140 l 840 1240 q 771 1119 828 1157 q 628 1081 714 1081 z "},"Ẵ":{"ha":947,"x_min":44,"x_max":919,"o":"m 553 1024 l 731 1024 l 906 0 l 761 0 l 715 268 l 321 268 l 188 0 l 44 0 l 553 1024 m 700 393 l 621 900 l 375 393 l 700 393 m 444 1289 q 593 1413 472 1413 q 640 1406 619 1413 q 694 1383 661 1399 q 737 1365 719 1371 q 772 1360 754 1360 q 825 1374 804 1360 q 849 1417 846 1389 l 919 1417 q 869 1320 906 1350 q 771 1290 832 1290 q 724 1297 747 1290 q 672 1318 701 1304 q 626 1337 643 1331 q 590 1343 608 1343 q 541 1328 561 1343 q 515 1289 521 1314 l 444 1289 m 635 1081 q 516 1111 560 1081 q 472 1206 472 1142 q 475 1240 472 1215 l 542 1240 q 540 1219 540 1232 q 569 1159 540 1178 q 642 1140 597 1140 q 734 1161 697 1140 q 779 1240 771 1182 l 847 1240 q 778 1119 835 1157 q 635 1081 721 1081 z "},"Â":{"ha":947,"x_min":44,"x_max":906,"o":"m 553 1024 l 731 1024 l 906 0 l 761 0 l 715 268 l 321 268 l 188 0 l 44 0 l 553 1024 m 700 393 l 621 900 l 375 393 l 700 393 m 621 1289 l 717 1289 l 836 1099 l 753 1099 l 656 1225 l 510 1099 l 426 1099 l 621 1289 z "},"Ấ":{"ha":947,"x_min":44,"x_max":1028,"o":"m 553 1024 l 731 1024 l 906 0 l 761 0 l 715 268 l 321 268 l 188 0 l 44 0 l 553 1024 m 700 393 l 621 900 l 375 393 l 700 393 m 918 1388 l 1028 1388 l 861 1208 l 786 1208 l 918 1388 m 621 1240 l 718 1240 l 844 1099 l 761 1099 l 657 1175 l 519 1099 l 436 1099 l 621 1240 z "},"Ậ":{"ha":947,"x_min":44,"x_max":906,"o":"m 553 1024 l 731 1024 l 906 0 l 761 0 l 715 268 l 321 268 l 188 0 l 44 0 l 553 1024 m 700 393 l 621 900 l 375 393 l 700 393 m 621 1289 l 717 1289 l 836 1099 l 753 1099 l 656 1225 l 510 1099 l 426 1099 l 621 1289 m 381 -299 q 367 -293 372 -299 q 361 -278 361 -287 l 361 -275 l 381 -158 q 407 -133 382 -133 l 472 -133 q 492 -153 492 -133 l 492 -158 l 474 -275 q 465 -292 472 -286 q 446 -299 457 -299 l 381 -299 z "},"Ầ":{"ha":947,"x_min":44,"x_max":906,"o":"m 553 1024 l 731 1024 l 906 0 l 761 0 l 715 268 l 321 268 l 188 0 l 44 0 l 553 1024 m 700 393 l 621 900 l 375 393 l 700 393 m 354 1388 l 464 1388 l 539 1208 l 464 1208 l 354 1388 m 615 1240 l 713 1240 l 839 1099 l 756 1099 l 651 1175 l 513 1099 l 429 1099 l 615 1240 z "},"Ẩ":{"ha":947,"x_min":44,"x_max":964,"o":"m 553 1024 l 731 1024 l 906 0 l 761 0 l 715 268 l 321 268 l 188 0 l 44 0 l 553 1024 m 700 393 l 621 900 l 375 393 l 700 393 m 819 1229 q 892 1304 892 1254 q 849 1336 892 1336 q 799 1328 821 1336 l 807 1385 q 874 1396 843 1396 q 964 1319 964 1396 q 811 1172 964 1214 l 819 1229 m 624 1240 l 721 1240 l 847 1099 l 764 1099 l 660 1175 l 522 1099 l 438 1099 l 624 1240 z "},"Ẫ":{"ha":947,"x_min":44,"x_max":921,"o":"m 553 1024 l 731 1024 l 906 0 l 761 0 l 715 268 l 321 268 l 188 0 l 44 0 l 553 1024 m 700 393 l 621 900 l 375 393 l 700 393 m 446 1301 q 593 1425 472 1425 q 642 1417 619 1425 q 694 1396 664 1410 q 737 1378 719 1385 q 774 1372 754 1372 q 825 1387 804 1372 q 850 1429 846 1401 l 921 1429 q 870 1333 907 1363 q 772 1303 833 1303 q 724 1310 747 1303 q 674 1331 701 1317 q 627 1349 644 1343 q 592 1356 610 1356 q 542 1341 563 1356 q 517 1301 522 1326 l 446 1301 m 624 1240 l 721 1240 l 846 1099 l 763 1099 l 660 1175 l 521 1099 l 438 1099 l 624 1240 z "},"Ȁ":{"ha":947,"x_min":44,"x_max":906,"o":"m 553 1024 l 731 1024 l 906 0 l 761 0 l 715 268 l 321 268 l 188 0 l 44 0 l 553 1024 m 700 393 l 621 900 l 375 393 l 700 393 m 363 1290 l 478 1290 l 583 1099 l 501 1099 l 363 1290 m 579 1290 l 694 1290 l 800 1099 l 718 1099 l 579 1290 z "},"Ä":{"ha":947,"x_min":44,"x_max":906,"o":"m 553 1024 l 731 1024 l 906 0 l 761 0 l 715 268 l 321 268 l 188 0 l 44 0 l 553 1024 m 700 393 l 621 900 l 375 393 l 700 393 m 457 1122 q 438 1143 438 1122 l 457 1263 q 485 1288 458 1288 l 549 1288 q 569 1268 569 1288 q 549 1146 569 1274 q 540 1128 547 1135 q 522 1122 533 1122 l 457 1122 m 739 1122 q 719 1143 719 1122 l 739 1263 q 767 1288 740 1288 l 831 1288 q 851 1268 851 1288 q 832 1146 851 1275 q 823 1128 831 1135 q 804 1122 815 1122 l 739 1122 z "},"Ạ":{"ha":947,"x_min":44,"x_max":906,"o":"m 553 1024 l 731 1024 l 906 0 l 761 0 l 715 268 l 321 268 l 188 0 l 44 0 l 553 1024 m 700 393 l 621 900 l 375 393 l 700 393 m 381 -299 q 367 -293 372 -299 q 361 -278 361 -287 l 361 -275 l 381 -158 q 407 -133 382 -133 l 472 -133 q 492 -153 492 -133 l 492 -158 l 474 -275 q 465 -292 472 -286 q 446 -299 457 -299 l 381 -299 z "},"À":{"ha":947,"x_min":44,"x_max":906,"o":"m 553 1024 l 731 1024 l 906 0 l 761 0 l 715 268 l 321 268 l 188 0 l 44 0 l 553 1024 m 700 393 l 621 900 l 375 393 l 700 393 m 493 1290 l 608 1290 l 714 1099 l 632 1099 l 493 1290 z "},"Ả":{"ha":947,"x_min":44,"x_max":906,"o":"m 553 1024 l 731 1024 l 906 0 l 761 0 l 715 268 l 321 268 l 188 0 l 44 0 l 553 1024 m 700 393 l 621 900 l 375 393 l 700 393 m 611 1133 q 694 1221 694 1158 q 643 1261 694 1261 q 593 1253 618 1261 l 601 1310 q 671 1319 632 1319 q 771 1232 771 1319 q 600 1069 771 1117 l 611 1133 z "},"Ȃ":{"ha":947,"x_min":44,"x_max":906,"o":"m 553 1024 l 731 1024 l 906 0 l 761 0 l 715 268 l 321 268 l 188 0 l 44 0 l 553 1024 m 700 393 l 621 900 l 375 393 l 700 393 m 460 1096 q 533 1248 475 1200 q 678 1296 592 1296 q 792 1260 750 1296 q 835 1147 835 1224 q 832 1096 835 1132 l 765 1096 q 768 1131 768 1121 q 740 1206 768 1182 q 668 1231 713 1231 q 576 1199 615 1231 q 526 1096 538 1167 l 460 1096 z "},"Ā":{"ha":947,"x_min":44,"x_max":906,"o":"m 553 1024 l 731 1024 l 906 0 l 761 0 l 715 268 l 321 268 l 188 0 l 44 0 l 553 1024 m 700 393 l 621 900 l 375 393 l 700 393 m 475 1228 l 850 1228 l 836 1144 l 461 1144 l 475 1228 z "},"Ą":{"ha":947,"x_min":44,"x_max":906,"o":"m 553 1024 l 731 1024 l 906 0 l 761 0 l 715 268 l 321 268 l 188 0 l 44 0 l 553 1024 m 700 393 l 621 900 l 375 393 l 700 393 m 765 -261 q 669 -233 703 -261 q 636 -158 636 -204 q 667 -70 636 -112 q 760 0 699 -28 l 813 0 q 738 -59 764 -25 q 713 -121 713 -93 q 737 -172 713 -154 q 806 -190 761 -190 l 815 -190 l 804 -258 q 765 -261 785 -261 z "},"Å":{"ha":947,"x_min":44,"x_max":906,"o":"m 553 1024 l 731 1024 l 906 0 l 761 0 l 715 268 l 321 268 l 188 0 l 44 0 l 553 1024 m 700 393 l 621 900 l 375 393 l 700 393 m 646 1071 q 503 1199 503 1071 q 552 1324 503 1274 q 688 1375 601 1375 q 828 1247 828 1375 q 780 1121 828 1171 q 646 1071 732 1071 m 651 1126 q 732 1160 704 1126 q 760 1244 760 1193 q 738 1302 760 1285 q 682 1319 717 1319 q 598 1285 626 1319 q 569 1200 569 1251 q 592 1144 569 1161 q 651 1126 615 1126 z "},"Ǻ":{"ha":947,"x_min":44,"x_max":911,"o":"m 646 1071 q 503 1199 503 1071 q 544 1316 503 1267 q 661 1374 586 1365 l 789 1528 l 911 1528 l 749 1367 q 828 1247 828 1342 q 780 1121 828 1171 q 646 1071 732 1071 m 682 1319 q 598 1285 626 1319 q 569 1200 569 1251 q 592 1144 569 1161 q 651 1126 615 1126 q 732 1160 704 1126 q 760 1244 760 1193 q 738 1302 760 1285 q 682 1319 717 1319 m 731 1024 l 906 0 l 761 0 l 715 268 l 321 268 l 188 0 l 44 0 l 553 1024 l 731 1024 m 700 393 l 621 900 l 375 393 l 700 393 z "},"Ã":{"ha":947,"x_min":44,"x_max":936,"o":"m 553 1024 l 731 1024 l 906 0 l 761 0 l 715 268 l 321 268 l 188 0 l 44 0 l 553 1024 m 700 393 l 621 900 l 375 393 l 700 393 m 415 1118 q 475 1235 432 1199 q 576 1271 518 1271 q 632 1260 606 1271 q 692 1231 658 1250 q 742 1205 725 1213 q 781 1197 760 1197 q 837 1218 814 1197 q 867 1276 860 1239 l 936 1276 q 778 1119 903 1119 q 726 1129 750 1119 q 663 1160 701 1139 q 612 1185 631 1176 q 572 1193 593 1193 q 517 1174 540 1193 q 486 1118 493 1154 l 415 1118 z "},"Æ":{"ha":1317,"x_min":26,"x_max":1424,"o":"m 876 -6 q 731 24 782 -6 q 681 131 681 53 q 682 157 681 147 l 697 267 l 374 267 l 168 0 l 26 0 l 617 796 q 803 974 708 924 q 1028 1024 899 1024 q 1424 1008 1199 1024 l 1404 894 l 1039 894 q 954 881 981 894 q 919 843 928 867 q 903 763 911 819 l 872 572 l 1292 564 l 1274 456 l 853 446 l 819 236 q 817 207 817 214 q 848 141 817 157 q 932 125 879 125 l 1283 125 l 1265 11 q 1047 -1 1172 4 q 876 -6 922 -6 m 717 386 l 788 835 l 457 386 l 717 386 z "},"Ǽ":{"ha":1317,"x_min":26,"x_max":1424,"o":"m 876 -6 q 731 24 782 -6 q 681 131 681 53 q 682 157 681 147 l 697 267 l 374 267 l 168 0 l 26 0 l 617 796 q 803 974 708 924 q 1028 1024 899 1024 q 1424 1008 1199 1024 l 1404 894 l 1039 894 q 954 881 981 894 q 919 843 928 867 q 903 763 911 819 l 872 572 l 1292 564 l 1274 456 l 853 446 l 819 236 q 817 207 817 214 q 848 141 817 157 q 932 125 879 125 l 1283 125 l 1265 11 q 1047 -1 1172 4 q 876 -6 922 -6 m 717 386 l 788 835 l 457 386 l 717 386 m 986 1290 l 1108 1290 l 915 1099 l 828 1099 l 986 1290 z "},"B":{"ha":861,"x_min":97,"x_max":879,"o":"m 258 1024 l 628 1024 q 821 972 763 1024 q 879 822 879 919 q 874 751 879 785 q 809 608 860 665 q 685 535 758 551 q 792 465 750 515 q 833 328 833 415 q 825 246 833 285 q 717 60 803 121 q 479 0 632 0 l 97 0 l 258 1024 m 568 583 q 733 726 704 583 q 742 788 742 763 q 706 872 742 846 q 599 899 669 899 l 378 899 l 328 583 l 568 583 m 499 125 q 635 166 590 125 q 697 292 681 207 q 701 340 701 310 q 662 438 701 403 q 553 474 622 474 l 311 474 l 256 125 l 499 125 z "},"Ḃ":{"ha":861,"x_min":97,"x_max":879,"o":"m 258 1024 l 628 1024 q 821 972 763 1024 q 879 822 879 919 q 874 751 879 785 q 809 608 860 665 q 685 535 758 551 q 792 465 750 515 q 833 328 833 415 q 825 246 833 285 q 717 60 803 121 q 479 0 632 0 l 97 0 l 258 1024 m 568 583 q 733 726 704 583 q 742 788 742 763 q 706 872 742 846 q 599 899 669 899 l 378 899 l 328 583 l 568 583 m 499 125 q 635 166 590 125 q 697 292 681 207 q 701 340 701 310 q 662 438 701 403 q 553 474 622 474 l 311 474 l 256 125 l 499 125 m 525 1132 q 511 1138 517 1132 q 506 1153 506 1143 l 506 1156 l 525 1272 q 551 1297 526 1297 l 617 1297 q 636 1278 636 1297 l 636 1272 l 618 1156 q 609 1138 617 1144 q 590 1132 601 1132 l 525 1132 z "},"C":{"ha":819,"x_min":140,"x_max":900,"o":"m 449 -8 q 140 322 140 -8 q 161 536 140 408 q 299 909 200 786 q 582 1032 397 1032 q 900 985 746 1032 l 882 876 q 603 907 724 907 q 458 869 515 907 q 363 746 400 832 q 299 508 325 660 q 281 321 281 388 q 327 165 281 213 q 485 117 374 117 q 638 121 576 117 q 764 135 699 125 l 746 26 q 449 -8 626 -8 z "},"Ć":{"ha":819,"x_min":140,"x_max":900,"o":"m 449 -8 q 140 322 140 -8 q 161 536 140 408 q 299 909 200 786 q 582 1032 397 1032 q 900 985 746 1032 l 882 876 q 603 907 724 907 q 458 869 515 907 q 363 746 400 832 q 299 508 325 660 q 281 321 281 388 q 327 165 281 213 q 485 117 374 117 q 638 121 576 117 q 764 135 699 125 l 746 26 q 449 -8 626 -8 m 711 1290 l 833 1290 l 640 1099 l 553 1099 l 711 1290 z "},"Č":{"ha":819,"x_min":140,"x_max":900,"o":"m 449 -8 q 140 322 140 -8 q 161 536 140 408 q 299 909 200 786 q 582 1032 397 1032 q 900 985 746 1032 l 882 876 q 603 907 724 907 q 458 869 515 907 q 363 746 400 832 q 299 508 325 660 q 281 321 281 388 q 327 165 281 213 q 485 117 374 117 q 638 121 576 117 q 764 135 699 125 l 746 26 q 449 -8 626 -8 m 460 1289 l 543 1289 l 638 1164 l 785 1289 l 868 1289 l 675 1099 l 578 1099 l 460 1289 z "},"Ç":{"ha":819,"x_min":140,"x_max":900,"o":"m 603 907 q 458 869 515 907 q 363 746 400 832 q 299 508 325 660 q 281 321 281 388 q 327 165 281 213 q 485 117 374 117 q 638 121 576 117 q 764 135 699 125 l 746 26 q 474 -8 633 -6 l 413 -82 q 499 -160 499 -89 q 458 -240 499 -204 q 343 -275 417 -275 l 292 -275 l 300 -218 l 331 -215 q 390 -189 368 -211 q 411 -146 411 -167 q 336 -99 411 -104 l 410 -7 q 140 322 140 13 q 161 536 140 408 q 299 909 200 786 q 582 1032 397 1032 q 900 985 746 1032 l 882 876 q 603 907 724 907 z "},"Ḉ":{"ha":819,"x_min":140,"x_max":900,"o":"m 640 1099 l 553 1099 l 711 1290 l 833 1290 l 640 1099 m 603 907 q 458 869 515 907 q 363 746 400 832 q 299 508 325 660 q 281 321 281 388 q 327 165 281 213 q 485 117 374 117 q 638 121 576 117 q 764 135 699 125 l 746 26 q 474 -8 633 -6 l 413 -82 q 499 -160 499 -89 q 458 -240 499 -204 q 343 -275 417 -275 l 292 -275 l 300 -218 l 331 -215 q 390 -189 368 -211 q 411 -146 411 -167 q 336 -99 411 -104 l 410 -7 q 140 322 140 13 q 161 536 140 408 q 299 909 200 786 q 582 1032 397 1032 q 900 985 746 1032 l 882 876 q 603 907 724 907 z "},"Ĉ":{"ha":819,"x_min":140,"x_max":900,"o":"m 449 -8 q 140 322 140 -8 q 161 536 140 408 q 299 909 200 786 q 582 1032 397 1032 q 900 985 746 1032 l 882 876 q 603 907 724 907 q 458 869 515 907 q 363 746 400 832 q 299 508 325 660 q 281 321 281 388 q 327 165 281 213 q 485 117 374 117 q 638 121 576 117 q 764 135 699 125 l 746 26 q 449 -8 626 -8 m 586 1289 l 682 1289 l 801 1099 l 718 1099 l 621 1225 l 475 1099 l 392 1099 l 586 1289 z "},"Ċ":{"ha":819,"x_min":140,"x_max":900,"o":"m 449 -8 q 140 322 140 -8 q 161 536 140 408 q 299 909 200 786 q 582 1032 397 1032 q 900 985 746 1032 l 882 876 q 603 907 724 907 q 458 869 515 907 q 363 746 400 832 q 299 508 325 660 q 281 321 281 388 q 327 165 281 213 q 485 117 374 117 q 638 121 576 117 q 764 135 699 125 l 746 26 q 449 -8 626 -8 m 579 1132 q 565 1138 571 1132 q 560 1153 560 1143 l 560 1156 l 579 1272 q 606 1297 581 1297 l 671 1297 q 690 1278 690 1297 l 690 1272 l 672 1156 q 663 1138 671 1144 q 644 1132 656 1132 l 579 1132 z "},"D":{"ha":942,"x_min":96,"x_max":958,"o":"m 258 1024 l 632 1024 q 885 934 813 1024 q 958 667 958 844 q 943 486 958 581 q 791 124 906 247 q 471 0 676 0 l 96 0 l 258 1024 m 483 125 q 699 227 622 125 q 804 513 775 329 q 819 664 819 608 q 770 842 819 786 q 599 899 721 899 l 376 899 l 256 125 l 483 125 z "},"Ð":{"ha":942,"x_min":81,"x_max":958,"o":"m 632 1024 q 885 934 813 1024 q 958 667 958 844 q 943 486 958 581 q 791 124 906 247 q 471 0 676 0 l 96 0 l 171 471 l 81 471 l 97 565 l 186 565 l 258 1024 l 632 1024 m 804 513 q 819 664 819 608 q 770 842 819 786 q 599 899 721 899 l 376 899 l 325 565 l 547 565 l 531 471 l 310 471 l 256 125 l 483 125 q 699 227 622 125 q 804 513 775 329 z "},"Ď":{"ha":942,"x_min":96,"x_max":958,"o":"m 258 1024 l 632 1024 q 885 934 813 1024 q 958 667 958 844 q 943 486 958 581 q 791 124 906 247 q 471 0 676 0 l 96 0 l 258 1024 m 483 125 q 699 227 622 125 q 804 513 775 329 q 819 664 819 608 q 770 842 819 786 q 599 899 721 899 l 376 899 l 256 125 l 483 125 m 446 1289 l 529 1289 l 624 1164 l 771 1289 l 854 1289 l 661 1099 l 564 1099 l 446 1289 z "},"Đ":{"ha":942,"x_min":81,"x_max":958,"o":"m 632 1024 q 885 934 813 1024 q 958 667 958 844 q 943 486 958 581 q 791 124 906 247 q 471 0 676 0 l 96 0 l 171 471 l 81 471 l 97 565 l 186 565 l 258 1024 l 632 1024 m 804 513 q 819 664 819 608 q 770 842 819 786 q 599 899 721 899 l 376 899 l 325 565 l 547 565 l 531 471 l 310 471 l 256 125 l 483 125 q 699 227 622 125 q 804 513 775 329 z "},"Ḋ":{"ha":942,"x_min":96,"x_max":958,"o":"m 258 1024 l 632 1024 q 885 934 813 1024 q 958 667 958 844 q 943 486 958 581 q 791 124 906 247 q 471 0 676 0 l 96 0 l 258 1024 m 483 125 q 699 227 622 125 q 804 513 775 329 q 819 664 819 608 q 770 842 819 786 q 599 899 721 899 l 376 899 l 256 125 l 483 125 m 565 1132 q 551 1138 557 1132 q 546 1153 546 1143 l 546 1156 l 565 1272 q 592 1297 567 1297 l 657 1297 q 676 1278 676 1297 l 676 1272 l 658 1156 q 649 1138 657 1144 q 631 1132 642 1132 l 565 1132 z "},"Ḍ":{"ha":942,"x_min":96,"x_max":958,"o":"m 258 1024 l 632 1024 q 885 934 813 1024 q 958 667 958 844 q 943 486 958 581 q 791 124 906 247 q 471 0 676 0 l 96 0 l 258 1024 m 483 125 q 699 227 622 125 q 804 513 775 329 q 819 664 819 608 q 770 842 819 786 q 599 899 721 899 l 376 899 l 256 125 l 483 125 m 332 -299 q 318 -293 324 -299 q 313 -278 313 -287 l 313 -275 l 332 -158 q 358 -133 333 -133 l 424 -133 q 443 -153 443 -133 l 443 -158 l 425 -275 q 416 -292 424 -286 q 397 -299 408 -299 l 332 -299 z "},"Ḏ":{"ha":942,"x_min":96,"x_max":958,"o":"m 258 1024 l 632 1024 q 885 934 813 1024 q 958 667 958 844 q 943 486 958 581 q 791 124 906 247 q 471 0 676 0 l 96 0 l 258 1024 m 483 125 q 699 227 622 125 q 804 513 775 329 q 819 664 819 608 q 770 842 819 786 q 599 899 721 899 l 376 899 l 256 125 l 483 125 m 192 -189 l 567 -189 l 553 -272 l 178 -272 l 192 -189 z "},"E":{"ha":810,"x_min":124,"x_max":888,"o":"m 317 -8 q 180 28 236 -8 q 124 156 124 64 q 128 206 124 179 l 224 811 q 307 974 242 924 q 467 1024 372 1024 q 888 1010 601 1024 l 869 894 l 488 894 q 399 867 431 894 q 358 776 368 839 l 326 574 l 754 563 l 736 454 l 306 447 l 272 236 q 269 207 269 214 q 296 141 269 160 q 375 122 322 122 l 749 122 l 731 7 l 679 4 q 539 -3 653 3 q 317 -8 425 -8 z "},"É":{"ha":810,"x_min":124,"x_max":888,"o":"m 317 -8 q 180 28 236 -8 q 124 156 124 64 q 128 206 124 179 l 224 811 q 307 974 242 924 q 467 1024 372 1024 q 888 1010 601 1024 l 869 894 l 488 894 q 399 867 431 894 q 358 776 368 839 l 326 574 l 754 563 l 736 454 l 306 447 l 272 236 q 269 207 269 214 q 296 141 269 160 q 375 122 322 122 l 749 122 l 731 7 l 679 4 q 539 -3 653 3 q 317 -8 425 -8 m 692 1290 l 814 1290 l 621 1099 l 533 1099 l 692 1290 z "},"Ĕ":{"ha":810,"x_min":124,"x_max":888,"o":"m 317 -8 q 180 28 236 -8 q 124 156 124 64 q 128 206 124 179 l 224 811 q 307 974 242 924 q 467 1024 372 1024 q 888 1010 601 1024 l 869 894 l 488 894 q 399 867 431 894 q 358 776 368 839 l 326 574 l 754 563 l 736 454 l 306 447 l 272 236 q 269 207 269 214 q 296 141 269 160 q 375 122 322 122 l 749 122 l 731 7 l 679 4 q 539 -3 653 3 q 317 -8 425 -8 m 585 1093 q 470 1129 513 1093 q 428 1242 428 1165 q 431 1294 428 1256 l 497 1294 q 494 1258 494 1267 q 522 1183 494 1207 q 593 1158 550 1158 q 686 1191 647 1158 q 736 1294 725 1224 l 803 1294 q 729 1141 788 1189 q 585 1093 671 1093 z "},"Ě":{"ha":810,"x_min":124,"x_max":888,"o":"m 317 -8 q 180 28 236 -8 q 124 156 124 64 q 128 206 124 179 l 224 811 q 307 974 242 924 q 467 1024 372 1024 q 888 1010 601 1024 l 869 894 l 488 894 q 399 867 431 894 q 358 776 368 839 l 326 574 l 754 563 l 736 454 l 306 447 l 272 236 q 269 207 269 214 q 296 141 269 160 q 375 122 322 122 l 749 122 l 731 7 l 679 4 q 539 -3 653 3 q 317 -8 425 -8 m 440 1289 l 524 1289 l 618 1164 l 765 1289 l 849 1289 l 656 1099 l 558 1099 l 440 1289 z "},"Ḝ":{"ha":810,"x_min":124,"x_max":888,"o":"m 585 1093 q 470 1129 513 1093 q 428 1242 428 1165 q 431 1294 428 1256 l 497 1294 q 494 1258 494 1267 q 522 1183 494 1207 q 593 1158 550 1158 q 686 1191 647 1158 q 736 1294 725 1224 l 803 1294 q 729 1141 788 1189 q 585 1093 671 1093 m 488 894 q 399 867 431 894 q 358 776 368 839 l 326 574 l 754 563 l 736 454 l 306 447 l 272 236 q 269 207 269 214 q 296 141 269 160 q 375 122 322 122 l 749 122 l 731 7 q 440 -6 588 -1 l 378 -82 q 464 -160 464 -89 q 423 -240 464 -204 q 308 -275 382 -275 l 257 -275 l 265 -218 l 296 -215 q 355 -189 333 -211 q 376 -146 376 -167 q 301 -99 376 -104 l 374 -7 q 317 -8 356 -8 q 180 28 236 -8 q 124 156 124 64 q 128 206 124 179 l 224 811 q 307 974 242 924 q 467 1024 372 1024 q 888 1010 601 1024 l 869 894 l 488 894 z "},"Ê":{"ha":810,"x_min":124,"x_max":888,"o":"m 317 -8 q 180 28 236 -8 q 124 156 124 64 q 128 206 124 179 l 224 811 q 307 974 242 924 q 467 1024 372 1024 q 888 1010 601 1024 l 869 894 l 488 894 q 399 867 431 894 q 358 776 368 839 l 326 574 l 754 563 l 736 454 l 306 447 l 272 236 q 269 207 269 214 q 296 141 269 160 q 375 122 322 122 l 749 122 l 731 7 l 679 4 q 539 -3 653 3 q 317 -8 425 -8 m 567 1289 l 663 1289 l 782 1099 l 699 1099 l 601 1225 l 456 1099 l 372 1099 l 567 1289 z "},"Ế":{"ha":810,"x_min":124,"x_max":974,"o":"m 317 -8 q 180 28 236 -8 q 124 156 124 64 q 128 206 124 179 l 224 811 q 307 974 242 924 q 467 1024 372 1024 q 888 1010 601 1024 l 869 894 l 488 894 q 399 867 431 894 q 358 776 368 839 l 326 574 l 754 563 l 736 454 l 306 447 l 272 236 q 269 207 269 214 q 296 141 269 160 q 375 122 322 122 l 749 122 l 731 7 l 679 4 q 539 -3 653 3 q 317 -8 425 -8 m 864 1388 l 974 1388 l 807 1208 l 732 1208 l 864 1388 m 567 1240 l 664 1240 l 790 1099 l 707 1099 l 603 1175 l 465 1099 l 382 1099 l 567 1240 z "},"Ệ":{"ha":810,"x_min":124,"x_max":888,"o":"m 317 -8 q 180 28 236 -8 q 124 156 124 64 q 128 206 124 179 l 224 811 q 307 974 242 924 q 467 1024 372 1024 q 888 1010 601 1024 l 869 894 l 488 894 q 399 867 431 894 q 358 776 368 839 l 326 574 l 754 563 l 736 454 l 306 447 l 272 236 q 269 207 269 214 q 296 141 269 160 q 375 122 322 122 l 749 122 l 731 7 l 679 4 q 539 -3 653 3 q 317 -8 425 -8 m 567 1289 l 663 1289 l 782 1099 l 699 1099 l 601 1225 l 456 1099 l 372 1099 l 567 1289 m 326 -299 q 313 -293 318 -299 q 307 -278 307 -287 l 307 -275 l 326 -158 q 353 -133 328 -133 l 418 -133 q 438 -153 438 -133 l 438 -158 l 419 -275 q 410 -292 418 -286 q 392 -299 403 -299 l 326 -299 z "},"Ề":{"ha":810,"x_min":124,"x_max":888,"o":"m 317 -8 q 180 28 236 -8 q 124 156 124 64 q 128 206 124 179 l 224 811 q 307 974 242 924 q 467 1024 372 1024 q 888 1010 601 1024 l 869 894 l 488 894 q 399 867 431 894 q 358 776 368 839 l 326 574 l 754 563 l 736 454 l 306 447 l 272 236 q 269 207 269 214 q 296 141 269 160 q 375 122 322 122 l 749 122 l 731 7 l 679 4 q 539 -3 653 3 q 317 -8 425 -8 m 300 1388 l 410 1388 l 485 1208 l 410 1208 l 300 1388 m 561 1240 l 658 1240 l 785 1099 l 701 1099 l 597 1175 l 458 1099 l 375 1099 l 561 1240 z "},"Ể":{"ha":810,"x_min":124,"x_max":910,"o":"m 317 -8 q 180 28 236 -8 q 124 156 124 64 q 128 206 124 179 l 224 811 q 307 974 242 924 q 467 1024 372 1024 q 888 1010 601 1024 l 869 894 l 488 894 q 399 867 431 894 q 358 776 368 839 l 326 574 l 754 563 l 736 454 l 306 447 l 272 236 q 269 207 269 214 q 296 141 269 160 q 375 122 322 122 l 749 122 l 731 7 l 679 4 q 539 -3 653 3 q 317 -8 425 -8 m 765 1229 q 838 1304 838 1254 q 794 1336 838 1336 q 744 1328 767 1336 l 753 1385 q 819 1396 789 1396 q 910 1319 910 1396 q 757 1172 910 1214 l 765 1229 m 569 1240 l 667 1240 l 793 1099 l 710 1099 l 606 1175 l 468 1099 l 383 1099 l 569 1240 z "},"Ễ":{"ha":810,"x_min":124,"x_max":888,"o":"m 317 -8 q 180 28 236 -8 q 124 156 124 64 q 128 206 124 179 l 224 811 q 307 974 242 924 q 467 1024 372 1024 q 888 1010 601 1024 l 869 894 l 488 894 q 399 867 431 894 q 358 776 368 839 l 326 574 l 754 563 l 736 454 l 306 447 l 272 236 q 269 207 269 214 q 296 141 269 160 q 375 122 322 122 l 749 122 l 731 7 l 679 4 q 539 -3 653 3 q 317 -8 425 -8 m 392 1301 q 539 1425 418 1425 q 588 1417 565 1425 q 640 1396 610 1410 q 683 1378 665 1385 q 719 1372 700 1372 q 771 1387 750 1372 q 796 1429 792 1401 l 867 1429 q 816 1333 853 1363 q 718 1303 779 1303 q 670 1310 693 1303 q 619 1331 647 1317 q 573 1349 590 1343 q 538 1356 556 1356 q 488 1341 508 1356 q 463 1301 468 1326 l 392 1301 m 569 1240 l 667 1240 l 792 1099 l 708 1099 l 606 1175 l 467 1099 l 383 1099 l 569 1240 z "},"Ȅ":{"ha":810,"x_min":124,"x_max":888,"o":"m 317 -8 q 180 28 236 -8 q 124 156 124 64 q 128 206 124 179 l 224 811 q 307 974 242 924 q 467 1024 372 1024 q 888 1010 601 1024 l 869 894 l 488 894 q 399 867 431 894 q 358 776 368 839 l 326 574 l 754 563 l 736 454 l 306 447 l 272 236 q 269 207 269 214 q 296 141 269 160 q 375 122 322 122 l 749 122 l 731 7 l 679 4 q 539 -3 653 3 q 317 -8 425 -8 m 308 1290 l 424 1290 l 529 1099 l 447 1099 l 308 1290 m 525 1290 l 640 1290 l 746 1099 l 664 1099 l 525 1290 z "},"Ë":{"ha":810,"x_min":124,"x_max":888,"o":"m 317 -8 q 180 28 236 -8 q 124 156 124 64 q 128 206 124 179 l 224 811 q 307 974 242 924 q 467 1024 372 1024 q 888 1010 601 1024 l 869 894 l 488 894 q 399 867 431 894 q 358 776 368 839 l 326 574 l 754 563 l 736 454 l 306 447 l 272 236 q 269 207 269 214 q 296 141 269 160 q 375 122 322 122 l 749 122 l 731 7 l 679 4 q 539 -3 653 3 q 317 -8 425 -8 m 403 1122 q 383 1143 383 1122 l 403 1263 q 431 1288 404 1288 l 494 1288 q 515 1268 515 1288 q 494 1146 515 1274 q 486 1128 493 1135 q 468 1122 479 1122 l 403 1122 m 685 1122 q 665 1143 665 1122 l 685 1263 q 713 1288 686 1288 l 776 1288 q 797 1268 797 1288 q 778 1146 797 1275 q 769 1128 776 1135 q 750 1122 761 1122 l 685 1122 z "},"Ė":{"ha":810,"x_min":124,"x_max":888,"o":"m 317 -8 q 180 28 236 -8 q 124 156 124 64 q 128 206 124 179 l 224 811 q 307 974 242 924 q 467 1024 372 1024 q 888 1010 601 1024 l 869 894 l 488 894 q 399 867 431 894 q 358 776 368 839 l 326 574 l 754 563 l 736 454 l 306 447 l 272 236 q 269 207 269 214 q 296 141 269 160 q 375 122 322 122 l 749 122 l 731 7 l 679 4 q 539 -3 653 3 q 317 -8 425 -8 m 560 1132 q 546 1138 551 1132 q 540 1153 540 1143 l 540 1156 l 560 1272 q 586 1297 561 1297 l 651 1297 q 671 1278 671 1297 l 671 1272 l 653 1156 q 644 1138 651 1144 q 625 1132 636 1132 l 560 1132 z "},"Ẹ":{"ha":810,"x_min":124,"x_max":888,"o":"m 317 -8 q 180 28 236 -8 q 124 156 124 64 q 128 206 124 179 l 224 811 q 307 974 242 924 q 467 1024 372 1024 q 888 1010 601 1024 l 869 894 l 488 894 q 399 867 431 894 q 358 776 368 839 l 326 574 l 754 563 l 736 454 l 306 447 l 272 236 q 269 207 269 214 q 296 141 269 160 q 375 122 322 122 l 749 122 l 731 7 l 679 4 q 539 -3 653 3 q 317 -8 425 -8 m 326 -299 q 313 -293 318 -299 q 307 -278 307 -287 l 307 -275 l 326 -158 q 353 -133 328 -133 l 418 -133 q 438 -153 438 -133 l 438 -158 l 419 -275 q 410 -292 418 -286 q 392 -299 403 -299 l 326 -299 z "},"È":{"ha":810,"x_min":124,"x_max":888,"o":"m 317 -8 q 180 28 236 -8 q 124 156 124 64 q 128 206 124 179 l 224 811 q 307 974 242 924 q 467 1024 372 1024 q 888 1010 601 1024 l 869 894 l 488 894 q 399 867 431 894 q 358 776 368 839 l 326 574 l 754 563 l 736 454 l 306 447 l 272 236 q 269 207 269 214 q 296 141 269 160 q 375 122 322 122 l 749 122 l 731 7 l 679 4 q 539 -3 653 3 q 317 -8 425 -8 m 439 1290 l 554 1290 l 660 1099 l 578 1099 l 439 1290 z "},"Ẻ":{"ha":810,"x_min":124,"x_max":888,"o":"m 317 -8 q 180 28 236 -8 q 124 156 124 64 q 128 206 124 179 l 224 811 q 307 974 242 924 q 467 1024 372 1024 q 888 1010 601 1024 l 869 894 l 488 894 q 399 867 431 894 q 358 776 368 839 l 326 574 l 754 563 l 736 454 l 306 447 l 272 236 q 269 207 269 214 q 296 141 269 160 q 375 122 322 122 l 749 122 l 731 7 l 679 4 q 539 -3 653 3 q 317 -8 425 -8 m 557 1133 q 640 1221 640 1158 q 589 1261 640 1261 q 539 1253 564 1261 l 547 1310 q 617 1319 578 1319 q 717 1232 717 1319 q 546 1069 717 1117 l 557 1133 z "},"Ȇ":{"ha":810,"x_min":124,"x_max":888,"o":"m 317 -8 q 180 28 236 -8 q 124 156 124 64 q 128 206 124 179 l 224 811 q 307 974 242 924 q 467 1024 372 1024 q 888 1010 601 1024 l 869 894 l 488 894 q 399 867 431 894 q 358 776 368 839 l 326 574 l 754 563 l 736 454 l 306 447 l 272 236 q 269 207 269 214 q 296 141 269 160 q 375 122 322 122 l 749 122 l 731 7 l 679 4 q 539 -3 653 3 q 317 -8 425 -8 m 406 1096 q 479 1248 421 1200 q 624 1296 538 1296 q 738 1260 696 1296 q 781 1147 781 1224 q 778 1096 781 1132 l 711 1096 q 714 1131 714 1121 q 686 1206 714 1182 q 614 1231 658 1231 q 522 1199 561 1231 q 472 1096 483 1167 l 406 1096 z "},"Ē":{"ha":810,"x_min":124,"x_max":888,"o":"m 317 -8 q 180 28 236 -8 q 124 156 124 64 q 128 206 124 179 l 224 811 q 307 974 242 924 q 467 1024 372 1024 q 888 1010 601 1024 l 869 894 l 488 894 q 399 867 431 894 q 358 776 368 839 l 326 574 l 754 563 l 736 454 l 306 447 l 272 236 q 269 207 269 214 q 296 141 269 160 q 375 122 322 122 l 749 122 l 731 7 l 679 4 q 539 -3 653 3 q 317 -8 425 -8 m 421 1228 l 796 1228 l 782 1144 l 407 1144 l 421 1228 z "},"Ḗ":{"ha":810,"x_min":124,"x_max":888,"o":"m 317 -8 q 180 28 236 -8 q 124 156 124 64 q 128 206 124 179 l 224 811 q 307 974 242 924 q 467 1024 372 1024 q 888 1010 601 1024 l 869 894 l 488 894 q 399 867 431 894 q 358 776 368 839 l 326 574 l 754 563 l 736 454 l 306 447 l 272 236 q 269 207 269 214 q 296 141 269 160 q 375 122 322 122 l 749 122 l 731 7 l 679 4 q 539 -3 653 3 q 317 -8 425 -8 m 421 1228 l 796 1228 l 782 1144 l 407 1144 l 421 1228 m 714 1482 l 836 1482 l 643 1290 l 556 1290 l 714 1482 z "},"Ḕ":{"ha":810,"x_min":124,"x_max":888,"o":"m 317 -8 q 180 28 236 -8 q 124 156 124 64 q 128 206 124 179 l 224 811 q 307 974 242 924 q 467 1024 372 1024 q 888 1010 601 1024 l 869 894 l 488 894 q 399 867 431 894 q 358 776 368 839 l 326 574 l 754 563 l 736 454 l 306 447 l 272 236 q 269 207 269 214 q 296 141 269 160 q 375 122 322 122 l 749 122 l 731 7 l 679 4 q 539 -3 653 3 q 317 -8 425 -8 m 421 1228 l 796 1228 l 782 1144 l 407 1144 l 421 1228 m 433 1482 l 549 1482 l 654 1290 l 572 1290 l 433 1482 z "},"Ę":{"ha":810,"x_min":124,"x_max":888,"o":"m 488 894 q 399 867 431 894 q 358 776 368 839 l 326 574 l 754 563 l 736 454 l 306 447 l 272 236 q 269 207 269 214 q 296 141 269 160 q 375 122 322 122 l 749 122 l 731 7 q 656 -52 682 -18 q 631 -114 631 -86 q 655 -165 631 -147 q 724 -183 679 -183 l 733 -183 l 722 -251 q 683 -254 703 -254 q 588 -226 621 -254 q 554 -151 554 -197 q 584 -65 554 -107 q 671 4 614 -24 l 621 1 q 498 -4 593 0 q 317 -8 403 -8 q 180 28 236 -8 q 124 156 124 64 q 128 206 124 179 l 224 811 q 307 974 242 924 q 467 1024 372 1024 q 888 1010 601 1024 l 869 894 l 488 894 z "},"Ẽ":{"ha":810,"x_min":124,"x_max":888,"o":"m 317 -8 q 180 28 236 -8 q 124 156 124 64 q 128 206 124 179 l 224 811 q 307 974 242 924 q 467 1024 372 1024 q 888 1010 601 1024 l 869 894 l 488 894 q 399 867 431 894 q 358 776 368 839 l 326 574 l 754 563 l 736 454 l 306 447 l 272 236 q 269 207 269 214 q 296 141 269 160 q 375 122 322 122 l 749 122 l 731 7 l 679 4 q 539 -3 653 3 q 317 -8 425 -8 m 361 1118 q 421 1235 378 1199 q 522 1271 464 1271 q 578 1260 551 1271 q 638 1231 604 1250 q 688 1205 671 1213 q 726 1197 706 1197 q 783 1218 760 1197 q 813 1276 806 1239 l 882 1276 q 724 1119 849 1119 q 672 1129 696 1119 q 608 1160 647 1139 q 558 1185 576 1176 q 518 1193 539 1193 q 463 1174 486 1193 q 432 1118 439 1154 l 361 1118 z "},"F":{"ha":774,"x_min":96,"x_max":886,"o":"m 224 808 q 464 1024 258 1024 q 886 1008 636 1024 l 868 894 l 485 894 q 398 867 428 894 q 358 778 368 839 l 322 554 l 751 544 l 733 436 l 304 428 l 235 0 l 96 0 l 224 808 z "},"Ḟ":{"ha":774,"x_min":96,"x_max":886,"o":"m 224 808 q 464 1024 258 1024 q 886 1008 636 1024 l 868 894 l 485 894 q 398 867 428 894 q 358 778 368 839 l 322 554 l 751 544 l 733 436 l 304 428 l 235 0 l 96 0 l 224 808 m 558 1132 q 544 1138 550 1132 q 539 1153 539 1143 l 539 1156 l 558 1272 q 585 1297 560 1297 l 650 1297 q 669 1278 669 1297 l 669 1272 l 651 1156 q 642 1138 650 1144 q 624 1132 635 1132 l 558 1132 z "},"G":{"ha":903,"x_min":139,"x_max":933,"o":"m 404 -8 q 201 67 263 -8 q 139 310 139 143 q 163 544 139 390 q 303 909 199 785 q 596 1033 408 1033 q 783 1022 704 1033 q 933 988 861 1010 l 917 881 q 608 908 778 908 q 451 866 511 908 q 356 738 390 824 q 299 511 321 653 q 281 315 281 397 q 321 168 281 215 q 451 121 361 121 q 585 136 507 121 q 704 167 664 151 l 747 439 l 519 439 l 538 549 q 771 558 622 558 q 901 556 835 558 l 813 0 l 710 0 l 700 71 q 562 19 653 46 q 404 -8 471 -8 z "},"Ğ":{"ha":903,"x_min":139,"x_max":933,"o":"m 404 -8 q 201 67 263 -8 q 139 310 139 143 q 163 544 139 390 q 303 909 199 785 q 596 1033 408 1033 q 783 1022 704 1033 q 933 988 861 1010 l 917 881 q 608 908 778 908 q 451 866 511 908 q 356 738 390 824 q 299 511 321 653 q 281 315 281 397 q 321 168 281 215 q 451 121 361 121 q 585 136 507 121 q 704 167 664 151 l 747 439 l 519 439 l 538 549 q 771 558 622 558 q 901 556 835 558 l 813 0 l 710 0 l 700 71 q 562 19 653 46 q 404 -8 471 -8 m 613 1093 q 498 1129 540 1093 q 456 1242 456 1165 q 458 1294 456 1256 l 525 1294 q 522 1258 522 1267 q 550 1183 522 1207 q 621 1158 578 1158 q 714 1191 675 1158 q 764 1294 753 1224 l 831 1294 q 757 1141 815 1189 q 613 1093 699 1093 z "},"Ǧ":{"ha":903,"x_min":139,"x_max":933,"o":"m 404 -8 q 201 67 263 -8 q 139 310 139 143 q 163 544 139 390 q 303 909 199 785 q 596 1033 408 1033 q 783 1022 704 1033 q 933 988 861 1010 l 917 881 q 608 908 778 908 q 451 866 511 908 q 356 738 390 824 q 299 511 321 653 q 281 315 281 397 q 321 168 281 215 q 451 121 361 121 q 585 136 507 121 q 704 167 664 151 l 747 439 l 519 439 l 538 549 q 771 558 622 558 q 901 556 835 558 l 813 0 l 710 0 l 700 71 q 562 19 653 46 q 404 -8 471 -8 m 468 1289 l 551 1289 l 646 1164 l 793 1289 l 876 1289 l 683 1099 l 586 1099 l 468 1289 z "},"Ĝ":{"ha":903,"x_min":139,"x_max":933,"o":"m 404 -8 q 201 67 263 -8 q 139 310 139 143 q 163 544 139 390 q 303 909 199 785 q 596 1033 408 1033 q 783 1022 704 1033 q 933 988 861 1010 l 917 881 q 608 908 778 908 q 451 866 511 908 q 356 738 390 824 q 299 511 321 653 q 281 315 281 397 q 321 168 281 215 q 451 121 361 121 q 585 136 507 121 q 704 167 664 151 l 747 439 l 519 439 l 538 549 q 771 558 622 558 q 901 556 835 558 l 813 0 l 710 0 l 700 71 q 562 19 653 46 q 404 -8 471 -8 m 594 1289 l 690 1289 l 810 1099 l 726 1099 l 629 1225 l 483 1099 l 400 1099 l 594 1289 z "},"Ģ":{"ha":903,"x_min":139,"x_max":933,"o":"m 404 -8 q 201 67 263 -8 q 139 310 139 143 q 163 544 139 390 q 303 909 199 785 q 596 1033 408 1033 q 783 1022 704 1033 q 933 988 861 1010 l 917 881 q 608 908 778 908 q 451 866 511 908 q 356 738 390 824 q 299 511 321 653 q 281 315 281 397 q 321 168 281 215 q 451 121 361 121 q 585 136 507 121 q 704 167 664 151 l 747 439 l 519 439 l 538 549 q 771 558 622 558 q 901 556 835 558 l 813 0 l 710 0 l 700 71 q 562 19 653 46 q 404 -8 471 -8 m 286 -229 l 326 -222 q 382 -205 363 -215 q 415 -169 401 -194 q 435 -92 428 -143 l 521 -92 q 490 -206 510 -165 q 433 -267 469 -247 q 335 -286 396 -286 l 276 -286 l 286 -229 z "},"Ġ":{"ha":903,"x_min":139,"x_max":933,"o":"m 404 -8 q 201 67 263 -8 q 139 310 139 143 q 163 544 139 390 q 303 909 199 785 q 596 1033 408 1033 q 783 1022 704 1033 q 933 988 861 1010 l 917 881 q 608 908 778 908 q 451 866 511 908 q 356 738 390 824 q 299 511 321 653 q 281 315 281 397 q 321 168 281 215 q 451 121 361 121 q 585 136 507 121 q 704 167 664 151 l 747 439 l 519 439 l 538 549 q 771 558 622 558 q 901 556 835 558 l 813 0 l 710 0 l 700 71 q 562 19 653 46 q 404 -8 471 -8 m 588 1132 q 574 1138 579 1132 q 568 1153 568 1143 l 568 1156 l 588 1272 q 614 1297 589 1297 l 679 1297 q 699 1278 699 1297 l 699 1272 l 681 1156 q 672 1138 679 1144 q 653 1132 664 1132 l 588 1132 z "},"Ḡ":{"ha":903,"x_min":139,"x_max":933,"o":"m 404 -8 q 201 67 263 -8 q 139 310 139 143 q 163 544 139 390 q 303 909 199 785 q 596 1033 408 1033 q 783 1022 704 1033 q 933 988 861 1010 l 917 881 q 608 908 778 908 q 451 866 511 908 q 356 738 390 824 q 299 511 321 653 q 281 315 281 397 q 321 168 281 215 q 451 121 361 121 q 585 136 507 121 q 704 167 664 151 l 747 439 l 519 439 l 538 549 q 771 558 622 558 q 901 556 835 558 l 813 0 l 710 0 l 700 71 q 562 19 653 46 q 404 -8 471 -8 m 449 1228 l 824 1228 l 810 1144 l 435 1144 l 449 1228 z "},"H":{"ha":936,"x_min":96,"x_max":1010,"o":"m 258 1024 l 397 1024 l 325 564 l 796 564 l 869 1024 l 1010 1024 l 847 0 l 707 0 l 776 439 l 304 439 l 235 0 l 96 0 l 258 1024 z "},"Ħ":{"ha":936,"x_min":96,"x_max":1060,"o":"m 1047 726 l 963 726 l 847 0 l 707 0 l 776 439 l 304 439 l 235 0 l 96 0 l 211 726 l 125 726 l 136 801 l 224 801 l 258 1024 l 397 1024 l 363 801 l 833 801 l 869 1024 l 1010 1024 l 975 801 l 1060 801 l 1047 726 m 822 726 l 350 726 l 325 564 l 796 564 l 822 726 z "},"Ḫ":{"ha":936,"x_min":96,"x_max":1010,"o":"m 258 1024 l 397 1024 l 325 564 l 796 564 l 869 1024 l 1010 1024 l 847 0 l 707 0 l 776 439 l 304 439 l 235 0 l 96 0 l 258 1024 m 404 -310 q 290 -274 332 -310 q 247 -161 247 -237 q 250 -110 247 -146 l 317 -110 q 314 -144 314 -135 q 342 -220 314 -196 q 413 -244 369 -244 q 506 -212 467 -244 q 556 -110 544 -181 l 622 -110 q 549 -262 607 -214 q 404 -310 490 -310 z "},"Ĥ":{"ha":936,"x_min":96,"x_max":1010,"o":"m 258 1024 l 397 1024 l 325 564 l 796 564 l 869 1024 l 1010 1024 l 847 0 l 707 0 l 776 439 l 304 439 l 235 0 l 96 0 l 258 1024 m 617 1289 l 713 1289 l 832 1099 l 749 1099 l 651 1225 l 506 1099 l 422 1099 l 617 1289 z "},"Ḥ":{"ha":936,"x_min":96,"x_max":1010,"o":"m 258 1024 l 397 1024 l 325 564 l 796 564 l 869 1024 l 1010 1024 l 847 0 l 707 0 l 776 439 l 304 439 l 235 0 l 96 0 l 258 1024 m 376 -299 q 363 -293 368 -299 q 357 -278 357 -287 l 357 -275 l 376 -158 q 403 -133 378 -133 l 468 -133 q 488 -153 488 -133 l 488 -158 l 469 -275 q 460 -292 468 -286 q 442 -299 453 -299 l 376 -299 z "},"I":{"ha":331,"x_min":96,"x_max":397,"o":"m 258 1024 l 397 1024 l 235 0 l 96 0 l 258 1024 z "},"Í":{"ha":331,"x_min":96,"x_max":561,"o":"m 258 1024 l 397 1024 l 235 0 l 96 0 l 258 1024 m 439 1290 l 561 1290 l 368 1099 l 281 1099 l 439 1290 z "},"Ĭ":{"ha":331,"x_min":96,"x_max":550,"o":"m 258 1024 l 397 1024 l 235 0 l 96 0 l 258 1024 m 332 1093 q 217 1129 260 1093 q 175 1242 175 1165 q 178 1294 175 1256 l 244 1294 q 242 1258 242 1267 q 269 1183 242 1207 q 340 1158 297 1158 q 433 1191 394 1158 q 483 1294 472 1224 l 550 1294 q 476 1141 535 1189 q 332 1093 418 1093 z "},"Î":{"ha":331,"x_min":96,"x_max":529,"o":"m 258 1024 l 397 1024 l 235 0 l 96 0 l 258 1024 m 314 1289 l 410 1289 l 529 1099 l 446 1099 l 349 1225 l 203 1099 l 119 1099 l 314 1289 z "},"Ȉ":{"ha":331,"x_min":56,"x_max":493,"o":"m 258 1024 l 397 1024 l 235 0 l 96 0 l 258 1024 m 56 1290 l 171 1290 l 276 1099 l 194 1099 l 56 1290 m 272 1290 l 388 1290 l 493 1099 l 411 1099 l 272 1290 z "},"Ï":{"ha":331,"x_min":96,"x_max":544,"o":"m 258 1024 l 397 1024 l 235 0 l 96 0 l 258 1024 m 150 1122 q 131 1143 131 1122 l 150 1263 q 178 1288 151 1288 l 242 1288 q 263 1268 263 1288 q 242 1146 263 1274 q 233 1128 240 1135 q 215 1122 226 1122 l 150 1122 m 432 1122 q 413 1143 413 1122 l 432 1263 q 460 1288 433 1288 l 524 1288 q 544 1268 544 1288 q 525 1146 544 1275 q 516 1128 524 1135 q 497 1122 508 1122 l 432 1122 z "},"Ḯ":{"ha":331,"x_min":96,"x_max":582,"o":"m 258 1024 l 397 1024 l 235 0 l 96 0 l 258 1024 m 150 1122 q 131 1143 131 1122 l 150 1263 q 178 1288 151 1288 l 242 1288 q 263 1268 263 1288 q 242 1146 263 1274 q 233 1128 240 1135 q 215 1122 226 1122 l 150 1122 m 432 1122 q 413 1143 413 1122 l 432 1263 q 460 1288 433 1288 l 524 1288 q 544 1268 544 1288 q 525 1146 544 1275 q 516 1128 524 1135 q 497 1122 508 1122 l 432 1122 m 460 1525 l 582 1525 l 389 1333 l 301 1333 l 460 1525 z "},"İ":{"ha":331,"x_min":96,"x_max":418,"o":"m 258 1024 l 397 1024 l 235 0 l 96 0 l 258 1024 m 307 1132 q 293 1138 299 1132 q 288 1153 288 1143 l 288 1156 l 307 1272 q 333 1297 308 1297 l 399 1297 q 418 1278 418 1297 l 418 1272 l 400 1156 q 391 1138 399 1144 q 372 1132 383 1132 l 307 1132 z "},"Ị":{"ha":331,"x_min":54,"x_max":397,"o":"m 258 1024 l 397 1024 l 235 0 l 96 0 l 258 1024 m 74 -299 q 60 -293 65 -299 q 54 -278 54 -287 l 54 -275 l 74 -158 q 100 -133 75 -133 l 165 -133 q 185 -153 185 -133 l 185 -158 l 167 -275 q 158 -292 165 -286 q 139 -299 150 -299 l 74 -299 z "},"Ì":{"ha":331,"x_min":96,"x_max":407,"o":"m 258 1024 l 397 1024 l 235 0 l 96 0 l 258 1024 m 186 1290 l 301 1290 l 407 1099 l 325 1099 l 186 1290 z "},"Ỉ":{"ha":331,"x_min":96,"x_max":464,"o":"m 258 1024 l 397 1024 l 235 0 l 96 0 l 258 1024 m 304 1133 q 388 1221 388 1158 q 336 1261 388 1261 q 286 1253 311 1261 l 294 1310 q 364 1319 325 1319 q 464 1232 464 1319 q 293 1069 464 1117 l 304 1133 z "},"Ȋ":{"ha":331,"x_min":96,"x_max":528,"o":"m 258 1024 l 397 1024 l 235 0 l 96 0 l 258 1024 m 153 1096 q 226 1248 168 1200 q 371 1296 285 1296 q 485 1260 443 1296 q 528 1147 528 1224 q 525 1096 528 1132 l 458 1096 q 461 1131 461 1121 q 433 1206 461 1182 q 361 1231 406 1231 q 269 1199 308 1231 q 219 1096 231 1167 l 153 1096 z "},"Ī":{"ha":331,"x_min":96,"x_max":543,"o":"m 258 1024 l 397 1024 l 235 0 l 96 0 l 258 1024 m 168 1228 l 543 1228 l 529 1144 l 154 1144 l 168 1228 z "},"Į":{"ha":331,"x_min":58,"x_max":397,"o":"m 258 1024 l 397 1024 l 235 0 l 96 0 l 258 1024 m 188 -261 q 92 -233 125 -261 q 58 -158 58 -204 q 90 -70 58 -112 q 182 0 121 -28 l 235 0 q 160 -59 186 -25 q 135 -121 135 -93 q 159 -172 135 -154 q 228 -190 183 -190 l 238 -190 l 226 -258 q 188 -261 207 -261 z "},"Ĩ":{"ha":331,"x_min":96,"x_max":629,"o":"m 258 1024 l 397 1024 l 235 0 l 96 0 l 258 1024 m 108 1118 q 168 1235 125 1199 q 269 1271 211 1271 q 325 1260 299 1271 q 385 1231 351 1250 q 435 1205 418 1213 q 474 1197 453 1197 q 530 1218 507 1197 q 560 1276 553 1239 l 629 1276 q 471 1119 596 1119 q 419 1129 443 1119 q 356 1160 394 1139 q 305 1185 324 1176 q 265 1193 286 1193 q 210 1174 233 1193 q 179 1118 186 1154 l 108 1118 z "},"J":{"ha":504,"x_min":44,"x_max":594,"o":"m 197 -8 q 113 1 154 -8 q 44 24 71 10 l 63 133 q 176 119 114 119 q 283 156 244 119 q 335 271 322 193 l 454 1024 l 594 1024 l 471 244 q 384 51 449 111 q 197 -8 319 -8 z "},"Ĵ":{"ha":504,"x_min":44,"x_max":726,"o":"m 197 -8 q 113 1 154 -8 q 44 24 71 10 l 63 133 q 176 119 114 119 q 283 156 244 119 q 335 271 322 193 l 454 1024 l 594 1024 l 471 244 q 384 51 449 111 q 197 -8 319 -8 m 511 1289 l 607 1289 l 726 1099 l 643 1099 l 546 1225 l 400 1099 l 317 1099 l 511 1289 z "},"K":{"ha":849,"x_min":96,"x_max":963,"o":"m 258 1024 l 397 1024 l 326 576 l 493 576 l 818 1024 l 963 1024 l 596 511 l 821 0 l 681 0 l 481 451 l 306 451 l 235 0 l 96 0 l 258 1024 z "},"Ķ":{"ha":849,"x_min":96,"x_max":963,"o":"m 258 1024 l 397 1024 l 326 576 l 493 576 l 818 1024 l 963 1024 l 596 511 l 821 0 l 681 0 l 481 451 l 306 451 l 235 0 l 96 0 l 258 1024 m 254 -229 l 294 -222 q 350 -205 331 -215 q 383 -169 369 -194 q 403 -92 396 -143 l 489 -92 q 458 -206 478 -165 q 401 -267 438 -247 q 303 -286 364 -286 l 244 -286 l 254 -229 z "},"L":{"ha":731,"x_min":126,"x_max":719,"o":"m 313 0 q 126 164 126 0 q 131 221 126 192 l 258 1024 l 397 1024 l 272 238 q 269 203 269 213 q 294 142 269 160 q 367 125 319 125 l 719 125 l 699 0 l 313 0 z "},"Ĺ":{"ha":731,"x_min":126,"x_max":719,"o":"m 313 0 q 126 164 126 0 q 131 221 126 192 l 258 1024 l 397 1024 l 272 238 q 269 203 269 213 q 294 142 269 160 q 367 125 319 125 l 719 125 l 699 0 l 313 0 m 446 1290 l 568 1290 l 375 1099 l 288 1099 l 446 1290 z "},"Ľ":{"ha":731,"x_min":126,"x_max":719,"o":"m 313 0 q 126 164 126 0 q 131 221 126 192 l 258 1024 l 397 1024 l 272 238 q 269 203 269 213 q 294 142 269 160 q 367 125 319 125 l 719 125 l 699 0 l 313 0 m 526 933 l 540 1026 l 669 1026 l 654 933 l 613 729 l 508 729 l 526 933 z "},"Ļ":{"ha":731,"x_min":126,"x_max":719,"o":"m 313 0 q 126 164 126 0 q 131 221 126 192 l 258 1024 l 397 1024 l 272 238 q 269 203 269 213 q 294 142 269 160 q 367 125 319 125 l 719 125 l 699 0 l 313 0 m 225 -229 l 265 -222 q 321 -205 301 -215 q 353 -169 340 -194 q 374 -92 367 -143 l 460 -92 q 428 -206 449 -165 q 372 -267 408 -247 q 274 -286 335 -286 l 215 -286 l 225 -229 z "},"Ŀ":{"ha":731,"x_min":126,"x_max":719,"o":"m 313 0 q 126 164 126 0 q 131 221 126 192 l 258 1024 l 397 1024 l 272 238 q 269 203 269 213 q 294 142 269 160 q 367 125 319 125 l 719 125 l 699 0 l 313 0 m 575 538 q 559 544 565 538 q 554 561 553 550 l 568 644 q 596 669 571 669 l 675 669 q 696 644 700 669 l 682 561 q 654 538 678 538 l 575 538 z "},"Ḷ":{"ha":731,"x_min":126,"x_max":719,"o":"m 313 0 q 126 164 126 0 q 131 221 126 192 l 258 1024 l 397 1024 l 272 238 q 269 203 269 213 q 294 142 269 160 q 367 125 319 125 l 719 125 l 699 0 l 313 0 m 293 -299 q 279 -293 285 -299 q 274 -278 274 -287 l 274 -275 l 293 -158 q 319 -133 294 -133 l 385 -133 q 404 -153 404 -133 l 404 -158 l 386 -275 q 377 -292 385 -286 q 358 -299 369 -299 l 293 -299 z "},"Ḻ":{"ha":731,"x_min":126,"x_max":719,"o":"m 313 0 q 126 164 126 0 q 131 221 126 192 l 258 1024 l 397 1024 l 272 238 q 269 203 269 213 q 294 142 269 160 q 367 125 319 125 l 719 125 l 699 0 l 313 0 m 153 -189 l 528 -189 l 514 -272 l 139 -272 l 153 -189 z "},"Ł":{"ha":731,"x_min":67,"x_max":719,"o":"m 719 125 l 699 0 l 313 0 q 126 164 126 0 q 131 221 126 192 l 171 474 l 67 432 l 78 511 l 183 553 l 258 1024 l 397 1024 l 329 596 l 532 678 l 519 600 l 317 518 l 272 238 q 269 203 269 213 q 294 142 269 160 q 367 125 319 125 l 719 125 z "},"M":{"ha":1154,"x_min":74,"x_max":1151,"o":"m 356 1024 l 486 1024 l 619 176 l 1022 1024 l 1151 1024 l 1110 0 l 974 0 l 1008 771 l 657 0 l 526 0 l 418 767 l 213 0 l 74 0 l 356 1024 z "},"Ṁ":{"ha":1154,"x_min":74,"x_max":1151,"o":"m 356 1024 l 486 1024 l 619 176 l 1022 1024 l 1151 1024 l 1110 0 l 974 0 l 1008 771 l 657 0 l 526 0 l 418 767 l 213 0 l 74 0 l 356 1024 m 717 1132 q 703 1138 708 1132 q 697 1153 697 1143 l 697 1156 l 717 1272 q 743 1297 718 1297 l 808 1297 q 828 1278 828 1297 l 828 1272 l 810 1156 q 801 1138 808 1144 q 782 1132 793 1132 l 717 1132 z "},"Ṃ":{"ha":1154,"x_min":74,"x_max":1151,"o":"m 356 1024 l 486 1024 l 619 176 l 1022 1024 l 1151 1024 l 1110 0 l 974 0 l 1008 771 l 657 0 l 526 0 l 418 767 l 213 0 l 74 0 l 356 1024 m 483 -299 q 469 -293 475 -299 q 464 -278 464 -287 l 464 -275 l 483 -158 q 510 -133 485 -133 l 575 -133 q 594 -153 594 -133 l 594 -158 l 576 -275 q 567 -292 575 -286 q 549 -299 560 -299 l 483 -299 z "},"N":{"ha":939,"x_min":96,"x_max":1013,"o":"m 258 1024 l 371 1024 l 747 238 l 872 1024 l 1013 1024 l 850 0 l 736 0 l 360 788 l 235 0 l 96 0 l 258 1024 z "},"Ń":{"ha":939,"x_min":96,"x_max":1013,"o":"m 258 1024 l 371 1024 l 747 238 l 872 1024 l 1013 1024 l 850 0 l 736 0 l 360 788 l 235 0 l 96 0 l 258 1024 m 728 1290 l 850 1290 l 657 1099 l 569 1099 l 728 1290 z "},"Ň":{"ha":939,"x_min":96,"x_max":1013,"o":"m 258 1024 l 371 1024 l 747 238 l 872 1024 l 1013 1024 l 850 0 l 736 0 l 360 788 l 235 0 l 96 0 l 258 1024 m 476 1289 l 560 1289 l 654 1164 l 801 1289 l 885 1289 l 692 1099 l 594 1099 l 476 1289 z "},"Ņ":{"ha":939,"x_min":96,"x_max":1013,"o":"m 258 1024 l 371 1024 l 747 238 l 872 1024 l 1013 1024 l 850 0 l 736 0 l 360 788 l 235 0 l 96 0 l 258 1024 m 294 -229 l 335 -222 q 390 -205 371 -215 q 423 -169 410 -194 q 443 -92 436 -143 l 529 -92 q 498 -206 518 -165 q 441 -267 478 -247 q 343 -286 404 -286 l 285 -286 l 294 -229 z "},"Ṅ":{"ha":939,"x_min":96,"x_max":1013,"o":"m 258 1024 l 371 1024 l 747 238 l 872 1024 l 1013 1024 l 850 0 l 736 0 l 360 788 l 235 0 l 96 0 l 258 1024 m 363 -299 q 349 -293 354 -299 q 343 -278 343 -287 l 343 -275 l 363 -158 q 389 -133 364 -133 l 454 -133 q 474 -153 474 -133 l 474 -158 l 456 -275 q 447 -292 454 -286 q 428 -299 439 -299 l 363 -299 z "},"Ṇ":{"ha":939,"x_min":96,"x_max":1013,"o":"m 258 1024 l 371 1024 l 747 238 l 872 1024 l 1013 1024 l 850 0 l 736 0 l 360 788 l 235 0 l 96 0 l 258 1024 m 363 -299 q 349 -293 354 -299 q 343 -278 343 -287 l 343 -275 l 363 -158 q 389 -133 364 -133 l 454 -133 q 474 -153 474 -133 l 474 -158 l 456 -275 q 447 -292 454 -286 q 428 -299 439 -299 l 363 -299 z "},"Ŋ":{"ha":939,"x_min":96,"x_max":1013,"o":"m 858 51 l 835 -94 q 742 -280 814 -222 q 539 -337 671 -337 q 456 -328 499 -337 q 383 -307 413 -319 l 400 -197 q 535 -212 489 -212 q 645 -182 604 -212 q 699 -76 686 -151 l 717 40 l 360 788 l 235 0 l 96 0 l 258 1024 l 371 1024 l 747 238 l 872 1024 l 1013 1024 l 858 51 z "},"Ṉ":{"ha":939,"x_min":96,"x_max":1013,"o":"m 258 1024 l 371 1024 l 747 238 l 872 1024 l 1013 1024 l 850 0 l 736 0 l 360 788 l 235 0 l 96 0 l 258 1024 m 238 -189 l 613 -189 l 599 -272 l 224 -272 l 238 -189 z "},"Ñ":{"ha":939,"x_min":96,"x_max":1013,"o":"m 258 1024 l 371 1024 l 747 238 l 872 1024 l 1013 1024 l 850 0 l 736 0 l 360 788 l 235 0 l 96 0 l 258 1024 m 397 1118 q 457 1235 414 1199 q 558 1271 500 1271 q 614 1260 588 1271 q 674 1231 640 1250 q 724 1205 707 1213 q 763 1197 742 1197 q 819 1218 796 1197 q 849 1276 842 1239 l 918 1276 q 760 1119 885 1119 q 708 1129 732 1119 q 644 1160 683 1139 q 594 1185 613 1176 q 554 1193 575 1193 q 499 1174 522 1193 q 468 1118 475 1154 l 397 1118 z "},"O":{"ha":958,"x_min":138,"x_max":981,"o":"m 475 -8 q 290 17 363 -8 q 177 110 217 42 q 138 301 138 178 q 160 531 138 406 q 249 838 190 729 q 401 989 307 946 q 643 1032 494 1032 q 825 1005 751 1032 q 940 906 899 978 q 981 708 981 835 q 958 481 981 618 q 867 175 926 281 q 716 31 808 69 q 475 -8 624 -8 m 499 118 q 659 151 599 118 q 757 265 719 183 q 819 501 794 347 q 840 707 840 625 q 816 831 840 788 q 745 891 792 875 q 622 907 699 907 q 463 874 524 907 q 363 756 403 842 q 299 508 324 671 q 276 308 276 382 q 299 190 276 231 q 369 133 322 149 q 499 118 417 118 z "},"Ó":{"ha":958,"x_min":138,"x_max":981,"o":"m 475 -8 q 290 17 363 -8 q 177 110 217 42 q 138 301 138 178 q 160 531 138 406 q 249 838 190 729 q 401 989 307 946 q 643 1032 494 1032 q 825 1005 751 1032 q 940 906 899 978 q 981 708 981 835 q 958 481 981 618 q 867 175 926 281 q 716 31 808 69 q 475 -8 624 -8 m 499 118 q 659 151 599 118 q 757 265 719 183 q 819 501 794 347 q 840 707 840 625 q 816 831 840 788 q 745 891 792 875 q 622 907 699 907 q 463 874 524 907 q 363 756 403 842 q 299 508 324 671 q 276 308 276 382 q 299 190 276 231 q 369 133 322 149 q 499 118 417 118 m 757 1290 l 879 1290 l 686 1099 l 599 1099 l 757 1290 z "},"Ŏ":{"ha":958,"x_min":138,"x_max":981,"o":"m 475 -8 q 290 17 363 -8 q 177 110 217 42 q 138 301 138 178 q 160 531 138 406 q 249 838 190 729 q 401 989 307 946 q 643 1032 494 1032 q 825 1005 751 1032 q 940 906 899 978 q 981 708 981 835 q 958 481 981 618 q 867 175 926 281 q 716 31 808 69 q 475 -8 624 -8 m 499 118 q 659 151 599 118 q 757 265 719 183 q 819 501 794 347 q 840 707 840 625 q 816 831 840 788 q 745 891 792 875 q 622 907 699 907 q 463 874 524 907 q 363 756 403 842 q 299 508 324 671 q 276 308 276 382 q 299 190 276 231 q 369 133 322 149 q 499 118 417 118 m 650 1093 q 535 1129 578 1093 q 493 1242 493 1165 q 496 1294 493 1256 l 563 1294 q 560 1258 560 1267 q 588 1183 560 1207 q 658 1158 615 1158 q 751 1191 713 1158 q 801 1294 790 1224 l 868 1294 q 794 1141 853 1189 q 650 1093 736 1093 z "},"Ô":{"ha":958,"x_min":138,"x_max":981,"o":"m 475 -8 q 290 17 363 -8 q 177 110 217 42 q 138 301 138 178 q 160 531 138 406 q 249 838 190 729 q 401 989 307 946 q 643 1032 494 1032 q 825 1005 751 1032 q 940 906 899 978 q 981 708 981 835 q 958 481 981 618 q 867 175 926 281 q 716 31 808 69 q 475 -8 624 -8 m 499 118 q 659 151 599 118 q 757 265 719 183 q 819 501 794 347 q 840 707 840 625 q 816 831 840 788 q 745 891 792 875 q 622 907 699 907 q 463 874 524 907 q 363 756 403 842 q 299 508 324 671 q 276 308 276 382 q 299 190 276 231 q 369 133 322 149 q 499 118 417 118 m 632 1289 l 728 1289 l 847 1099 l 764 1099 l 667 1225 l 521 1099 l 438 1099 l 632 1289 z "},"Ố":{"ha":958,"x_min":138,"x_max":1038,"o":"m 475 -8 q 290 17 363 -8 q 177 110 217 42 q 138 301 138 178 q 160 531 138 406 q 249 838 190 729 q 401 989 307 946 q 643 1032 494 1032 q 825 1005 751 1032 q 940 906 899 978 q 981 708 981 835 q 958 481 981 618 q 867 175 926 281 q 716 31 808 69 q 475 -8 624 -8 m 499 118 q 659 151 599 118 q 757 265 719 183 q 819 501 794 347 q 840 707 840 625 q 816 831 840 788 q 745 891 792 875 q 622 907 699 907 q 463 874 524 907 q 363 756 403 842 q 299 508 324 671 q 276 308 276 382 q 299 190 276 231 q 369 133 322 149 q 499 118 417 118 m 928 1388 l 1038 1388 l 871 1208 l 796 1208 l 928 1388 m 631 1240 l 728 1240 l 854 1099 l 771 1099 l 667 1175 l 529 1099 l 446 1099 l 631 1240 z "},"Ộ":{"ha":958,"x_min":138,"x_max":981,"o":"m 475 -8 q 290 17 363 -8 q 177 110 217 42 q 138 301 138 178 q 160 531 138 406 q 249 838 190 729 q 401 989 307 946 q 643 1032 494 1032 q 825 1005 751 1032 q 940 906 899 978 q 981 708 981 835 q 958 481 981 618 q 867 175 926 281 q 716 31 808 69 q 475 -8 624 -8 m 499 118 q 659 151 599 118 q 757 265 719 183 q 819 501 794 347 q 840 707 840 625 q 816 831 840 788 q 745 891 792 875 q 622 907 699 907 q 463 874 524 907 q 363 756 403 842 q 299 508 324 671 q 276 308 276 382 q 299 190 276 231 q 369 133 322 149 q 499 118 417 118 m 632 1289 l 728 1289 l 847 1099 l 764 1099 l 667 1225 l 521 1099 l 438 1099 l 632 1289 m 392 -299 q 378 -293 383 -299 q 372 -278 372 -287 l 372 -275 l 392 -158 q 418 -133 393 -133 l 483 -133 q 503 -153 503 -133 l 503 -158 l 485 -275 q 476 -292 483 -286 q 457 -299 468 -299 l 392 -299 z "},"Ồ":{"ha":958,"x_min":138,"x_max":981,"o":"m 475 -8 q 290 17 363 -8 q 177 110 217 42 q 138 301 138 178 q 160 531 138 406 q 249 838 190 729 q 401 989 307 946 q 643 1032 494 1032 q 825 1005 751 1032 q 940 906 899 978 q 981 708 981 835 q 958 481 981 618 q 867 175 926 281 q 716 31 808 69 q 475 -8 624 -8 m 499 118 q 659 151 599 118 q 757 265 719 183 q 819 501 794 347 q 840 707 840 625 q 816 831 840 788 q 745 891 792 875 q 622 907 699 907 q 463 874 524 907 q 363 756 403 842 q 299 508 324 671 q 276 308 276 382 q 299 190 276 231 q 369 133 322 149 q 499 118 417 118 m 364 1388 l 474 1388 l 549 1208 l 474 1208 l 364 1388 m 625 1240 l 722 1240 l 849 1099 l 765 1099 l 661 1175 l 522 1099 l 439 1099 l 625 1240 z "},"Ổ":{"ha":958,"x_min":138,"x_max":981,"o":"m 475 -8 q 290 17 363 -8 q 177 110 217 42 q 138 301 138 178 q 160 531 138 406 q 249 838 190 729 q 401 989 307 946 q 643 1032 494 1032 q 825 1005 751 1032 q 940 906 899 978 q 981 708 981 835 q 958 481 981 618 q 867 175 926 281 q 716 31 808 69 q 475 -8 624 -8 m 499 118 q 659 151 599 118 q 757 265 719 183 q 819 501 794 347 q 840 707 840 625 q 816 831 840 788 q 745 891 792 875 q 622 907 699 907 q 463 874 524 907 q 363 756 403 842 q 299 508 324 671 q 276 308 276 382 q 299 190 276 231 q 369 133 322 149 q 499 118 417 118 m 829 1229 q 901 1304 901 1254 q 858 1336 901 1336 q 808 1328 831 1336 l 817 1385 q 883 1396 853 1396 q 974 1319 974 1396 q 821 1172 974 1214 l 829 1229 m 633 1240 l 731 1240 l 857 1099 l 774 1099 l 669 1175 l 532 1099 l 447 1099 l 633 1240 z "},"Ỗ":{"ha":958,"x_min":138,"x_max":981,"o":"m 475 -8 q 290 17 363 -8 q 177 110 217 42 q 138 301 138 178 q 160 531 138 406 q 249 838 190 729 q 401 989 307 946 q 643 1032 494 1032 q 825 1005 751 1032 q 940 906 899 978 q 981 708 981 835 q 958 481 981 618 q 867 175 926 281 q 716 31 808 69 q 475 -8 624 -8 m 499 118 q 659 151 599 118 q 757 265 719 183 q 819 501 794 347 q 840 707 840 625 q 816 831 840 788 q 745 891 792 875 q 622 907 699 907 q 463 874 524 907 q 363 756 403 842 q 299 508 324 671 q 276 308 276 382 q 299 190 276 231 q 369 133 322 149 q 499 118 417 118 m 456 1301 q 603 1425 482 1425 q 651 1417 629 1425 q 704 1396 674 1410 q 747 1378 729 1385 q 783 1372 764 1372 q 835 1387 814 1372 q 860 1429 856 1401 l 931 1429 q 880 1333 917 1363 q 782 1303 843 1303 q 734 1310 757 1303 q 683 1331 711 1317 q 637 1349 654 1343 q 601 1356 619 1356 q 552 1341 572 1356 q 526 1301 532 1326 l 456 1301 m 633 1240 l 731 1240 l 856 1099 l 772 1099 l 669 1175 l 531 1099 l 447 1099 l 633 1240 z "},"Ȍ":{"ha":958,"x_min":138,"x_max":981,"o":"m 475 -8 q 290 17 363 -8 q 177 110 217 42 q 138 301 138 178 q 160 531 138 406 q 249 838 190 729 q 401 989 307 946 q 643 1032 494 1032 q 825 1005 751 1032 q 940 906 899 978 q 981 708 981 835 q 958 481 981 618 q 867 175 926 281 q 716 31 808 69 q 475 -8 624 -8 m 499 118 q 659 151 599 118 q 757 265 719 183 q 819 501 794 347 q 840 707 840 625 q 816 831 840 788 q 745 891 792 875 q 622 907 699 907 q 463 874 524 907 q 363 756 403 842 q 299 508 324 671 q 276 308 276 382 q 299 190 276 231 q 369 133 322 149 q 499 118 417 118 m 374 1290 l 489 1290 l 594 1099 l 513 1099 l 374 1290 m 590 1290 l 706 1290 l 811 1099 l 729 1099 l 590 1290 z "},"Ö":{"ha":958,"x_min":138,"x_max":981,"o":"m 475 -8 q 290 17 363 -8 q 177 110 217 42 q 138 301 138 178 q 160 531 138 406 q 249 838 190 729 q 401 989 307 946 q 643 1032 494 1032 q 825 1005 751 1032 q 940 906 899 978 q 981 708 981 835 q 958 481 981 618 q 867 175 926 281 q 716 31 808 69 q 475 -8 624 -8 m 499 118 q 659 151 599 118 q 757 265 719 183 q 819 501 794 347 q 840 707 840 625 q 816 831 840 788 q 745 891 792 875 q 622 907 699 907 q 463 874 524 907 q 363 756 403 842 q 299 508 324 671 q 276 308 276 382 q 299 190 276 231 q 369 133 322 149 q 499 118 417 118 m 468 1122 q 449 1143 449 1122 l 468 1263 q 496 1288 469 1288 l 560 1288 q 581 1268 581 1288 q 560 1146 581 1274 q 551 1128 558 1135 q 533 1122 544 1122 l 468 1122 m 750 1122 q 731 1143 731 1122 l 750 1263 q 778 1288 751 1288 l 842 1288 q 863 1268 863 1288 q 843 1146 863 1275 q 834 1128 842 1135 q 815 1122 826 1122 l 750 1122 z "},"Ȫ":{"ha":958,"x_min":138,"x_max":981,"o":"m 475 -8 q 290 17 363 -8 q 177 110 217 42 q 138 301 138 178 q 160 531 138 406 q 249 838 190 729 q 401 989 307 946 q 643 1032 494 1032 q 825 1005 751 1032 q 940 906 899 978 q 981 708 981 835 q 958 481 981 618 q 867 175 926 281 q 716 31 808 69 q 475 -8 624 -8 m 499 118 q 659 151 599 118 q 757 265 719 183 q 819 501 794 347 q 840 707 840 625 q 816 831 840 788 q 745 891 792 875 q 622 907 699 907 q 463 874 524 907 q 363 756 403 842 q 299 508 324 671 q 276 308 276 382 q 299 190 276 231 q 369 133 322 149 q 499 118 417 118 m 475 1122 q 456 1143 456 1122 l 475 1263 q 503 1288 476 1288 l 567 1288 q 588 1268 588 1288 q 567 1146 588 1274 q 558 1128 565 1135 q 540 1122 551 1122 l 475 1122 m 757 1122 q 738 1143 738 1122 l 757 1263 q 785 1288 758 1288 l 849 1288 q 869 1268 869 1288 q 850 1146 869 1275 q 841 1128 849 1135 q 822 1122 833 1122 l 757 1122 m 508 1446 l 883 1446 l 869 1363 l 494 1363 l 508 1446 z "},"Ȱ":{"ha":958,"x_min":138,"x_max":981,"o":"m 475 -8 q 290 17 363 -8 q 177 110 217 42 q 138 301 138 178 q 160 531 138 406 q 249 838 190 729 q 401 989 307 946 q 643 1032 494 1032 q 825 1005 751 1032 q 940 906 899 978 q 981 708 981 835 q 958 481 981 618 q 867 175 926 281 q 716 31 808 69 q 475 -8 624 -8 m 499 118 q 659 151 599 118 q 757 265 719 183 q 819 501 794 347 q 840 707 840 625 q 816 831 840 788 q 745 891 792 875 q 622 907 699 907 q 463 874 524 907 q 363 756 403 842 q 299 508 324 671 q 276 308 276 382 q 299 190 276 231 q 369 133 322 149 q 499 118 417 118 m 625 1132 q 611 1138 617 1132 q 606 1153 606 1143 l 606 1156 l 625 1272 q 651 1297 626 1297 l 717 1297 q 736 1278 736 1297 l 736 1272 l 718 1156 q 709 1138 717 1144 q 690 1132 701 1132 l 625 1132 m 517 1468 l 892 1468 l 878 1385 l 503 1385 l 517 1468 z "},"Ọ":{"ha":958,"x_min":138,"x_max":981,"o":"m 475 -8 q 290 17 363 -8 q 177 110 217 42 q 138 301 138 178 q 160 531 138 406 q 249 838 190 729 q 401 989 307 946 q 643 1032 494 1032 q 825 1005 751 1032 q 940 906 899 978 q 981 708 981 835 q 958 481 981 618 q 867 175 926 281 q 716 31 808 69 q 475 -8 624 -8 m 499 118 q 659 151 599 118 q 757 265 719 183 q 819 501 794 347 q 840 707 840 625 q 816 831 840 788 q 745 891 792 875 q 622 907 699 907 q 463 874 524 907 q 363 756 403 842 q 299 508 324 671 q 276 308 276 382 q 299 190 276 231 q 369 133 322 149 q 499 118 417 118 m 392 -299 q 378 -293 383 -299 q 372 -278 372 -287 l 372 -275 l 392 -158 q 418 -133 393 -133 l 483 -133 q 503 -153 503 -133 l 503 -158 l 485 -275 q 476 -292 483 -286 q 457 -299 468 -299 l 392 -299 z "},"Ò":{"ha":958,"x_min":138,"x_max":981,"o":"m 475 -8 q 290 17 363 -8 q 177 110 217 42 q 138 301 138 178 q 160 531 138 406 q 249 838 190 729 q 401 989 307 946 q 643 1032 494 1032 q 825 1005 751 1032 q 940 906 899 978 q 981 708 981 835 q 958 481 981 618 q 867 175 926 281 q 716 31 808 69 q 475 -8 624 -8 m 499 118 q 659 151 599 118 q 757 265 719 183 q 819 501 794 347 q 840 707 840 625 q 816 831 840 788 q 745 891 792 875 q 622 907 699 907 q 463 874 524 907 q 363 756 403 842 q 299 508 324 671 q 276 308 276 382 q 299 190 276 231 q 369 133 322 149 q 499 118 417 118 m 504 1290 l 619 1290 l 725 1099 l 643 1099 l 504 1290 z "},"Ỏ":{"ha":958,"x_min":138,"x_max":981,"o":"m 475 -8 q 290 17 363 -8 q 177 110 217 42 q 138 301 138 178 q 160 531 138 406 q 249 838 190 729 q 401 989 307 946 q 643 1032 494 1032 q 825 1005 751 1032 q 940 906 899 978 q 981 708 981 835 q 958 481 981 618 q 867 175 926 281 q 716 31 808 69 q 475 -8 624 -8 m 499 118 q 659 151 599 118 q 757 265 719 183 q 819 501 794 347 q 840 707 840 625 q 816 831 840 788 q 745 891 792 875 q 622 907 699 907 q 463 874 524 907 q 363 756 403 842 q 299 508 324 671 q 276 308 276 382 q 299 190 276 231 q 369 133 322 149 q 499 118 417 118 m 622 1133 q 706 1221 706 1158 q 654 1261 706 1261 q 604 1253 629 1261 l 613 1310 q 682 1319 643 1319 q 782 1232 782 1319 q 611 1069 782 1117 l 622 1133 z "},"Ơ":{"ha":961,"x_min":138,"x_max":1085,"o":"m 1085 1179 q 1022 1021 1069 1078 q 907 950 974 964 q 981 708 981 872 q 958 481 981 618 q 867 175 926 281 q 716 31 808 69 q 475 -8 624 -8 q 290 17 363 -8 q 177 110 217 42 q 138 301 138 178 q 160 531 138 406 q 249 838 190 729 q 401 989 307 946 q 643 1032 494 1032 q 756 1024 703 1032 l 854 1024 q 939 1060 906 1024 q 986 1179 972 1096 l 1085 1179 m 819 501 q 840 707 840 625 q 816 831 840 788 q 745 891 792 875 q 622 907 699 907 q 463 874 524 907 q 363 756 403 842 q 299 508 324 671 q 276 308 276 382 q 299 190 276 231 q 369 133 322 149 q 499 118 417 118 q 659 151 599 118 q 757 265 719 183 q 819 501 794 347 z "},"Ớ":{"ha":961,"x_min":138,"x_max":1085,"o":"m 1085 1179 q 1022 1021 1069 1078 q 907 950 974 964 q 981 708 981 872 q 958 481 981 618 q 867 175 926 281 q 716 31 808 69 q 475 -8 624 -8 q 290 17 363 -8 q 177 110 217 42 q 138 301 138 178 q 160 531 138 406 q 249 838 190 729 q 401 989 307 946 q 643 1032 494 1032 q 756 1024 703 1032 l 854 1024 q 939 1060 906 1024 q 986 1179 972 1096 l 1085 1179 m 819 501 q 840 707 840 625 q 816 831 840 788 q 745 891 792 875 q 622 907 699 907 q 463 874 524 907 q 363 756 403 842 q 299 508 324 671 q 276 308 276 382 q 299 190 276 231 q 369 133 322 149 q 499 118 417 118 q 659 151 599 118 q 757 265 719 183 q 819 501 794 347 m 736 1290 l 858 1290 l 665 1099 l 578 1099 l 736 1290 z "},"Ợ":{"ha":961,"x_min":138,"x_max":1085,"o":"m 1085 1179 q 1022 1021 1069 1078 q 907 950 974 964 q 981 708 981 872 q 958 481 981 618 q 867 175 926 281 q 716 31 808 69 q 475 -8 624 -8 q 290 17 363 -8 q 177 110 217 42 q 138 301 138 178 q 160 531 138 406 q 249 838 190 729 q 401 989 307 946 q 643 1032 494 1032 q 756 1024 703 1032 l 854 1024 q 939 1060 906 1024 q 986 1179 972 1096 l 1085 1179 m 819 501 q 840 707 840 625 q 816 831 840 788 q 745 891 792 875 q 622 907 699 907 q 463 874 524 907 q 363 756 403 842 q 299 508 324 671 q 276 308 276 382 q 299 190 276 231 q 369 133 322 149 q 499 118 417 118 q 659 151 599 118 q 757 265 719 183 q 819 501 794 347 m 379 -299 q 365 -293 371 -299 q 360 -278 360 -287 l 360 -275 l 379 -158 q 406 -133 381 -133 l 471 -133 q 490 -153 490 -133 l 490 -158 l 472 -275 q 463 -292 471 -286 q 444 -299 456 -299 l 379 -299 z "},"Ờ":{"ha":961,"x_min":138,"x_max":1085,"o":"m 1085 1179 q 1022 1021 1069 1078 q 907 950 974 964 q 981 708 981 872 q 958 481 981 618 q 867 175 926 281 q 716 31 808 69 q 475 -8 624 -8 q 290 17 363 -8 q 177 110 217 42 q 138 301 138 178 q 160 531 138 406 q 249 838 190 729 q 401 989 307 946 q 643 1032 494 1032 q 756 1024 703 1032 l 854 1024 q 939 1060 906 1024 q 986 1179 972 1096 l 1085 1179 m 819 501 q 840 707 840 625 q 816 831 840 788 q 745 891 792 875 q 622 907 699 907 q 463 874 524 907 q 363 756 403 842 q 299 508 324 671 q 276 308 276 382 q 299 190 276 231 q 369 133 322 149 q 499 118 417 118 q 659 151 599 118 q 757 265 719 183 q 819 501 794 347 m 483 1290 l 599 1290 l 704 1099 l 622 1099 l 483 1290 z "},"Ở":{"ha":961,"x_min":138,"x_max":1085,"o":"m 1085 1179 q 1022 1021 1069 1078 q 907 950 974 964 q 981 708 981 872 q 958 481 981 618 q 867 175 926 281 q 716 31 808 69 q 475 -8 624 -8 q 290 17 363 -8 q 177 110 217 42 q 138 301 138 178 q 160 531 138 406 q 249 838 190 729 q 401 989 307 946 q 643 1032 494 1032 q 756 1024 703 1032 l 854 1024 q 939 1060 906 1024 q 986 1179 972 1096 l 1085 1179 m 819 501 q 840 707 840 625 q 816 831 840 788 q 745 891 792 875 q 622 907 699 907 q 463 874 524 907 q 363 756 403 842 q 299 508 324 671 q 276 308 276 382 q 299 190 276 231 q 369 133 322 149 q 499 118 417 118 q 659 151 599 118 q 757 265 719 183 q 819 501 794 347 m 601 1133 q 685 1221 685 1158 q 633 1261 685 1261 q 583 1253 608 1261 l 592 1310 q 661 1319 622 1319 q 761 1232 761 1319 q 590 1069 761 1117 l 601 1133 z "},"Ỡ":{"ha":961,"x_min":138,"x_max":1085,"o":"m 1085 1179 q 1022 1021 1069 1078 q 907 950 974 964 q 981 708 981 872 q 958 481 981 618 q 867 175 926 281 q 716 31 808 69 q 475 -8 624 -8 q 290 17 363 -8 q 177 110 217 42 q 138 301 138 178 q 160 531 138 406 q 249 838 190 729 q 401 989 307 946 q 643 1032 494 1032 q 756 1024 703 1032 l 854 1024 q 939 1060 906 1024 q 986 1179 972 1096 l 1085 1179 m 819 501 q 840 707 840 625 q 816 831 840 788 q 745 891 792 875 q 622 907 699 907 q 463 874 524 907 q 363 756 403 842 q 299 508 324 671 q 276 308 276 382 q 299 190 276 231 q 369 133 322 149 q 499 118 417 118 q 659 151 599 118 q 757 265 719 183 q 819 501 794 347 m 406 1118 q 465 1235 422 1199 q 567 1271 508 1271 q 622 1260 596 1271 q 682 1231 649 1250 q 733 1205 715 1213 q 771 1197 750 1197 q 827 1218 804 1197 q 857 1276 850 1239 l 926 1276 q 768 1119 893 1119 q 716 1129 740 1119 q 653 1160 692 1139 q 602 1185 621 1176 q 563 1193 583 1193 q 507 1174 531 1193 q 476 1118 483 1154 l 406 1118 z "},"Ő":{"ha":958,"x_min":138,"x_max":981,"o":"m 475 -8 q 290 17 363 -8 q 177 110 217 42 q 138 301 138 178 q 160 531 138 406 q 249 838 190 729 q 401 989 307 946 q 643 1032 494 1032 q 825 1005 751 1032 q 940 906 899 978 q 981 708 981 835 q 958 481 981 618 q 867 175 926 281 q 716 31 808 69 q 475 -8 624 -8 m 499 118 q 659 151 599 118 q 757 265 719 183 q 819 501 794 347 q 840 707 840 625 q 816 831 840 788 q 745 891 792 875 q 622 907 699 907 q 463 874 524 907 q 363 756 403 842 q 299 508 324 671 q 276 308 276 382 q 299 190 276 231 q 369 133 322 149 q 499 118 417 118 m 640 1290 l 750 1290 l 564 1099 l 482 1099 l 640 1290 m 856 1290 l 965 1290 l 778 1099 l 696 1099 l 856 1290 z "},"Ȏ":{"ha":958,"x_min":138,"x_max":981,"o":"m 475 -8 q 290 17 363 -8 q 177 110 217 42 q 138 301 138 178 q 160 531 138 406 q 249 838 190 729 q 401 989 307 946 q 643 1032 494 1032 q 825 1005 751 1032 q 940 906 899 978 q 981 708 981 835 q 958 481 981 618 q 867 175 926 281 q 716 31 808 69 q 475 -8 624 -8 m 499 118 q 659 151 599 118 q 757 265 719 183 q 819 501 794 347 q 840 707 840 625 q 816 831 840 788 q 745 891 792 875 q 622 907 699 907 q 463 874 524 907 q 363 756 403 842 q 299 508 324 671 q 276 308 276 382 q 299 190 276 231 q 369 133 322 149 q 499 118 417 118 m 471 1096 q 544 1248 486 1200 q 689 1296 603 1296 q 803 1260 761 1296 q 846 1147 846 1224 q 843 1096 846 1132 l 776 1096 q 779 1131 779 1121 q 751 1206 779 1182 q 679 1231 724 1231 q 588 1199 626 1231 q 538 1096 549 1167 l 471 1096 z "},"Ō":{"ha":958,"x_min":138,"x_max":981,"o":"m 475 -8 q 290 17 363 -8 q 177 110 217 42 q 138 301 138 178 q 160 531 138 406 q 249 838 190 729 q 401 989 307 946 q 643 1032 494 1032 q 825 1005 751 1032 q 940 906 899 978 q 981 708 981 835 q 958 481 981 618 q 867 175 926 281 q 716 31 808 69 q 475 -8 624 -8 m 499 118 q 659 151 599 118 q 757 265 719 183 q 819 501 794 347 q 840 707 840 625 q 816 831 840 788 q 745 891 792 875 q 622 907 699 907 q 463 874 524 907 q 363 756 403 842 q 299 508 324 671 q 276 308 276 382 q 299 190 276 231 q 369 133 322 149 q 499 118 417 118 m 486 1228 l 861 1228 l 847 1144 l 472 1144 l 486 1228 z "},"Ṓ":{"ha":958,"x_min":138,"x_max":981,"o":"m 475 -8 q 290 17 363 -8 q 177 110 217 42 q 138 301 138 178 q 160 531 138 406 q 249 838 190 729 q 401 989 307 946 q 643 1032 494 1032 q 825 1005 751 1032 q 940 906 899 978 q 981 708 981 835 q 958 481 981 618 q 867 175 926 281 q 716 31 808 69 q 475 -8 624 -8 m 499 118 q 659 151 599 118 q 757 265 719 183 q 819 501 794 347 q 840 707 840 625 q 816 831 840 788 q 745 891 792 875 q 622 907 699 907 q 463 874 524 907 q 363 756 403 842 q 299 508 324 671 q 276 308 276 382 q 299 190 276 231 q 369 133 322 149 q 499 118 417 118 m 486 1228 l 861 1228 l 847 1144 l 472 1144 l 486 1228 m 785 1482 l 907 1482 l 714 1290 l 626 1290 l 785 1482 z "},"Ṑ":{"ha":958,"x_min":138,"x_max":981,"o":"m 475 -8 q 290 17 363 -8 q 177 110 217 42 q 138 301 138 178 q 160 531 138 406 q 249 838 190 729 q 401 989 307 946 q 643 1032 494 1032 q 825 1005 751 1032 q 940 906 899 978 q 981 708 981 835 q 958 481 981 618 q 867 175 926 281 q 716 31 808 69 q 475 -8 624 -8 m 499 118 q 659 151 599 118 q 757 265 719 183 q 819 501 794 347 q 840 707 840 625 q 816 831 840 788 q 745 891 792 875 q 622 907 699 907 q 463 874 524 907 q 363 756 403 842 q 299 508 324 671 q 276 308 276 382 q 299 190 276 231 q 369 133 322 149 q 499 118 417 118 m 486 1228 l 861 1228 l 847 1144 l 472 1144 l 486 1228 m 497 1482 l 613 1482 l 718 1290 l 636 1290 l 497 1482 z "},"Ǫ":{"ha":958,"x_min":138,"x_max":981,"o":"m 643 1032 q 825 1005 751 1032 q 940 906 899 978 q 981 708 981 835 q 958 481 981 618 q 887 214 932 314 q 774 65 842 114 q 606 0 707 15 q 531 -59 557 -25 q 506 -121 506 -93 q 530 -172 506 -154 q 599 -190 554 -190 l 608 -190 l 597 -258 q 558 -261 578 -261 q 463 -233 496 -261 q 429 -158 429 -204 q 457 -75 429 -115 q 539 -7 485 -35 q 475 -8 519 -8 q 290 17 363 -8 q 177 110 217 42 q 138 301 138 178 q 160 531 138 406 q 249 838 190 729 q 401 989 307 946 q 643 1032 494 1032 m 819 501 q 840 707 840 625 q 816 831 840 788 q 745 891 792 875 q 622 907 699 907 q 463 874 524 907 q 363 756 403 842 q 299 508 324 671 q 276 308 276 382 q 299 190 276 231 q 369 133 322 149 q 499 118 417 118 q 659 151 599 118 q 757 265 719 183 q 819 501 794 347 z "},"Ø":{"ha":961,"x_min":72,"x_max":1050,"o":"m 943 900 q 981 708 981 825 q 958 481 981 618 q 867 175 926 281 q 716 31 808 69 q 475 -8 624 -8 q 318 8 382 -8 q 213 64 254 24 l 157 0 l 72 0 l 174 117 q 138 301 138 185 q 160 531 138 406 q 249 838 190 729 q 401 989 307 946 q 643 1032 494 1032 q 797 1015 732 1032 q 904 954 861 997 l 965 1024 l 1050 1024 l 943 900 m 276 308 q 282 240 276 267 l 808 844 q 739 894 783 881 q 622 907 694 907 q 463 874 524 907 q 363 756 403 842 q 299 508 324 671 q 276 308 276 382 m 840 707 q 835 776 840 750 l 310 175 q 379 131 333 143 q 499 118 425 118 q 659 151 599 118 q 757 265 719 183 q 819 501 794 347 q 840 707 840 625 z "},"Ǿ":{"ha":961,"x_min":72,"x_max":1050,"o":"m 943 900 q 981 708 981 825 q 958 481 981 618 q 867 175 926 281 q 716 31 808 69 q 475 -8 624 -8 q 318 8 382 -8 q 213 64 254 24 l 157 0 l 72 0 l 174 117 q 138 301 138 185 q 160 531 138 406 q 249 838 190 729 q 401 989 307 946 q 643 1032 494 1032 q 797 1015 732 1032 q 904 954 861 997 l 965 1024 l 1050 1024 l 943 900 m 276 308 q 282 240 276 267 l 808 844 q 739 894 783 881 q 622 907 694 907 q 463 874 524 907 q 363 756 403 842 q 299 508 324 671 q 276 308 276 382 m 840 707 q 835 776 840 750 l 310 175 q 379 131 333 143 q 499 118 425 118 q 659 151 599 118 q 757 265 719 183 q 819 501 794 347 q 840 707 840 625 m 743 1290 l 865 1290 l 672 1099 l 585 1099 l 743 1290 z "},"Õ":{"ha":958,"x_min":138,"x_max":981,"o":"m 475 -8 q 290 17 363 -8 q 177 110 217 42 q 138 301 138 178 q 160 531 138 406 q 249 838 190 729 q 401 989 307 946 q 643 1032 494 1032 q 825 1005 751 1032 q 940 906 899 978 q 981 708 981 835 q 958 481 981 618 q 867 175 926 281 q 716 31 808 69 q 475 -8 624 -8 m 499 118 q 659 151 599 118 q 757 265 719 183 q 819 501 794 347 q 840 707 840 625 q 816 831 840 788 q 745 891 792 875 q 622 907 699 907 q 463 874 524 907 q 363 756 403 842 q 299 508 324 671 q 276 308 276 382 q 299 190 276 231 q 369 133 322 149 q 499 118 417 118 m 426 1118 q 486 1235 443 1199 q 588 1271 529 1271 q 643 1260 617 1271 q 703 1231 669 1250 q 753 1205 736 1213 q 792 1197 771 1197 q 848 1218 825 1197 q 878 1276 871 1239 l 947 1276 q 789 1119 914 1119 q 737 1129 761 1119 q 674 1160 713 1139 q 623 1185 642 1176 q 583 1193 604 1193 q 528 1174 551 1193 q 497 1118 504 1154 l 426 1118 z "},"Ṍ":{"ha":958,"x_min":138,"x_max":981,"o":"m 475 -8 q 290 17 363 -8 q 177 110 217 42 q 138 301 138 178 q 160 531 138 406 q 249 838 190 729 q 401 989 307 946 q 643 1032 494 1032 q 825 1005 751 1032 q 940 906 899 978 q 981 708 981 835 q 958 481 981 618 q 867 175 926 281 q 716 31 808 69 q 475 -8 624 -8 m 499 118 q 659 151 599 118 q 757 265 719 183 q 819 501 794 347 q 840 707 840 625 q 816 831 840 788 q 745 891 792 875 q 622 907 699 907 q 463 874 524 907 q 363 756 403 842 q 299 508 324 671 q 276 308 276 382 q 299 190 276 231 q 369 133 322 149 q 499 118 417 118 m 426 1118 q 486 1235 443 1199 q 588 1271 529 1271 q 643 1260 617 1271 q 703 1231 669 1250 q 753 1205 736 1213 q 792 1197 771 1197 q 848 1218 825 1197 q 878 1276 871 1239 l 947 1276 q 789 1119 914 1119 q 737 1129 761 1119 q 674 1160 713 1139 q 623 1185 642 1176 q 583 1193 604 1193 q 528 1174 551 1193 q 497 1118 504 1154 l 426 1118 m 792 1519 l 914 1519 l 721 1328 l 633 1328 l 792 1519 z "},"Ṏ":{"ha":958,"x_min":138,"x_max":981,"o":"m 475 -8 q 290 17 363 -8 q 177 110 217 42 q 138 301 138 178 q 160 531 138 406 q 249 838 190 729 q 401 989 307 946 q 643 1032 494 1032 q 825 1005 751 1032 q 940 906 899 978 q 981 708 981 835 q 958 481 981 618 q 867 175 926 281 q 716 31 808 69 q 475 -8 624 -8 m 499 118 q 659 151 599 118 q 757 265 719 183 q 819 501 794 347 q 840 707 840 625 q 816 831 840 788 q 745 891 792 875 q 622 907 699 907 q 463 874 524 907 q 363 756 403 842 q 299 508 324 671 q 276 308 276 382 q 299 190 276 231 q 369 133 322 149 q 499 118 417 118 m 411 1118 q 471 1235 428 1199 q 572 1271 514 1271 q 628 1260 601 1271 q 688 1231 654 1250 q 738 1205 721 1213 q 776 1197 756 1197 q 833 1218 810 1197 q 863 1276 856 1239 l 932 1276 q 774 1119 899 1119 q 722 1129 746 1119 q 658 1160 697 1139 q 608 1185 626 1176 q 568 1193 589 1193 q 513 1174 536 1193 q 482 1118 489 1154 l 411 1118 m 511 1342 q 492 1363 492 1342 l 511 1482 q 539 1507 513 1507 l 603 1507 q 624 1488 624 1507 q 603 1365 624 1493 q 594 1348 601 1354 q 576 1342 588 1342 l 511 1342 m 793 1342 q 774 1363 774 1342 l 793 1482 q 821 1507 794 1507 l 885 1507 q 906 1488 906 1507 q 886 1365 906 1494 q 877 1348 885 1354 q 858 1342 869 1342 l 793 1342 z "},"Ȭ":{"ha":958,"x_min":138,"x_max":981,"o":"m 475 -8 q 290 17 363 -8 q 177 110 217 42 q 138 301 138 178 q 160 531 138 406 q 249 838 190 729 q 401 989 307 946 q 643 1032 494 1032 q 825 1005 751 1032 q 940 906 899 978 q 981 708 981 835 q 958 481 981 618 q 867 175 926 281 q 716 31 808 69 q 475 -8 624 -8 m 499 118 q 659 151 599 118 q 757 265 719 183 q 819 501 794 347 q 840 707 840 625 q 816 831 840 788 q 745 891 792 875 q 622 907 699 907 q 463 874 524 907 q 363 756 403 842 q 299 508 324 671 q 276 308 276 382 q 299 190 276 231 q 369 133 322 149 q 499 118 417 118 m 506 1433 l 881 1433 l 867 1350 l 492 1350 l 506 1433 m 411 1118 q 471 1235 428 1199 q 572 1271 514 1271 q 628 1260 601 1271 q 688 1231 654 1250 q 738 1205 721 1213 q 776 1197 756 1197 q 833 1218 810 1197 q 863 1276 856 1239 l 932 1276 q 774 1119 899 1119 q 722 1129 746 1119 q 658 1160 697 1139 q 608 1185 626 1176 q 568 1193 589 1193 q 513 1174 536 1193 q 482 1118 489 1154 l 411 1118 z "},"Œ":{"ha":1456,"x_min":138,"x_max":1535,"o":"m 1135 894 q 1047 867 1078 894 q 1006 776 1015 839 l 974 574 l 1401 563 l 1383 454 l 953 447 l 953 446 l 919 236 q 917 207 917 214 q 943 141 917 160 q 1022 122 969 122 l 1396 122 l 1378 7 l 1324 4 q 1183 -3 1297 3 q 961 -8 1069 -8 q 788 75 829 -8 q 657 10 733 29 q 475 -8 581 -8 q 290 17 363 -8 q 177 110 217 42 q 138 301 138 178 q 160 531 138 406 q 249 838 190 729 q 401 989 307 946 q 643 1032 494 1032 q 809 1010 740 1032 q 919 936 878 989 q 1111 1024 982 1024 q 1535 1010 1246 1024 l 1517 894 l 1135 894 m 499 118 q 659 151 599 118 q 757 265 719 183 q 819 501 794 347 q 840 707 840 625 q 816 831 840 788 q 745 891 792 875 q 622 907 699 907 q 463 874 524 907 q 363 756 403 842 q 299 508 324 671 q 276 308 276 382 q 299 190 276 231 q 369 133 322 149 q 499 118 417 118 z "},"P":{"ha":838,"x_min":96,"x_max":897,"o":"m 258 1024 l 653 1024 q 832 967 767 1024 q 897 776 897 911 q 886 675 897 739 q 772 431 860 503 q 568 358 685 358 q 294 378 442 358 l 235 0 l 96 0 l 258 1024 m 551 485 q 679 533 628 485 q 747 689 731 582 q 756 764 756 742 q 723 867 756 836 q 625 899 690 899 l 376 899 l 311 485 l 551 485 z "},"Ṗ":{"ha":838,"x_min":96,"x_max":897,"o":"m 258 1024 l 653 1024 q 832 967 767 1024 q 897 776 897 911 q 886 675 897 739 q 772 431 860 503 q 568 358 685 358 q 294 378 442 358 l 235 0 l 96 0 l 258 1024 m 551 485 q 679 533 628 485 q 747 689 731 582 q 756 764 756 742 q 723 867 756 836 q 625 899 690 899 l 376 899 l 311 485 l 551 485 m 531 1132 q 517 1138 522 1132 q 511 1153 511 1143 l 511 1156 l 531 1272 q 557 1297 532 1297 l 622 1297 q 642 1278 642 1297 l 642 1272 l 624 1156 q 615 1138 622 1144 q 596 1132 607 1132 l 531 1132 z "},"Þ":{"ha":772,"x_min":96,"x_max":806,"o":"m 546 836 q 806 600 806 836 q 794 499 806 581 q 682 281 771 346 q 475 217 593 217 q 374 222 428 217 q 308 229 319 228 l 271 233 l 235 0 l 96 0 l 258 1024 l 396 1024 l 367 836 l 546 836 m 656 513 q 663 588 663 557 q 626 682 663 653 q 519 711 590 711 l 347 711 l 289 343 l 460 343 q 588 383 536 343 q 656 513 640 424 z "},"Q":{"ha":958,"x_min":138,"x_max":981,"o":"m 475 -8 q 290 17 363 -8 q 177 110 217 42 q 138 301 138 178 q 160 531 138 406 q 249 838 190 729 q 401 989 307 946 q 643 1032 494 1032 q 825 1005 751 1032 q 940 906 899 978 q 981 708 981 835 q 958 481 981 618 q 867 175 926 281 q 716 31 808 69 q 475 -8 624 -8 m 499 118 q 659 151 599 118 q 757 265 719 183 q 819 501 794 347 q 840 707 840 625 q 816 831 840 788 q 745 891 792 875 q 622 907 699 907 q 463 874 524 907 q 363 756 403 842 q 299 508 324 671 q 276 308 276 382 q 299 190 276 231 q 369 133 322 149 q 499 118 417 118 m 681 -247 q 519 -199 581 -247 q 457 -51 458 -151 l 553 -51 q 592 -125 561 -103 q 681 -147 624 -147 q 785 -133 733 -147 l 768 -237 q 681 -247 731 -247 z "},"R":{"ha":864,"x_min":96,"x_max":893,"o":"m 258 1024 l 636 1024 q 823 968 753 1024 q 893 782 893 913 q 885 697 893 746 q 801 503 863 560 q 663 429 740 447 l 799 0 l 657 0 l 533 408 l 300 413 l 235 0 l 96 0 l 258 1024 m 553 521 q 681 560 633 521 q 744 707 728 600 q 749 764 749 739 q 608 899 749 899 l 376 899 l 318 521 l 553 521 z "},"Ŕ":{"ha":864,"x_min":96,"x_max":893,"o":"m 258 1024 l 636 1024 q 823 968 753 1024 q 893 782 893 913 q 885 697 893 746 q 801 503 863 560 q 663 429 740 447 l 799 0 l 657 0 l 533 408 l 300 413 l 235 0 l 96 0 l 258 1024 m 553 521 q 681 560 633 521 q 744 707 728 600 q 749 764 749 739 q 608 899 749 899 l 376 899 l 318 521 l 553 521 m 661 1290 l 783 1290 l 590 1099 l 503 1099 l 661 1290 z "},"Ř":{"ha":864,"x_min":96,"x_max":893,"o":"m 258 1024 l 636 1024 q 823 968 753 1024 q 893 782 893 913 q 885 697 893 746 q 801 503 863 560 q 663 429 740 447 l 799 0 l 657 0 l 533 408 l 300 413 l 235 0 l 96 0 l 258 1024 m 553 521 q 681 560 633 521 q 744 707 728 600 q 749 764 749 739 q 608 899 749 899 l 376 899 l 318 521 l 553 521 m 410 1289 l 493 1289 l 588 1164 l 735 1289 l 818 1289 l 625 1099 l 528 1099 l 410 1289 z "},"Ŗ":{"ha":864,"x_min":96,"x_max":893,"o":"m 258 1024 l 636 1024 q 823 968 753 1024 q 893 782 893 913 q 885 697 893 746 q 801 503 863 560 q 663 429 740 447 l 799 0 l 657 0 l 533 408 l 300 413 l 235 0 l 96 0 l 258 1024 m 553 521 q 681 560 633 521 q 744 707 728 600 q 749 764 749 739 q 608 899 749 899 l 376 899 l 318 521 l 553 521 m 243 -229 l 283 -222 q 339 -205 319 -215 q 372 -169 358 -194 q 392 -92 385 -143 l 478 -92 q 447 -206 467 -165 q 390 -267 426 -247 q 292 -286 353 -286 l 233 -286 l 243 -229 z "},"Ȑ":{"ha":864,"x_min":96,"x_max":893,"o":"m 258 1024 l 636 1024 q 823 968 753 1024 q 893 782 893 913 q 885 697 893 746 q 801 503 863 560 q 663 429 740 447 l 799 0 l 657 0 l 533 408 l 300 413 l 235 0 l 96 0 l 258 1024 m 553 521 q 681 560 633 521 q 744 707 728 600 q 749 764 749 739 q 608 899 749 899 l 376 899 l 318 521 l 553 521 m 278 1290 l 393 1290 l 499 1099 l 417 1099 l 278 1290 m 494 1290 l 610 1290 l 715 1099 l 633 1099 l 494 1290 z "},"Ṛ":{"ha":864,"x_min":96,"x_max":893,"o":"m 258 1024 l 636 1024 q 823 968 753 1024 q 893 782 893 913 q 885 697 893 746 q 801 503 863 560 q 663 429 740 447 l 799 0 l 657 0 l 533 408 l 300 413 l 235 0 l 96 0 l 258 1024 m 553 521 q 681 560 633 521 q 744 707 728 600 q 749 764 749 739 q 608 899 749 899 l 376 899 l 318 521 l 553 521 m 346 -299 q 332 -293 338 -299 q 326 -278 326 -287 l 326 -275 l 346 -158 q 372 -133 347 -133 l 438 -133 q 457 -153 457 -133 l 457 -158 l 439 -275 q 430 -292 438 -286 q 411 -299 422 -299 l 346 -299 z "},"Ȓ":{"ha":864,"x_min":96,"x_max":893,"o":"m 258 1024 l 636 1024 q 823 968 753 1024 q 893 782 893 913 q 885 697 893 746 q 801 503 863 560 q 663 429 740 447 l 799 0 l 657 0 l 533 408 l 300 413 l 235 0 l 96 0 l 258 1024 m 553 521 q 681 560 633 521 q 744 707 728 600 q 749 764 749 739 q 608 899 749 899 l 376 899 l 318 521 l 553 521 m 375 1096 q 449 1248 390 1200 q 593 1296 507 1296 q 708 1260 665 1296 q 750 1147 750 1224 q 747 1096 750 1132 l 681 1096 q 683 1131 683 1121 q 656 1206 683 1182 q 583 1231 628 1231 q 492 1199 531 1231 q 442 1096 453 1167 l 375 1096 z "},"Ṟ":{"ha":864,"x_min":96,"x_max":893,"o":"m 258 1024 l 636 1024 q 823 968 753 1024 q 893 782 893 913 q 885 697 893 746 q 801 503 863 560 q 663 429 740 447 l 799 0 l 657 0 l 533 408 l 300 413 l 235 0 l 96 0 l 258 1024 m 553 521 q 681 560 633 521 q 744 707 728 600 q 749 764 749 739 q 608 899 749 899 l 376 899 l 318 521 l 553 521 m 213 -189 l 588 -189 l 574 -272 l 199 -272 l 213 -189 z "},"S":{"ha":792,"x_min":96,"x_max":850,"o":"m 419 -8 q 242 -1 331 -8 q 96 19 153 7 l 113 128 q 421 117 239 117 q 579 146 525 117 q 644 256 633 175 l 654 313 q 657 350 657 340 q 625 423 657 400 q 521 446 593 446 l 410 446 q 245 495 303 446 q 188 636 188 544 q 192 692 188 663 l 206 778 q 312 975 228 918 q 544 1032 396 1032 q 697 1023 607 1032 q 850 1001 786 1014 l 833 893 q 531 904 682 904 q 395 874 442 904 q 336 764 349 844 l 328 707 q 324 668 324 686 q 352 599 324 619 q 442 578 381 578 l 556 578 q 733 526 672 578 q 793 382 793 475 q 789 326 793 358 l 775 232 q 669 47 754 101 q 419 -8 583 -8 z "},"Ś":{"ha":792,"x_min":96,"x_max":850,"o":"m 419 -8 q 242 -1 331 -8 q 96 19 153 7 l 113 128 q 421 117 239 117 q 579 146 525 117 q 644 256 633 175 l 654 313 q 657 350 657 340 q 625 423 657 400 q 521 446 593 446 l 410 446 q 245 495 303 446 q 188 636 188 544 q 192 692 188 663 l 206 778 q 312 975 228 918 q 544 1032 396 1032 q 697 1023 607 1032 q 850 1001 786 1014 l 833 893 q 531 904 682 904 q 395 874 442 904 q 336 764 349 844 l 328 707 q 324 668 324 686 q 352 599 324 619 q 442 578 381 578 l 556 578 q 733 526 672 578 q 793 382 793 475 q 789 326 793 358 l 775 232 q 669 47 754 101 q 419 -8 583 -8 m 667 1290 l 789 1290 l 596 1099 l 508 1099 l 667 1290 z "},"Ṥ":{"ha":792,"x_min":96,"x_max":850,"o":"m 419 -8 q 242 -1 331 -8 q 96 19 153 7 l 113 128 q 421 117 239 117 q 579 146 525 117 q 644 256 633 175 l 654 313 q 657 350 657 340 q 625 423 657 400 q 521 446 593 446 l 410 446 q 245 495 303 446 q 188 636 188 544 q 192 692 188 663 l 206 778 q 312 975 228 918 q 544 1032 396 1032 q 697 1023 607 1032 q 850 1001 786 1014 l 833 893 q 531 904 682 904 q 395 874 442 904 q 336 764 349 844 l 328 707 q 324 668 324 686 q 352 599 324 619 q 442 578 381 578 l 556 578 q 733 526 672 578 q 793 382 793 475 q 789 326 793 358 l 775 232 q 669 47 754 101 q 419 -8 583 -8 m 625 1290 l 747 1290 l 554 1099 l 467 1099 l 625 1290 m 610 1336 q 596 1342 601 1336 q 590 1357 590 1347 l 590 1360 l 610 1476 q 636 1501 611 1501 l 701 1501 q 721 1482 721 1501 l 721 1476 l 703 1360 q 694 1342 701 1349 q 675 1336 686 1336 l 610 1336 z "},"Š":{"ha":792,"x_min":96,"x_max":850,"o":"m 419 -8 q 242 -1 331 -8 q 96 19 153 7 l 113 128 q 421 117 239 117 q 579 146 525 117 q 644 256 633 175 l 654 313 q 657 350 657 340 q 625 423 657 400 q 521 446 593 446 l 410 446 q 245 495 303 446 q 188 636 188 544 q 192 692 188 663 l 206 778 q 312 975 228 918 q 544 1032 396 1032 q 697 1023 607 1032 q 850 1001 786 1014 l 833 893 q 531 904 682 904 q 395 874 442 904 q 336 764 349 844 l 328 707 q 324 668 324 686 q 352 599 324 619 q 442 578 381 578 l 556 578 q 733 526 672 578 q 793 382 793 475 q 789 326 793 358 l 775 232 q 669 47 754 101 q 419 -8 583 -8 m 415 1289 l 499 1289 l 593 1164 l 740 1289 l 824 1289 l 631 1099 l 533 1099 l 415 1289 z "},"Ṧ":{"ha":792,"x_min":96,"x_max":850,"o":"m 419 -8 q 242 -1 331 -8 q 96 19 153 7 l 113 128 q 421 117 239 117 q 579 146 525 117 q 644 256 633 175 l 654 313 q 657 350 657 340 q 625 423 657 400 q 521 446 593 446 l 410 446 q 245 495 303 446 q 188 636 188 544 q 192 692 188 663 l 206 778 q 312 975 228 918 q 544 1032 396 1032 q 697 1023 607 1032 q 850 1001 786 1014 l 833 893 q 531 904 682 904 q 395 874 442 904 q 336 764 349 844 l 328 707 q 324 668 324 686 q 352 599 324 619 q 442 578 381 578 l 556 578 q 733 526 672 578 q 793 382 793 475 q 789 326 793 358 l 775 232 q 669 47 754 101 q 419 -8 583 -8 m 415 1289 l 499 1289 l 593 1164 l 740 1289 l 824 1289 l 631 1099 l 533 1099 l 415 1289 m 582 1344 q 568 1350 574 1344 q 563 1365 563 1356 l 563 1368 l 582 1485 q 608 1510 583 1510 l 674 1510 q 693 1490 693 1510 l 693 1485 l 675 1368 q 666 1351 674 1357 q 647 1344 658 1344 l 582 1344 z "},"Ş":{"ha":792,"x_min":96,"x_max":850,"o":"m 328 707 q 324 668 324 686 q 352 599 324 619 q 442 578 381 578 l 556 578 q 733 526 672 578 q 793 382 793 475 q 789 326 793 358 l 775 232 q 669 47 754 101 q 419 -8 583 -8 l 414 -8 l 353 -82 q 439 -160 439 -89 q 398 -240 439 -204 q 283 -275 357 -275 l 232 -275 l 240 -218 l 271 -215 q 330 -189 308 -211 q 351 -146 351 -167 q 276 -99 351 -104 l 350 -7 q 96 19 203 -3 l 113 128 q 421 117 239 117 q 579 146 525 117 q 644 256 633 175 l 654 313 q 657 350 657 340 q 625 423 657 400 q 521 446 593 446 l 410 446 q 245 495 303 446 q 188 636 188 544 q 192 692 188 663 l 206 778 q 312 975 228 918 q 544 1032 396 1032 q 697 1023 607 1032 q 850 1001 786 1014 l 833 893 q 531 904 682 904 q 395 874 442 904 q 336 764 349 844 l 328 707 z "},"Ŝ":{"ha":792,"x_min":96,"x_max":850,"o":"m 419 -8 q 242 -1 331 -8 q 96 19 153 7 l 113 128 q 421 117 239 117 q 579 146 525 117 q 644 256 633 175 l 654 313 q 657 350 657 340 q 625 423 657 400 q 521 446 593 446 l 410 446 q 245 495 303 446 q 188 636 188 544 q 192 692 188 663 l 206 778 q 312 975 228 918 q 544 1032 396 1032 q 697 1023 607 1032 q 850 1001 786 1014 l 833 893 q 531 904 682 904 q 395 874 442 904 q 336 764 349 844 l 328 707 q 324 668 324 686 q 352 599 324 619 q 442 578 381 578 l 556 578 q 733 526 672 578 q 793 382 793 475 q 789 326 793 358 l 775 232 q 669 47 754 101 q 419 -8 583 -8 m 542 1289 l 638 1289 l 757 1099 l 674 1099 l 576 1225 l 431 1099 l 347 1099 l 542 1289 z "},"Ș":{"ha":792,"x_min":96,"x_max":850,"o":"m 419 -8 q 242 -1 331 -8 q 96 19 153 7 l 113 128 q 421 117 239 117 q 579 146 525 117 q 644 256 633 175 l 654 313 q 657 350 657 340 q 625 423 657 400 q 521 446 593 446 l 410 446 q 245 495 303 446 q 188 636 188 544 q 192 692 188 663 l 206 778 q 312 975 228 918 q 544 1032 396 1032 q 697 1023 607 1032 q 850 1001 786 1014 l 833 893 q 531 904 682 904 q 395 874 442 904 q 336 764 349 844 l 328 707 q 324 668 324 686 q 352 599 324 619 q 442 578 381 578 l 556 578 q 733 526 672 578 q 793 382 793 475 q 789 326 793 358 l 775 232 q 669 47 754 101 q 419 -8 583 -8 m 233 -229 l 274 -222 q 329 -205 310 -215 q 362 -169 349 -194 q 382 -92 375 -143 l 468 -92 q 437 -206 457 -165 q 380 -267 417 -247 q 282 -286 343 -286 l 224 -286 l 233 -229 z "},"Ṡ":{"ha":792,"x_min":96,"x_max":850,"o":"m 419 -8 q 242 -1 331 -8 q 96 19 153 7 l 113 128 q 421 117 239 117 q 579 146 525 117 q 644 256 633 175 l 654 313 q 657 350 657 340 q 625 423 657 400 q 521 446 593 446 l 410 446 q 245 495 303 446 q 188 636 188 544 q 192 692 188 663 l 206 778 q 312 975 228 918 q 544 1032 396 1032 q 697 1023 607 1032 q 850 1001 786 1014 l 833 893 q 531 904 682 904 q 395 874 442 904 q 336 764 349 844 l 328 707 q 324 668 324 686 q 352 599 324 619 q 442 578 381 578 l 556 578 q 733 526 672 578 q 793 382 793 475 q 789 326 793 358 l 775 232 q 669 47 754 101 q 419 -8 583 -8 m 535 1132 q 521 1138 526 1132 q 515 1153 515 1143 l 515 1156 l 535 1272 q 561 1297 536 1297 l 626 1297 q 646 1278 646 1297 l 646 1272 l 628 1156 q 619 1138 626 1144 q 600 1132 611 1132 l 535 1132 z "},"Ṣ":{"ha":792,"x_min":96,"x_max":850,"o":"m 419 -8 q 242 -1 331 -8 q 96 19 153 7 l 113 128 q 421 117 239 117 q 579 146 525 117 q 644 256 633 175 l 654 313 q 657 350 657 340 q 625 423 657 400 q 521 446 593 446 l 410 446 q 245 495 303 446 q 188 636 188 544 q 192 692 188 663 l 206 778 q 312 975 228 918 q 544 1032 396 1032 q 697 1023 607 1032 q 850 1001 786 1014 l 833 893 q 531 904 682 904 q 395 874 442 904 q 336 764 349 844 l 328 707 q 324 668 324 686 q 352 599 324 619 q 442 578 381 578 l 556 578 q 733 526 672 578 q 793 382 793 475 q 789 326 793 358 l 775 232 q 669 47 754 101 q 419 -8 583 -8 m 301 -299 q 288 -293 293 -299 q 282 -278 282 -287 l 282 -275 l 301 -158 q 328 -133 303 -133 l 393 -133 q 413 -153 413 -133 l 413 -158 l 394 -275 q 385 -292 393 -286 q 367 -299 378 -299 l 301 -299 z "},"Ṩ":{"ha":792,"x_min":96,"x_max":850,"o":"m 419 -8 q 242 -1 331 -8 q 96 19 153 7 l 113 128 q 421 117 239 117 q 579 146 525 117 q 644 256 633 175 l 654 313 q 657 350 657 340 q 625 423 657 400 q 521 446 593 446 l 410 446 q 245 495 303 446 q 188 636 188 544 q 192 692 188 663 l 206 778 q 312 975 228 918 q 544 1032 396 1032 q 697 1023 607 1032 q 850 1001 786 1014 l 833 893 q 531 904 682 904 q 395 874 442 904 q 336 764 349 844 l 328 707 q 324 668 324 686 q 352 599 324 619 q 442 578 381 578 l 556 578 q 733 526 672 578 q 793 382 793 475 q 789 326 793 358 l 775 232 q 669 47 754 101 q 419 -8 583 -8 m 301 -299 q 288 -293 293 -299 q 282 -278 282 -287 l 282 -275 l 301 -158 q 328 -133 303 -133 l 393 -133 q 413 -153 413 -133 l 413 -158 l 394 -275 q 385 -292 393 -286 q 367 -299 378 -299 l 301 -299 m 535 1132 q 521 1138 526 1132 q 515 1153 515 1143 l 515 1156 l 535 1272 q 561 1297 536 1297 l 626 1297 q 646 1278 646 1297 l 646 1272 l 628 1156 q 619 1138 626 1144 q 600 1132 611 1132 l 535 1132 z "},"ẞ":{"ha":954,"x_min":101,"x_max":974,"o":"m 744 653 l 642 556 l 704 556 q 874 509 814 556 q 935 371 935 463 q 918 242 935 344 q 801 46 893 100 q 561 -8 710 -8 q 454 -1 518 -8 q 356 14 390 6 l 375 135 q 461 122 408 128 q 563 117 514 117 q 710 147 656 117 q 778 256 765 176 q 786 306 782 289 q 790 344 790 342 q 760 417 790 393 q 664 442 731 442 l 490 442 l 507 556 l 622 556 l 719 807 l 807 899 l 497 899 q 408 870 442 899 q 365 786 375 842 l 242 0 l 101 0 l 225 785 q 321 966 244 908 q 508 1024 397 1024 q 871 1015 649 1024 q 974 1013 907 1015 l 960 992 l 972 999 l 744 653 z "},"Ə":{"ha":854,"x_min":133,"x_max":879,"o":"m 418 -8 q 205 63 276 -8 q 133 292 133 135 q 147 460 133 368 l 164 556 l 726 556 q 740 704 740 656 q 713 828 740 783 q 631 890 686 872 q 482 907 575 907 q 324 899 382 907 q 258 890 265 892 l 275 997 q 542 1032 396 1032 q 728 1006 654 1032 q 840 911 801 979 q 879 722 879 843 q 861 514 879 631 q 766 196 828 311 q 619 36 704 81 q 418 -8 533 -8 m 435 117 q 556 145 506 117 q 642 245 606 174 q 706 443 679 317 l 286 443 q 272 300 272 349 q 310 160 272 204 q 435 117 347 117 z "},"T":{"ha":843,"x_min":178,"x_max":956,"o":"m 486 899 l 178 899 l 197 1024 l 956 1024 l 935 899 l 626 899 l 485 0 l 344 0 l 486 899 z "},"Ŧ":{"ha":835,"x_min":169,"x_max":956,"o":"m 626 899 l 575 575 l 828 575 l 817 499 l 564 499 l 485 0 l 344 0 l 424 499 l 169 499 l 182 575 l 435 575 l 486 899 l 178 899 l 197 1024 l 956 1024 l 935 899 l 626 899 z "},"Ť":{"ha":843,"x_min":178,"x_max":956,"o":"m 486 899 l 178 899 l 197 1024 l 956 1024 l 935 899 l 626 899 l 485 0 l 344 0 l 486 899 m 433 1289 l 517 1289 l 611 1164 l 758 1289 l 842 1289 l 649 1099 l 551 1099 l 433 1289 z "},"Ţ":{"ha":843,"x_min":178,"x_max":956,"o":"m 956 1024 l 935 899 l 626 899 l 485 0 l 439 0 l 371 -82 q 457 -160 457 -89 q 416 -240 457 -204 q 301 -275 375 -275 l 250 -275 l 258 -218 l 289 -215 q 348 -189 326 -211 q 369 -146 369 -167 q 294 -99 369 -104 l 374 0 l 344 0 l 486 899 l 178 899 l 197 1024 l 956 1024 z "},"Ț":{"ha":843,"x_min":178,"x_max":956,"o":"m 486 899 l 178 899 l 197 1024 l 956 1024 l 935 899 l 626 899 l 485 0 l 344 0 l 486 899 m 251 -229 l 292 -222 q 347 -205 328 -215 q 380 -169 367 -194 q 400 -92 393 -143 l 486 -92 q 455 -206 475 -165 q 398 -267 435 -247 q 300 -286 361 -286 l 242 -286 l 251 -229 z "},"Ṫ":{"ha":843,"x_min":178,"x_max":956,"o":"m 486 899 l 178 899 l 197 1024 l 956 1024 l 935 899 l 626 899 l 485 0 l 344 0 l 486 899 m 553 1132 q 539 1138 544 1132 q 533 1153 533 1143 l 533 1156 l 553 1272 q 579 1297 554 1297 l 644 1297 q 664 1278 664 1297 l 664 1272 l 646 1156 q 637 1138 644 1144 q 618 1132 629 1132 l 553 1132 z "},"Ṭ":{"ha":843,"x_min":178,"x_max":956,"o":"m 486 899 l 178 899 l 197 1024 l 956 1024 l 935 899 l 626 899 l 485 0 l 344 0 l 486 899 m 319 -299 q 306 -293 311 -299 q 300 -278 300 -287 l 300 -275 l 319 -158 q 346 -133 321 -133 l 411 -133 q 431 -153 431 -133 l 431 -158 l 413 -275 q 403 -292 411 -286 q 385 -299 396 -299 l 319 -299 z "},"Ṯ":{"ha":843,"x_min":178,"x_max":956,"o":"m 486 899 l 178 899 l 197 1024 l 956 1024 l 935 899 l 626 899 l 485 0 l 344 0 l 486 899 m 201 -189 l 576 -189 l 563 -272 l 188 -272 l 201 -189 z "},"U":{"ha":944,"x_min":151,"x_max":1011,"o":"m 474 -8 q 231 60 311 -8 q 151 285 151 129 q 169 464 151 358 l 258 1024 l 397 1024 l 306 444 q 290 294 290 343 q 338 158 290 200 q 489 117 386 117 q 629 142 575 117 q 721 238 683 167 q 781 444 758 308 l 872 1024 l 1011 1024 l 917 426 q 830 151 888 246 q 688 24 772 57 q 474 -8 604 -8 z "},"Ú":{"ha":944,"x_min":151,"x_max":1011,"o":"m 474 -8 q 231 60 311 -8 q 151 285 151 129 q 169 464 151 358 l 258 1024 l 397 1024 l 306 444 q 290 294 290 343 q 338 158 290 200 q 489 117 386 117 q 629 142 575 117 q 721 238 683 167 q 781 444 758 308 l 872 1024 l 1011 1024 l 917 426 q 830 151 888 246 q 688 24 772 57 q 474 -8 604 -8 m 733 1290 l 856 1290 l 663 1099 l 575 1099 l 733 1290 z "},"Ŭ":{"ha":944,"x_min":151,"x_max":1011,"o":"m 474 -8 q 231 60 311 -8 q 151 285 151 129 q 169 464 151 358 l 258 1024 l 397 1024 l 306 444 q 290 294 290 343 q 338 158 290 200 q 489 117 386 117 q 629 142 575 117 q 721 238 683 167 q 781 444 758 308 l 872 1024 l 1011 1024 l 917 426 q 830 151 888 246 q 688 24 772 57 q 474 -8 604 -8 m 626 1093 q 512 1129 554 1093 q 469 1242 469 1165 q 472 1294 469 1256 l 539 1294 q 536 1258 536 1267 q 564 1183 536 1207 q 635 1158 592 1158 q 728 1191 689 1158 q 778 1294 767 1224 l 844 1294 q 771 1141 829 1189 q 626 1093 713 1093 z "},"Û":{"ha":944,"x_min":151,"x_max":1011,"o":"m 474 -8 q 231 60 311 -8 q 151 285 151 129 q 169 464 151 358 l 258 1024 l 397 1024 l 306 444 q 290 294 290 343 q 338 158 290 200 q 489 117 386 117 q 629 142 575 117 q 721 238 683 167 q 781 444 758 308 l 872 1024 l 1011 1024 l 917 426 q 830 151 888 246 q 688 24 772 57 q 474 -8 604 -8 m 608 1289 l 704 1289 l 824 1099 l 740 1099 l 643 1225 l 497 1099 l 414 1099 l 608 1289 z "},"Ȕ":{"ha":944,"x_min":151,"x_max":1011,"o":"m 474 -8 q 231 60 311 -8 q 151 285 151 129 q 169 464 151 358 l 258 1024 l 397 1024 l 306 444 q 290 294 290 343 q 338 158 290 200 q 489 117 386 117 q 629 142 575 117 q 721 238 683 167 q 781 444 758 308 l 872 1024 l 1011 1024 l 917 426 q 830 151 888 246 q 688 24 772 57 q 474 -8 604 -8 m 350 1290 l 465 1290 l 571 1099 l 489 1099 l 350 1290 m 567 1290 l 682 1290 l 788 1099 l 706 1099 l 567 1290 z "},"Ü":{"ha":944,"x_min":151,"x_max":1011,"o":"m 474 -8 q 231 60 311 -8 q 151 285 151 129 q 169 464 151 358 l 258 1024 l 397 1024 l 306 444 q 290 294 290 343 q 338 158 290 200 q 489 117 386 117 q 629 142 575 117 q 721 238 683 167 q 781 444 758 308 l 872 1024 l 1011 1024 l 917 426 q 830 151 888 246 q 688 24 772 57 q 474 -8 604 -8 m 444 1122 q 425 1143 425 1122 l 444 1263 q 472 1288 446 1288 l 536 1288 q 557 1268 557 1288 q 536 1146 557 1274 q 528 1128 535 1135 q 510 1122 521 1122 l 444 1122 m 726 1122 q 707 1143 707 1122 l 726 1263 q 754 1288 728 1288 l 818 1288 q 839 1268 839 1288 q 819 1146 839 1275 q 810 1128 818 1135 q 792 1122 803 1122 l 726 1122 z "},"Ụ":{"ha":944,"x_min":151,"x_max":1011,"o":"m 474 -8 q 231 60 311 -8 q 151 285 151 129 q 169 464 151 358 l 258 1024 l 397 1024 l 306 444 q 290 294 290 343 q 338 158 290 200 q 489 117 386 117 q 629 142 575 117 q 721 238 683 167 q 781 444 758 308 l 872 1024 l 1011 1024 l 917 426 q 830 151 888 246 q 688 24 772 57 q 474 -8 604 -8 m 368 -299 q 354 -293 360 -299 q 349 -278 349 -287 l 349 -275 l 368 -158 q 394 -133 369 -133 l 460 -133 q 479 -153 479 -133 l 479 -158 l 461 -275 q 452 -292 460 -286 q 433 -299 444 -299 l 368 -299 z "},"Ù":{"ha":944,"x_min":151,"x_max":1011,"o":"m 474 -8 q 231 60 311 -8 q 151 285 151 129 q 169 464 151 358 l 258 1024 l 397 1024 l 306 444 q 290 294 290 343 q 338 158 290 200 q 489 117 386 117 q 629 142 575 117 q 721 238 683 167 q 781 444 758 308 l 872 1024 l 1011 1024 l 917 426 q 830 151 888 246 q 688 24 772 57 q 474 -8 604 -8 m 481 1290 l 596 1290 l 701 1099 l 619 1099 l 481 1290 z "},"Ủ":{"ha":944,"x_min":151,"x_max":1011,"o":"m 474 -8 q 231 60 311 -8 q 151 285 151 129 q 169 464 151 358 l 258 1024 l 397 1024 l 306 444 q 290 294 290 343 q 338 158 290 200 q 489 117 386 117 q 629 142 575 117 q 721 238 683 167 q 781 444 758 308 l 872 1024 l 1011 1024 l 917 426 q 830 151 888 246 q 688 24 772 57 q 474 -8 604 -8 m 599 1133 q 682 1221 682 1158 q 631 1261 682 1261 q 581 1253 606 1261 l 589 1310 q 658 1319 619 1319 q 758 1232 758 1319 q 588 1069 758 1117 l 599 1133 z "},"Ư":{"ha":942,"x_min":151,"x_max":1165,"o":"m 1165 1179 q 1106 1027 1150 1083 q 1000 953 1063 971 l 917 426 q 830 151 888 246 q 688 24 772 57 q 474 -8 604 -8 q 231 60 311 -8 q 151 285 151 129 q 169 464 151 358 l 258 1024 l 397 1024 l 306 444 q 290 294 290 343 q 338 158 290 200 q 489 117 386 117 q 629 142 575 117 q 721 238 683 167 q 781 444 758 308 l 872 1024 l 935 1024 q 1019 1060 986 1024 q 1065 1179 1051 1096 l 1165 1179 z "},"Ứ":{"ha":942,"x_min":151,"x_max":1165,"o":"m 1165 1179 q 1106 1027 1150 1083 q 1000 953 1063 971 l 917 426 q 830 151 888 246 q 688 24 772 57 q 474 -8 604 -8 q 231 60 311 -8 q 151 285 151 129 q 169 464 151 358 l 258 1024 l 397 1024 l 306 444 q 290 294 290 343 q 338 158 290 200 q 489 117 386 117 q 629 142 575 117 q 721 238 683 167 q 781 444 758 308 l 872 1024 l 935 1024 q 1019 1060 986 1024 q 1065 1179 1051 1096 l 1165 1179 m 728 1290 l 850 1290 l 657 1099 l 569 1099 l 728 1290 z "},"Ự":{"ha":942,"x_min":151,"x_max":1165,"o":"m 1165 1179 q 1106 1027 1150 1083 q 1000 953 1063 971 l 917 426 q 830 151 888 246 q 688 24 772 57 q 474 -8 604 -8 q 231 60 311 -8 q 151 285 151 129 q 169 464 151 358 l 258 1024 l 397 1024 l 306 444 q 290 294 290 343 q 338 158 290 200 q 489 117 386 117 q 629 142 575 117 q 721 238 683 167 q 781 444 758 308 l 872 1024 l 935 1024 q 1019 1060 986 1024 q 1065 1179 1051 1096 l 1165 1179 m 390 -299 q 376 -293 382 -299 q 371 -278 371 -287 l 371 -275 l 390 -158 q 417 -133 392 -133 l 482 -133 q 501 -153 501 -133 l 501 -158 l 483 -275 q 474 -292 482 -286 q 456 -299 467 -299 l 390 -299 z "},"Ừ":{"ha":942,"x_min":151,"x_max":1165,"o":"m 1165 1179 q 1106 1027 1150 1083 q 1000 953 1063 971 l 917 426 q 830 151 888 246 q 688 24 772 57 q 474 -8 604 -8 q 231 60 311 -8 q 151 285 151 129 q 169 464 151 358 l 258 1024 l 397 1024 l 306 444 q 290 294 290 343 q 338 158 290 200 q 489 117 386 117 q 629 142 575 117 q 721 238 683 167 q 781 444 758 308 l 872 1024 l 935 1024 q 1019 1060 986 1024 q 1065 1179 1051 1096 l 1165 1179 m 475 1290 l 590 1290 l 696 1099 l 614 1099 l 475 1290 z "},"Ử":{"ha":942,"x_min":151,"x_max":1165,"o":"m 1165 1179 q 1106 1027 1150 1083 q 1000 953 1063 971 l 917 426 q 830 151 888 246 q 688 24 772 57 q 474 -8 604 -8 q 231 60 311 -8 q 151 285 151 129 q 169 464 151 358 l 258 1024 l 397 1024 l 306 444 q 290 294 290 343 q 338 158 290 200 q 489 117 386 117 q 629 142 575 117 q 721 238 683 167 q 781 444 758 308 l 872 1024 l 935 1024 q 1019 1060 986 1024 q 1065 1179 1051 1096 l 1165 1179 m 593 1133 q 676 1221 676 1158 q 625 1261 676 1261 q 575 1253 600 1261 l 583 1310 q 653 1319 614 1319 q 753 1232 753 1319 q 582 1069 753 1117 l 593 1133 z "},"Ữ":{"ha":942,"x_min":151,"x_max":1165,"o":"m 1165 1179 q 1106 1027 1150 1083 q 1000 953 1063 971 l 917 426 q 830 151 888 246 q 688 24 772 57 q 474 -8 604 -8 q 231 60 311 -8 q 151 285 151 129 q 169 464 151 358 l 258 1024 l 397 1024 l 306 444 q 290 294 290 343 q 338 158 290 200 q 489 117 386 117 q 629 142 575 117 q 721 238 683 167 q 781 444 758 308 l 872 1024 l 935 1024 q 1019 1060 986 1024 q 1065 1179 1051 1096 l 1165 1179 m 397 1118 q 457 1235 414 1199 q 558 1271 500 1271 q 614 1260 588 1271 q 674 1231 640 1250 q 724 1205 707 1213 q 763 1197 742 1197 q 819 1218 796 1197 q 849 1276 842 1239 l 918 1276 q 760 1119 885 1119 q 708 1129 732 1119 q 644 1160 683 1139 q 594 1185 613 1176 q 554 1193 575 1193 q 499 1174 522 1193 q 468 1118 475 1154 l 397 1118 z "},"Ű":{"ha":944,"x_min":151,"x_max":1011,"o":"m 474 -8 q 231 60 311 -8 q 151 285 151 129 q 169 464 151 358 l 258 1024 l 397 1024 l 306 444 q 290 294 290 343 q 338 158 290 200 q 489 117 386 117 q 629 142 575 117 q 721 238 683 167 q 781 444 758 308 l 872 1024 l 1011 1024 l 917 426 q 830 151 888 246 q 688 24 772 57 q 474 -8 604 -8 m 617 1290 l 726 1290 l 540 1099 l 458 1099 l 617 1290 m 832 1290 l 942 1290 l 754 1099 l 672 1099 l 832 1290 z "},"Ȗ":{"ha":944,"x_min":151,"x_max":1011,"o":"m 474 -8 q 231 60 311 -8 q 151 285 151 129 q 169 464 151 358 l 258 1024 l 397 1024 l 306 444 q 290 294 290 343 q 338 158 290 200 q 489 117 386 117 q 629 142 575 117 q 721 238 683 167 q 781 444 758 308 l 872 1024 l 1011 1024 l 917 426 q 830 151 888 246 q 688 24 772 57 q 474 -8 604 -8 m 447 1096 q 521 1248 463 1200 q 665 1296 579 1296 q 780 1260 738 1296 q 822 1147 822 1224 q 819 1096 822 1132 l 753 1096 q 756 1131 756 1121 q 728 1206 756 1182 q 656 1231 700 1231 q 564 1199 603 1231 q 514 1096 525 1167 l 447 1096 z "},"Ū":{"ha":944,"x_min":151,"x_max":1011,"o":"m 474 -8 q 231 60 311 -8 q 151 285 151 129 q 169 464 151 358 l 258 1024 l 397 1024 l 306 444 q 290 294 290 343 q 338 158 290 200 q 489 117 386 117 q 629 142 575 117 q 721 238 683 167 q 781 444 758 308 l 872 1024 l 1011 1024 l 917 426 q 830 151 888 246 q 688 24 772 57 q 474 -8 604 -8 m 463 1228 l 838 1228 l 824 1144 l 449 1144 l 463 1228 z "},"Ṻ":{"ha":944,"x_min":151,"x_max":1011,"o":"m 474 -8 q 231 60 311 -8 q 151 285 151 129 q 169 464 151 358 l 258 1024 l 397 1024 l 306 444 q 290 294 290 343 q 338 158 290 200 q 489 117 386 117 q 629 142 575 117 q 721 238 683 167 q 781 444 758 308 l 872 1024 l 1011 1024 l 917 426 q 830 151 888 246 q 688 24 772 57 q 474 -8 604 -8 m 463 1228 l 838 1228 l 824 1144 l 449 1144 l 463 1228 m 489 1322 q 469 1343 469 1322 l 489 1463 q 517 1488 490 1488 l 581 1488 q 601 1468 601 1488 q 581 1346 601 1474 q 572 1328 579 1335 q 554 1322 565 1322 l 489 1322 m 771 1322 q 751 1343 751 1322 l 771 1463 q 799 1488 772 1488 l 863 1488 q 883 1468 883 1488 q 864 1346 883 1475 q 855 1328 863 1335 q 836 1322 847 1322 l 771 1322 z "},"Ų":{"ha":944,"x_min":151,"x_max":1011,"o":"m 1011 1024 l 917 426 q 850 189 893 278 q 745 57 807 100 q 597 0 683 14 q 523 -59 549 -25 q 497 -121 497 -93 q 522 -172 497 -154 q 590 -190 546 -190 l 600 -190 l 589 -258 q 550 -261 569 -261 q 454 -233 488 -261 q 421 -158 421 -204 q 449 -75 421 -115 q 531 -7 476 -35 q 474 -8 513 -8 q 231 60 311 -8 q 151 285 151 129 q 169 464 151 358 l 258 1024 l 397 1024 l 306 444 q 290 294 290 343 q 338 158 290 200 q 489 117 386 117 q 629 142 575 117 q 721 238 683 167 q 781 444 758 308 l 872 1024 l 1011 1024 z "},"Ů":{"ha":944,"x_min":151,"x_max":1011,"o":"m 474 -8 q 231 60 311 -8 q 151 285 151 129 q 169 464 151 358 l 258 1024 l 397 1024 l 306 444 q 290 294 290 343 q 338 158 290 200 q 489 117 386 117 q 629 142 575 117 q 721 238 683 167 q 781 444 758 308 l 872 1024 l 1011 1024 l 917 426 q 830 151 888 246 q 688 24 772 57 q 474 -8 604 -8 m 633 1071 q 490 1199 490 1071 q 540 1324 490 1274 q 675 1375 589 1375 q 815 1247 815 1375 q 767 1121 815 1171 q 633 1071 719 1071 m 639 1126 q 719 1160 692 1126 q 747 1244 747 1193 q 726 1302 747 1285 q 669 1319 704 1319 q 585 1285 614 1319 q 557 1200 557 1251 q 580 1144 557 1161 q 639 1126 603 1126 z "},"Ũ":{"ha":944,"x_min":151,"x_max":1011,"o":"m 474 -8 q 231 60 311 -8 q 151 285 151 129 q 169 464 151 358 l 258 1024 l 397 1024 l 306 444 q 290 294 290 343 q 338 158 290 200 q 489 117 386 117 q 629 142 575 117 q 721 238 683 167 q 781 444 758 308 l 872 1024 l 1011 1024 l 917 426 q 830 151 888 246 q 688 24 772 57 q 474 -8 604 -8 m 403 1118 q 463 1235 419 1199 q 564 1271 506 1271 q 619 1260 593 1271 q 679 1231 646 1250 q 730 1205 713 1213 q 768 1197 747 1197 q 824 1218 801 1197 q 854 1276 847 1239 l 924 1276 q 765 1119 890 1119 q 713 1129 738 1119 q 650 1160 689 1139 q 599 1185 618 1176 q 560 1193 581 1193 q 504 1174 528 1193 q 474 1118 481 1154 l 403 1118 z "},"Ṹ":{"ha":944,"x_min":151,"x_max":1011,"o":"m 474 -8 q 231 60 311 -8 q 151 285 151 129 q 169 464 151 358 l 258 1024 l 397 1024 l 306 444 q 290 294 290 343 q 338 158 290 200 q 489 117 386 117 q 629 142 575 117 q 721 238 683 167 q 781 444 758 308 l 872 1024 l 1011 1024 l 917 426 q 830 151 888 246 q 688 24 772 57 q 474 -8 604 -8 m 403 1118 q 463 1235 419 1199 q 564 1271 506 1271 q 619 1260 593 1271 q 679 1231 646 1250 q 730 1205 713 1213 q 768 1197 747 1197 q 824 1218 801 1197 q 854 1276 847 1239 l 924 1276 q 765 1119 890 1119 q 713 1129 738 1119 q 650 1160 689 1139 q 599 1185 618 1176 q 560 1193 581 1193 q 504 1174 528 1193 q 474 1118 481 1154 l 403 1118 m 775 1525 l 897 1525 l 704 1333 l 617 1333 l 775 1525 z "},"V":{"ha":949,"x_min":206,"x_max":1067,"o":"m 206 1024 l 350 1024 l 493 151 l 924 1024 l 1067 1024 l 558 0 l 381 0 l 206 1024 z "},"W":{"ha":1406,"x_min":206,"x_max":1499,"o":"m 206 1024 l 351 1024 l 449 201 l 785 1024 l 919 1024 l 986 201 l 1354 1024 l 1499 1024 l 1044 0 l 897 0 l 821 819 l 475 0 l 328 0 l 206 1024 z "},"Ẃ":{"ha":1406,"x_min":206,"x_max":1499,"o":"m 206 1024 l 351 1024 l 449 201 l 785 1024 l 919 1024 l 986 201 l 1354 1024 l 1499 1024 l 1044 0 l 897 0 l 821 819 l 475 0 l 328 0 l 206 1024 m 975 1290 l 1097 1290 l 904 1099 l 817 1099 l 975 1290 z "},"Ŵ":{"ha":1406,"x_min":206,"x_max":1499,"o":"m 206 1024 l 351 1024 l 449 201 l 785 1024 l 919 1024 l 986 201 l 1354 1024 l 1499 1024 l 1044 0 l 897 0 l 821 819 l 475 0 l 328 0 l 206 1024 m 850 1289 l 946 1289 l 1065 1099 l 982 1099 l 885 1225 l 739 1099 l 656 1099 l 850 1289 z "},"Ẅ":{"ha":1406,"x_min":206,"x_max":1499,"o":"m 206 1024 l 351 1024 l 449 201 l 785 1024 l 919 1024 l 986 201 l 1354 1024 l 1499 1024 l 1044 0 l 897 0 l 821 819 l 475 0 l 328 0 l 206 1024 m 686 1122 q 667 1143 667 1122 l 686 1263 q 714 1288 688 1288 l 778 1288 q 799 1268 799 1288 q 778 1146 799 1274 q 769 1128 776 1135 q 751 1122 763 1122 l 686 1122 m 968 1122 q 949 1143 949 1122 l 968 1263 q 996 1288 969 1288 l 1060 1288 q 1081 1268 1081 1288 q 1061 1146 1081 1275 q 1052 1128 1060 1135 q 1033 1122 1044 1122 l 968 1122 z "},"Ẁ":{"ha":1406,"x_min":206,"x_max":1499,"o":"m 206 1024 l 351 1024 l 449 201 l 785 1024 l 919 1024 l 986 201 l 1354 1024 l 1499 1024 l 1044 0 l 897 0 l 821 819 l 475 0 l 328 0 l 206 1024 m 722 1290 l 838 1290 l 943 1099 l 861 1099 l 722 1290 z "},"X":{"ha":872,"x_min":42,"x_max":1004,"o":"m 596 500 l 835 0 l 682 0 l 497 397 l 199 0 l 42 0 l 440 518 l 199 1024 l 353 1024 l 540 619 l 846 1024 l 1004 1024 l 596 500 z "},"Y":{"ha":864,"x_min":192,"x_max":996,"o":"m 401 324 l 192 1024 l 344 1024 l 494 478 l 838 1024 l 996 1024 l 542 324 l 490 0 l 350 0 l 401 324 z "},"Ý":{"ha":864,"x_min":192,"x_max":996,"o":"m 401 324 l 192 1024 l 344 1024 l 494 478 l 838 1024 l 996 1024 l 542 324 l 490 0 l 350 0 l 401 324 m 694 1290 l 817 1290 l 624 1099 l 536 1099 l 694 1290 z "},"Ŷ":{"ha":864,"x_min":192,"x_max":996,"o":"m 401 324 l 192 1024 l 344 1024 l 494 478 l 838 1024 l 996 1024 l 542 324 l 490 0 l 350 0 l 401 324 m 569 1289 l 665 1289 l 785 1099 l 701 1099 l 604 1225 l 458 1099 l 375 1099 l 569 1289 z "},"Ÿ":{"ha":864,"x_min":192,"x_max":996,"o":"m 401 324 l 192 1024 l 344 1024 l 494 478 l 838 1024 l 996 1024 l 542 324 l 490 0 l 350 0 l 401 324 m 406 1122 q 386 1143 386 1122 l 406 1263 q 433 1288 407 1288 l 497 1288 q 518 1268 518 1288 q 497 1146 518 1274 q 489 1128 496 1135 q 471 1122 482 1122 l 406 1122 m 688 1122 q 668 1143 668 1122 l 688 1263 q 715 1288 689 1288 l 779 1288 q 800 1268 800 1288 q 781 1146 800 1275 q 772 1128 779 1135 q 753 1122 764 1122 l 688 1122 z "},"Ẏ":{"ha":864,"x_min":192,"x_max":996,"o":"m 401 324 l 192 1024 l 344 1024 l 494 478 l 838 1024 l 996 1024 l 542 324 l 490 0 l 350 0 l 401 324 m 329 -299 q 315 -293 321 -299 q 310 -278 310 -287 l 310 -275 l 329 -158 q 356 -133 331 -133 l 421 -133 q 440 -153 440 -133 l 440 -158 l 422 -275 q 413 -292 421 -286 q 394 -299 406 -299 l 329 -299 z "},"Ỵ":{"ha":864,"x_min":192,"x_max":996,"o":"m 401 324 l 192 1024 l 344 1024 l 494 478 l 838 1024 l 996 1024 l 542 324 l 490 0 l 350 0 l 401 324 m 329 -299 q 315 -293 321 -299 q 310 -278 310 -287 l 310 -275 l 329 -158 q 356 -133 331 -133 l 421 -133 q 440 -153 440 -133 l 440 -158 l 422 -275 q 413 -292 421 -286 q 394 -299 406 -299 l 329 -299 z "},"Ỳ":{"ha":864,"x_min":192,"x_max":996,"o":"m 401 324 l 192 1024 l 344 1024 l 494 478 l 838 1024 l 996 1024 l 542 324 l 490 0 l 350 0 l 401 324 m 442 1290 l 557 1290 l 663 1099 l 581 1099 l 442 1290 z "},"Ỷ":{"ha":864,"x_min":192,"x_max":996,"o":"m 401 324 l 192 1024 l 344 1024 l 494 478 l 838 1024 l 996 1024 l 542 324 l 490 0 l 350 0 l 401 324 m 560 1133 q 643 1221 643 1158 q 592 1261 643 1261 q 542 1253 567 1261 l 550 1310 q 619 1319 581 1319 q 719 1232 719 1319 q 549 1069 719 1117 l 560 1133 z "},"Ȳ":{"ha":864,"x_min":192,"x_max":996,"o":"m 401 324 l 192 1024 l 344 1024 l 494 478 l 838 1024 l 996 1024 l 542 324 l 490 0 l 350 0 l 401 324 m 424 1228 l 799 1228 l 785 1144 l 410 1144 l 424 1228 z "},"Ỹ":{"ha":864,"x_min":192,"x_max":996,"o":"m 401 324 l 192 1024 l 344 1024 l 494 478 l 838 1024 l 996 1024 l 542 324 l 490 0 l 350 0 l 401 324 m 364 1118 q 424 1235 381 1199 q 525 1271 467 1271 q 581 1260 554 1271 q 640 1231 607 1250 q 691 1205 674 1213 q 729 1197 708 1197 q 785 1218 763 1197 q 815 1276 808 1239 l 885 1276 q 726 1119 851 1119 q 674 1129 699 1119 q 611 1160 650 1139 q 560 1185 579 1176 q 521 1193 542 1193 q 465 1174 489 1193 q 435 1118 442 1154 l 364 1118 z "},"Z":{"ha":781,"x_min":53,"x_max":876,"o":"m 72 119 l 696 899 l 194 899 l 215 1024 l 876 1024 l 857 904 l 233 125 l 747 125 l 728 0 l 53 0 l 72 119 z "},"Ź":{"ha":781,"x_min":53,"x_max":876,"o":"m 72 119 l 696 899 l 194 899 l 215 1024 l 876 1024 l 857 904 l 233 125 l 747 125 l 728 0 l 53 0 l 72 119 m 654 1290 l 776 1290 l 583 1099 l 496 1099 l 654 1290 z "},"Ž":{"ha":781,"x_min":53,"x_max":876,"o":"m 72 119 l 696 899 l 194 899 l 215 1024 l 876 1024 l 857 904 l 233 125 l 747 125 l 728 0 l 53 0 l 72 119 m 403 1289 l 486 1289 l 581 1164 l 728 1289 l 811 1289 l 618 1099 l 521 1099 l 403 1289 z "},"Ż":{"ha":781,"x_min":53,"x_max":876,"o":"m 72 119 l 696 899 l 194 899 l 215 1024 l 876 1024 l 857 904 l 233 125 l 747 125 l 728 0 l 53 0 l 72 119 m 522 1132 q 508 1138 514 1132 q 503 1153 503 1143 l 503 1156 l 522 1272 q 549 1297 524 1297 l 614 1297 q 633 1278 633 1297 l 633 1272 l 615 1156 q 606 1138 614 1144 q 588 1132 599 1132 l 522 1132 z "},"Ẓ":{"ha":781,"x_min":53,"x_max":876,"o":"m 72 119 l 696 899 l 194 899 l 215 1024 l 876 1024 l 857 904 l 233 125 l 747 125 l 728 0 l 53 0 l 72 119 m 289 -299 q 275 -293 281 -299 q 269 -278 269 -287 l 269 -275 l 289 -158 q 315 -133 290 -133 l 381 -133 q 400 -153 400 -133 l 400 -158 l 382 -275 q 373 -292 381 -286 q 354 -299 365 -299 l 289 -299 z "},"a":{"ha":786,"x_min":111,"x_max":804,"o":"m 325 -8 q 171 55 231 -8 q 111 244 111 118 q 126 392 111 303 q 246 665 156 578 q 511 751 336 751 q 676 729 596 751 q 804 667 757 707 l 699 0 l 578 0 l 572 78 q 463 20 536 49 q 325 -8 389 -8 m 386 106 q 484 122 440 106 q 586 168 528 138 l 654 603 q 592 626 632 615 q 504 638 551 638 q 338 576 392 638 q 263 378 285 515 q 250 268 250 307 q 285 147 250 189 q 386 106 321 106 z "},"á":{"ha":786,"x_min":111,"x_max":804,"o":"m 325 -8 q 171 55 231 -8 q 111 244 111 118 q 126 392 111 303 q 246 665 156 578 q 511 751 336 751 q 676 729 596 751 q 804 667 757 707 l 699 0 l 578 0 l 572 78 q 463 20 536 49 q 325 -8 389 -8 m 386 106 q 484 122 440 106 q 586 168 528 138 l 654 603 q 592 626 632 615 q 504 638 551 638 q 338 576 392 638 q 263 378 285 515 q 250 268 250 307 q 285 147 250 189 q 386 106 321 106 m 640 1068 l 763 1068 l 569 876 l 482 876 l 640 1068 z "},"ă":{"ha":786,"x_min":111,"x_max":804,"o":"m 325 -8 q 171 55 231 -8 q 111 244 111 118 q 126 392 111 303 q 246 665 156 578 q 511 751 336 751 q 676 729 596 751 q 804 667 757 707 l 699 0 l 578 0 l 572 78 q 463 20 536 49 q 325 -8 389 -8 m 386 106 q 484 122 440 106 q 586 168 528 138 l 654 603 q 592 626 632 615 q 504 638 551 638 q 338 576 392 638 q 263 378 285 515 q 250 268 250 307 q 285 147 250 189 q 386 106 321 106 m 533 871 q 419 907 461 871 q 376 1019 376 943 q 379 1072 376 1033 l 446 1072 q 443 1036 443 1044 q 471 960 443 985 q 542 936 499 936 q 635 969 596 936 q 685 1072 674 1001 l 751 1072 q 678 919 736 967 q 533 871 619 871 z "},"ắ":{"ha":786,"x_min":111,"x_max":804,"o":"m 325 -8 q 171 55 231 -8 q 111 244 111 118 q 126 392 111 303 q 246 665 156 578 q 511 751 336 751 q 676 729 596 751 q 804 667 757 707 l 699 0 l 578 0 l 572 78 q 463 20 536 49 q 325 -8 389 -8 m 386 106 q 484 122 440 106 q 586 168 528 138 l 654 603 q 592 626 632 615 q 504 638 551 638 q 338 576 392 638 q 263 378 285 515 q 250 268 250 307 q 285 147 250 189 q 386 106 321 106 m 640 1226 l 763 1226 l 569 1035 l 482 1035 l 640 1226 m 508 858 q 390 889 433 858 q 346 983 346 919 q 349 1018 346 1006 l 415 1018 q 414 997 414 1010 q 442 937 414 956 q 515 918 471 918 q 605 940 565 918 q 653 1018 644 961 l 721 1018 q 651 897 708 935 q 508 858 594 858 z "},"ặ":{"ha":786,"x_min":111,"x_max":804,"o":"m 325 -8 q 171 55 231 -8 q 111 244 111 118 q 126 392 111 303 q 246 665 156 578 q 511 751 336 751 q 676 729 596 751 q 804 667 757 707 l 699 0 l 578 0 l 572 78 q 463 20 536 49 q 325 -8 389 -8 m 386 106 q 484 122 440 106 q 586 168 528 138 l 654 603 q 592 626 632 615 q 504 638 551 638 q 338 576 392 638 q 263 378 285 515 q 250 268 250 307 q 285 147 250 189 q 386 106 321 106 m 533 871 q 419 907 461 871 q 376 1019 376 943 q 379 1072 376 1033 l 446 1072 q 443 1036 443 1044 q 471 960 443 985 q 542 936 499 936 q 635 969 596 936 q 685 1072 674 1001 l 751 1072 q 678 919 736 967 q 533 871 619 871 m 310 -299 q 296 -293 301 -299 q 290 -278 290 -287 l 290 -275 l 310 -158 q 336 -133 311 -133 l 401 -133 q 421 -153 421 -133 l 421 -158 l 403 -275 q 394 -292 401 -286 q 375 -299 386 -299 l 310 -299 z "},"ằ":{"ha":786,"x_min":111,"x_max":804,"o":"m 325 -8 q 171 55 231 -8 q 111 244 111 118 q 126 392 111 303 q 246 665 156 578 q 511 751 336 751 q 676 729 596 751 q 804 667 757 707 l 699 0 l 578 0 l 572 78 q 463 20 536 49 q 325 -8 389 -8 m 386 106 q 484 122 440 106 q 586 168 528 138 l 654 603 q 592 626 632 615 q 504 638 551 638 q 338 576 392 638 q 263 378 285 515 q 250 268 250 307 q 285 147 250 189 q 386 106 321 106 m 374 1226 l 489 1226 l 594 1035 l 513 1035 l 374 1226 m 508 858 q 390 889 433 858 q 346 983 346 919 q 349 1018 346 1006 l 415 1018 q 414 997 414 1010 q 442 937 414 956 q 515 918 471 918 q 653 1018 638 918 l 721 1018 q 651 897 708 935 q 508 858 594 858 z "},"ẳ":{"ha":786,"x_min":111,"x_max":804,"o":"m 325 -8 q 171 55 231 -8 q 111 244 111 118 q 126 392 111 303 q 246 665 156 578 q 511 751 336 751 q 676 729 596 751 q 804 667 757 707 l 699 0 l 578 0 l 572 78 q 463 20 536 49 q 325 -8 389 -8 m 386 106 q 484 122 440 106 q 586 168 528 138 l 654 603 q 592 626 632 615 q 504 638 551 638 q 338 576 392 638 q 263 378 285 515 q 250 268 250 307 q 285 147 250 189 q 386 106 321 106 m 506 1040 q 589 1128 589 1065 q 538 1168 589 1168 q 488 1160 513 1168 l 496 1217 q 565 1226 526 1226 q 665 1139 665 1226 q 494 976 665 1024 l 506 1040 m 508 858 q 390 889 433 858 q 346 983 346 919 q 349 1018 346 1006 l 415 1018 q 414 997 414 1010 q 442 937 414 956 q 515 918 471 918 q 653 1018 638 918 l 721 1018 q 651 897 708 935 q 508 858 594 858 z "},"ẵ":{"ha":786,"x_min":111,"x_max":804,"o":"m 325 -8 q 171 55 231 -8 q 111 244 111 118 q 126 392 111 303 q 246 665 156 578 q 511 751 336 751 q 676 729 596 751 q 804 667 757 707 l 699 0 l 578 0 l 572 78 q 463 20 536 49 q 325 -8 389 -8 m 386 106 q 484 122 440 106 q 586 168 528 138 l 654 603 q 592 626 632 615 q 504 638 551 638 q 338 576 392 638 q 263 378 285 515 q 250 268 250 307 q 285 147 250 189 q 386 106 321 106 m 324 1067 q 472 1190 351 1190 q 519 1183 499 1190 q 574 1161 540 1176 q 616 1143 599 1149 q 651 1138 633 1138 q 704 1152 683 1138 q 728 1194 725 1167 l 799 1194 q 748 1098 785 1128 q 650 1068 711 1068 q 603 1075 626 1068 q 551 1096 581 1082 q 505 1115 522 1108 q 469 1121 488 1121 q 420 1106 440 1121 q 394 1067 400 1092 l 324 1067 m 514 858 q 395 889 439 858 q 351 983 351 919 q 354 1018 351 993 l 421 1018 q 419 997 419 1010 q 448 937 419 956 q 521 918 476 918 q 613 939 576 918 q 658 1018 650 960 l 726 1018 q 657 897 714 935 q 514 858 600 858 z "},"â":{"ha":786,"x_min":111,"x_max":804,"o":"m 325 -8 q 171 55 231 -8 q 111 244 111 118 q 126 392 111 303 q 246 665 156 578 q 511 751 336 751 q 676 729 596 751 q 804 667 757 707 l 699 0 l 578 0 l 572 78 q 463 20 536 49 q 325 -8 389 -8 m 386 106 q 484 122 440 106 q 586 168 528 138 l 654 603 q 592 626 632 615 q 504 638 551 638 q 338 576 392 638 q 263 378 285 515 q 250 268 250 307 q 285 147 250 189 q 386 106 321 106 m 522 1067 l 618 1067 l 738 876 l 654 876 l 557 1003 l 411 876 l 328 876 l 522 1067 z "},"ấ":{"ha":786,"x_min":111,"x_max":907,"o":"m 325 -8 q 171 55 231 -8 q 111 244 111 118 q 126 392 111 303 q 246 665 156 578 q 511 751 336 751 q 676 729 596 751 q 804 667 757 707 l 699 0 l 578 0 l 572 78 q 463 20 536 49 q 325 -8 389 -8 m 386 106 q 484 122 440 106 q 586 168 528 138 l 654 603 q 592 626 632 615 q 504 638 551 638 q 338 576 392 638 q 263 378 285 515 q 250 268 250 307 q 285 147 250 189 q 386 106 321 106 m 797 1165 l 907 1165 l 740 986 l 665 986 l 797 1165 m 500 1018 l 597 1018 l 724 876 l 640 876 l 536 953 l 399 876 l 315 876 l 500 1018 z "},"ậ":{"ha":786,"x_min":111,"x_max":804,"o":"m 325 -8 q 171 55 231 -8 q 111 244 111 118 q 126 392 111 303 q 246 665 156 578 q 511 751 336 751 q 676 729 596 751 q 804 667 757 707 l 699 0 l 578 0 l 572 78 q 463 20 536 49 q 325 -8 389 -8 m 386 106 q 484 122 440 106 q 586 168 528 138 l 654 603 q 592 626 632 615 q 504 638 551 638 q 338 576 392 638 q 263 378 285 515 q 250 268 250 307 q 285 147 250 189 q 386 106 321 106 m 522 1067 l 618 1067 l 738 876 l 654 876 l 557 1003 l 411 876 l 328 876 l 522 1067 m 310 -299 q 296 -293 301 -299 q 290 -278 290 -287 l 290 -275 l 310 -158 q 336 -133 311 -133 l 401 -133 q 421 -153 421 -133 l 421 -158 l 403 -275 q 394 -292 401 -286 q 375 -299 386 -299 l 310 -299 z "},"ầ":{"ha":786,"x_min":111,"x_max":804,"o":"m 325 -8 q 171 55 231 -8 q 111 244 111 118 q 126 392 111 303 q 246 665 156 578 q 511 751 336 751 q 676 729 596 751 q 804 667 757 707 l 699 0 l 578 0 l 572 78 q 463 20 536 49 q 325 -8 389 -8 m 386 106 q 484 122 440 106 q 586 168 528 138 l 654 603 q 592 626 632 615 q 504 638 551 638 q 338 576 392 638 q 263 378 285 515 q 250 268 250 307 q 285 147 250 189 q 386 106 321 106 m 233 1165 l 343 1165 l 418 986 l 343 986 l 233 1165 m 494 1018 l 592 1018 l 718 876 l 635 876 l 531 953 l 392 876 l 308 876 l 494 1018 z "},"ẩ":{"ha":786,"x_min":111,"x_max":843,"o":"m 325 -8 q 171 55 231 -8 q 111 244 111 118 q 126 392 111 303 q 246 665 156 578 q 511 751 336 751 q 676 729 596 751 q 804 667 757 707 l 699 0 l 578 0 l 572 78 q 463 20 536 49 q 325 -8 389 -8 m 386 106 q 484 122 440 106 q 586 168 528 138 l 654 603 q 592 626 632 615 q 504 638 551 638 q 338 576 392 638 q 263 378 285 515 q 250 268 250 307 q 285 147 250 189 q 386 106 321 106 m 699 1007 q 771 1082 771 1032 q 728 1114 771 1114 q 678 1106 700 1114 l 686 1163 q 753 1174 722 1174 q 843 1097 843 1174 q 690 950 843 992 l 699 1007 m 503 1018 l 600 1018 l 726 876 l 643 876 l 539 953 l 401 876 l 317 876 l 503 1018 z "},"ẫ":{"ha":786,"x_min":111,"x_max":804,"o":"m 325 -8 q 171 55 231 -8 q 111 244 111 118 q 126 392 111 303 q 246 665 156 578 q 511 751 336 751 q 676 729 596 751 q 804 667 757 707 l 699 0 l 578 0 l 572 78 q 463 20 536 49 q 325 -8 389 -8 m 386 106 q 484 122 440 106 q 586 168 528 138 l 654 603 q 592 626 632 615 q 504 638 551 638 q 338 576 392 638 q 263 378 285 515 q 250 268 250 307 q 285 147 250 189 q 386 106 321 106 m 326 1079 q 474 1203 353 1203 q 522 1195 500 1203 q 575 1174 544 1188 q 617 1156 600 1163 q 654 1150 635 1150 q 706 1165 685 1150 q 731 1207 726 1179 l 801 1207 q 751 1110 788 1140 q 653 1081 714 1081 q 605 1088 628 1081 q 554 1108 582 1094 q 508 1127 525 1121 q 472 1133 490 1133 q 423 1119 443 1133 q 397 1079 403 1104 l 326 1079 m 504 1018 l 601 1018 l 726 876 l 643 876 l 540 953 l 401 876 l 318 876 l 504 1018 z "},"ȁ":{"ha":786,"x_min":111,"x_max":804,"o":"m 325 -8 q 171 55 231 -8 q 111 244 111 118 q 126 392 111 303 q 246 665 156 578 q 511 751 336 751 q 676 729 596 751 q 804 667 757 707 l 699 0 l 578 0 l 572 78 q 463 20 536 49 q 325 -8 389 -8 m 386 106 q 484 122 440 106 q 586 168 528 138 l 654 603 q 592 626 632 615 q 504 638 551 638 q 338 576 392 638 q 263 378 285 515 q 250 268 250 307 q 285 147 250 189 q 386 106 321 106 m 267 1068 l 382 1068 l 488 876 l 406 876 l 267 1068 m 483 1068 l 599 1068 l 704 876 l 622 876 l 483 1068 z "},"ä":{"ha":786,"x_min":111,"x_max":804,"o":"m 325 -8 q 171 55 231 -8 q 111 244 111 118 q 126 392 111 303 q 246 665 156 578 q 511 751 336 751 q 676 729 596 751 q 804 667 757 707 l 699 0 l 578 0 l 572 78 q 463 20 536 49 q 325 -8 389 -8 m 386 106 q 484 122 440 106 q 586 168 528 138 l 654 603 q 592 626 632 615 q 504 638 551 638 q 338 576 392 638 q 263 378 285 515 q 250 268 250 307 q 285 147 250 189 q 386 106 321 106 m 350 900 q 331 921 331 900 l 350 1040 q 378 1065 351 1065 l 442 1065 q 463 1046 463 1065 q 442 924 463 1051 q 433 906 440 913 q 415 900 426 900 l 350 900 m 632 900 q 613 921 613 900 l 632 1040 q 660 1065 633 1065 l 724 1065 q 744 1046 744 1065 q 725 924 744 1053 q 716 906 724 913 q 697 900 708 900 l 632 900 z "},"ạ":{"ha":786,"x_min":111,"x_max":804,"o":"m 325 -8 q 171 55 231 -8 q 111 244 111 118 q 126 392 111 303 q 246 665 156 578 q 511 751 336 751 q 676 729 596 751 q 804 667 757 707 l 699 0 l 578 0 l 572 78 q 463 20 536 49 q 325 -8 389 -8 m 386 106 q 484 122 440 106 q 586 168 528 138 l 654 603 q 592 626 632 615 q 504 638 551 638 q 338 576 392 638 q 263 378 285 515 q 250 268 250 307 q 285 147 250 189 q 386 106 321 106 m 310 -299 q 296 -293 301 -299 q 290 -278 290 -287 l 290 -275 l 310 -158 q 336 -133 311 -133 l 401 -133 q 421 -153 421 -133 l 421 -158 l 403 -275 q 394 -292 401 -286 q 375 -299 386 -299 l 310 -299 z "},"à":{"ha":786,"x_min":111,"x_max":804,"o":"m 325 -8 q 171 55 231 -8 q 111 244 111 118 q 126 392 111 303 q 246 665 156 578 q 511 751 336 751 q 676 729 596 751 q 804 667 757 707 l 699 0 l 578 0 l 572 78 q 463 20 536 49 q 325 -8 389 -8 m 386 106 q 484 122 440 106 q 586 168 528 138 l 654 603 q 592 626 632 615 q 504 638 551 638 q 338 576 392 638 q 263 378 285 515 q 250 268 250 307 q 285 147 250 189 q 386 106 321 106 m 381 1068 l 496 1068 l 601 876 l 519 876 l 381 1068 z "},"ả":{"ha":786,"x_min":111,"x_max":804,"o":"m 325 -8 q 171 55 231 -8 q 111 244 111 118 q 126 392 111 303 q 246 665 156 578 q 511 751 336 751 q 676 729 596 751 q 804 667 757 707 l 699 0 l 578 0 l 572 78 q 463 20 536 49 q 325 -8 389 -8 m 386 106 q 484 122 440 106 q 586 168 528 138 l 654 603 q 592 626 632 615 q 504 638 551 638 q 338 576 392 638 q 263 378 285 515 q 250 268 250 307 q 285 147 250 189 q 386 106 321 106 m 500 897 q 583 985 583 922 q 532 1025 583 1025 q 482 1017 507 1025 l 490 1074 q 560 1083 521 1083 q 660 996 660 1083 q 489 833 660 881 l 500 897 z "},"ȃ":{"ha":786,"x_min":111,"x_max":804,"o":"m 325 -8 q 171 55 231 -8 q 111 244 111 118 q 126 392 111 303 q 246 665 156 578 q 511 751 336 751 q 676 729 596 751 q 804 667 757 707 l 699 0 l 578 0 l 572 78 q 463 20 536 49 q 325 -8 389 -8 m 386 106 q 484 122 440 106 q 586 168 528 138 l 654 603 q 592 626 632 615 q 504 638 551 638 q 338 576 392 638 q 263 378 285 515 q 250 268 250 307 q 285 147 250 189 q 386 106 321 106 m 340 874 q 414 1026 356 978 q 558 1074 472 1074 q 673 1038 631 1074 q 715 925 715 1001 q 713 874 715 910 l 646 874 q 649 908 649 899 q 621 984 649 960 q 549 1008 593 1008 q 457 976 496 1008 q 407 874 418 944 l 340 874 z "},"ā":{"ha":786,"x_min":111,"x_max":804,"o":"m 325 -8 q 171 55 231 -8 q 111 244 111 118 q 126 392 111 303 q 246 665 156 578 q 511 751 336 751 q 676 729 596 751 q 804 667 757 707 l 699 0 l 578 0 l 572 78 q 463 20 536 49 q 325 -8 389 -8 m 386 106 q 484 122 440 106 q 586 168 528 138 l 654 603 q 592 626 632 615 q 504 638 551 638 q 338 576 392 638 q 263 378 285 515 q 250 268 250 307 q 285 147 250 189 q 386 106 321 106 m 369 1006 l 744 1006 l 731 922 l 356 922 l 369 1006 z "},"ą":{"ha":786,"x_min":111,"x_max":804,"o":"m 599 -121 q 623 -172 599 -154 q 692 -190 647 -190 l 701 -190 l 690 -258 q 651 -261 671 -261 q 556 -233 589 -261 q 522 -158 522 -204 q 553 -70 522 -112 q 646 0 585 -28 l 578 0 l 572 78 q 463 20 536 49 q 325 -8 389 -8 q 171 55 231 -8 q 111 244 111 118 q 126 392 111 303 q 246 665 156 578 q 511 751 336 751 q 676 729 596 751 q 804 667 757 707 l 699 0 q 624 -59 650 -25 q 599 -121 599 -93 m 654 603 q 592 626 632 615 q 504 638 551 638 q 338 576 392 638 q 263 378 285 515 q 250 268 250 307 q 285 147 250 189 q 386 106 321 106 q 484 122 440 106 q 586 168 528 138 l 654 603 z "},"å":{"ha":786,"x_min":111,"x_max":804,"o":"m 325 -8 q 171 55 231 -8 q 111 244 111 118 q 126 392 111 303 q 246 665 156 578 q 511 751 336 751 q 676 729 596 751 q 804 667 757 707 l 699 0 l 578 0 l 572 78 q 463 20 536 49 q 325 -8 389 -8 m 386 106 q 484 122 440 106 q 586 168 528 138 l 654 603 q 592 626 632 615 q 504 638 551 638 q 338 576 392 638 q 263 378 285 515 q 250 268 250 307 q 285 147 250 189 q 386 106 321 106 m 540 821 q 397 949 397 821 q 447 1074 397 1024 q 582 1125 496 1125 q 722 997 722 1125 q 674 871 722 921 q 540 821 626 821 m 546 876 q 626 910 599 876 q 654 994 654 943 q 633 1052 654 1035 q 576 1069 611 1069 q 492 1035 521 1069 q 464 950 464 1001 q 487 894 464 911 q 546 876 510 876 z "},"ǻ":{"ha":786,"x_min":111,"x_max":825,"o":"m 325 -8 q 171 55 231 -8 q 111 244 111 118 q 126 392 111 303 q 246 665 156 578 q 511 751 336 751 q 676 729 596 751 q 804 667 757 707 l 699 0 l 578 0 l 572 78 q 463 20 536 49 q 325 -8 389 -8 m 386 106 q 484 122 440 106 q 586 168 528 138 l 654 603 q 592 626 632 615 q 504 638 551 638 q 338 576 392 638 q 263 378 285 515 q 250 268 250 307 q 285 147 250 189 q 386 106 321 106 m 540 821 q 397 949 397 821 q 447 1074 397 1024 q 582 1125 496 1125 q 722 997 722 1125 q 674 871 722 921 q 540 821 626 821 m 546 876 q 626 910 599 876 q 654 994 654 943 q 633 1052 654 1035 q 576 1069 611 1069 q 492 1035 521 1069 q 464 950 464 1001 q 487 894 464 911 q 546 876 510 876 m 703 1346 l 825 1346 l 632 1154 l 544 1154 l 703 1346 z "},"ã":{"ha":786,"x_min":111,"x_max":817,"o":"m 325 -8 q 171 55 231 -8 q 111 244 111 118 q 126 392 111 303 q 246 665 156 578 q 511 751 336 751 q 676 729 596 751 q 804 667 757 707 l 699 0 l 578 0 l 572 78 q 463 20 536 49 q 325 -8 389 -8 m 386 106 q 484 122 440 106 q 586 168 528 138 l 654 603 q 592 626 632 615 q 504 638 551 638 q 338 576 392 638 q 263 378 285 515 q 250 268 250 307 q 285 147 250 189 q 386 106 321 106 m 296 896 q 356 1013 313 976 q 457 1049 399 1049 q 513 1038 486 1049 q 572 1008 539 1028 q 624 983 606 990 q 661 975 642 975 q 717 996 694 975 q 747 1054 740 1017 l 817 1054 q 658 897 783 897 q 606 907 631 897 q 543 938 582 917 q 492 963 511 954 q 453 971 474 971 q 397 951 421 971 q 367 896 374 932 l 296 896 z "},"æ":{"ha":1238,"x_min":114,"x_max":1256,"o":"m 324 -8 q 171 53 228 -8 q 114 243 114 114 q 215 618 114 485 q 506 751 315 751 q 635 735 567 751 q 750 689 703 719 q 853 737 786 719 q 976 754 919 754 q 1256 535 1256 754 q 1172 362 1256 425 q 933 299 1089 299 q 811 306 874 299 q 731 318 749 313 q 725 247 725 275 q 763 134 725 171 q 896 97 800 97 l 1169 97 l 1157 14 q 1010 -2 1094 4 q 846 -8 926 -8 q 701 24 761 -8 q 619 110 642 56 q 324 -8 463 -8 m 896 382 q 1065 417 1007 382 q 1124 519 1124 453 q 1088 613 1124 581 q 983 646 1051 646 q 851 617 900 646 q 779 535 803 589 q 740 393 756 482 q 801 386 756 390 q 896 382 846 382 m 375 107 q 494 136 433 107 q 594 204 556 165 q 589 263 589 228 q 609 442 589 351 q 671 599 629 532 q 601 625 643 613 q 517 638 558 638 q 313 533 374 638 q 253 268 253 428 q 375 107 253 107 z "},"ǽ":{"ha":1238,"x_min":114,"x_max":1256,"o":"m 324 -8 q 171 53 228 -8 q 114 243 114 114 q 215 618 114 485 q 506 751 315 751 q 635 735 567 751 q 750 689 703 719 q 853 737 786 719 q 976 754 919 754 q 1256 535 1256 754 q 1172 362 1256 425 q 933 299 1089 299 q 811 306 874 299 q 731 318 749 313 q 725 247 725 275 q 763 134 725 171 q 896 97 800 97 l 1169 97 l 1157 14 q 1010 -2 1094 4 q 846 -8 926 -8 q 701 24 761 -8 q 619 110 642 56 q 324 -8 463 -8 m 896 382 q 1065 417 1007 382 q 1124 519 1124 453 q 1088 613 1124 581 q 983 646 1051 646 q 851 617 900 646 q 779 535 803 589 q 740 393 756 482 q 801 386 756 390 q 896 382 846 382 m 375 107 q 494 136 433 107 q 594 204 556 165 q 589 263 589 228 q 609 442 589 351 q 671 599 629 532 q 601 625 643 613 q 517 638 558 638 q 313 533 374 638 q 253 268 253 428 q 375 107 253 107 m 865 1068 l 988 1068 l 794 876 l 707 876 l 865 1068 z "},"b":{"ha":797,"x_min":89,"x_max":801,"o":"m 479 -8 q 350 15 415 -8 q 240 74 285 39 l 210 0 l 89 0 l 257 1060 l 396 1060 l 336 682 q 458 733 392 714 q 572 751 524 751 q 740 686 678 751 q 801 499 801 621 q 785 333 801 443 q 681 82 760 172 q 479 -8 601 -8 m 440 106 q 579 170 528 106 q 651 369 631 235 q 661 478 661 443 q 626 599 661 561 q 529 638 590 638 q 321 583 433 638 l 256 163 q 340 121 297 136 q 440 106 383 106 z "},"ḃ":{"ha":797,"x_min":89,"x_max":801,"o":"m 479 -8 q 350 15 415 -8 q 240 74 285 39 l 210 0 l 89 0 l 257 1060 l 396 1060 l 336 682 q 458 733 392 714 q 572 751 524 751 q 740 686 678 751 q 801 499 801 621 q 785 333 801 443 q 681 82 760 172 q 479 -8 601 -8 m 440 106 q 579 170 528 106 q 651 369 631 235 q 661 478 661 443 q 626 599 661 561 q 529 638 590 638 q 321 583 433 638 l 256 163 q 340 121 297 136 q 440 106 383 106 m 318 1188 q 304 1193 310 1188 q 299 1208 299 1199 l 299 1211 l 318 1328 q 344 1353 319 1353 l 410 1353 q 429 1333 429 1353 l 429 1328 l 411 1211 q 402 1194 410 1200 q 383 1188 394 1188 l 318 1188 z "},"c":{"ha":665,"x_min":114,"x_max":718,"o":"m 379 -8 q 182 53 250 -8 q 114 265 114 114 q 128 396 114 313 q 244 667 156 582 q 472 751 332 751 q 718 724 579 751 l 704 642 l 500 642 q 344 579 401 642 q 263 369 288 517 q 253 276 253 297 q 294 138 253 178 q 422 99 335 99 l 633 99 l 621 19 q 379 -8 510 -8 z "},"ć":{"ha":665,"x_min":114,"x_max":726,"o":"m 379 -8 q 182 53 250 -8 q 114 265 114 114 q 128 396 114 313 q 244 667 156 582 q 472 751 332 751 q 718 724 579 751 l 704 642 l 500 642 q 344 579 401 642 q 263 369 288 517 q 253 276 253 297 q 294 138 253 178 q 422 99 335 99 l 633 99 l 621 19 q 379 -8 510 -8 m 604 1068 l 726 1068 l 533 876 l 446 876 l 604 1068 z "},"č":{"ha":665,"x_min":114,"x_max":747,"o":"m 379 -8 q 182 53 250 -8 q 114 265 114 114 q 128 396 114 313 q 244 667 156 582 q 472 751 332 751 q 718 724 579 751 l 704 642 l 500 642 q 344 579 401 642 q 263 369 288 517 q 253 276 253 297 q 294 138 253 178 q 422 99 335 99 l 633 99 l 621 19 q 379 -8 510 -8 m 339 1067 l 422 1067 l 517 942 l 664 1067 l 747 1067 l 554 876 l 457 876 l 339 1067 z "},"ç":{"ha":665,"x_min":114,"x_max":718,"o":"m 500 642 q 344 579 401 642 q 263 369 288 517 q 253 276 253 297 q 294 138 253 178 q 422 99 335 99 l 633 99 l 621 19 q 379 -8 510 -8 l 376 -8 l 315 -82 q 401 -160 401 -89 q 360 -240 401 -204 q 246 -275 319 -275 l 194 -275 l 203 -218 l 233 -215 q 292 -189 271 -211 q 314 -146 314 -167 q 239 -99 314 -104 l 314 -4 q 165 72 217 10 q 114 265 114 135 q 128 396 114 313 q 244 667 156 582 q 472 751 332 751 q 718 724 579 751 l 704 642 l 500 642 z "},"ḉ":{"ha":665,"x_min":114,"x_max":726,"o":"m 533 876 l 446 876 l 604 1068 l 726 1068 l 533 876 m 128 396 q 244 667 156 582 q 472 751 332 751 q 718 724 579 751 l 704 642 l 500 642 q 344 579 401 642 q 263 369 288 517 q 253 276 253 297 q 294 138 253 178 q 422 99 335 99 l 633 99 l 621 19 q 379 -8 510 -8 l 376 -8 l 315 -82 q 401 -160 401 -89 q 360 -240 401 -204 q 246 -275 319 -275 l 194 -275 l 203 -218 l 233 -215 q 292 -189 271 -211 q 314 -146 314 -167 q 239 -99 314 -104 l 314 -4 q 165 72 217 10 q 114 265 114 135 q 128 396 114 313 z "},"ĉ":{"ha":665,"x_min":114,"x_max":718,"o":"m 379 -8 q 182 53 250 -8 q 114 265 114 114 q 128 396 114 313 q 244 667 156 582 q 472 751 332 751 q 718 724 579 751 l 704 642 l 500 642 q 344 579 401 642 q 263 369 288 517 q 253 276 253 297 q 294 138 253 178 q 422 99 335 99 l 633 99 l 621 19 q 379 -8 510 -8 m 486 1067 l 582 1067 l 701 876 l 618 876 l 521 1003 l 375 876 l 292 876 l 486 1067 z "},"ċ":{"ha":665,"x_min":114,"x_max":718,"o":"m 379 -8 q 182 53 250 -8 q 114 265 114 114 q 128 396 114 313 q 244 667 156 582 q 472 751 332 751 q 718 724 579 751 l 704 642 l 500 642 q 344 579 401 642 q 263 369 288 517 q 253 276 253 297 q 294 138 253 178 q 422 99 335 99 l 633 99 l 621 19 q 379 -8 510 -8 m 467 910 q 453 915 458 910 q 447 931 447 921 l 447 933 l 467 1050 q 493 1075 468 1075 l 558 1075 q 578 1056 578 1075 l 578 1050 l 560 933 q 551 916 558 922 q 532 910 543 910 l 467 910 z "},"d":{"ha":790,"x_min":114,"x_max":869,"o":"m 328 -8 q 171 57 228 -8 q 114 242 114 122 q 129 396 114 324 q 190 592 153 515 q 302 710 228 668 q 500 751 376 751 q 675 718 600 751 l 729 1060 l 869 1060 l 701 0 l 581 0 l 574 78 q 458 17 524 42 q 328 -8 393 -8 m 383 106 q 486 122 438 106 q 588 168 535 139 l 657 603 q 506 638 592 638 q 384 612 431 638 q 310 528 338 586 q 264 371 282 471 q 253 267 253 308 q 288 144 253 182 q 383 106 324 106 z "},"ð":{"ha":790,"x_min":114,"x_max":861,"o":"m 697 942 q 804 618 804 832 q 781 350 804 507 q 714 132 760 210 q 592 23 668 54 q 394 -8 517 -8 q 114 246 114 -8 q 124 371 114 311 q 190 597 147 518 q 303 708 233 676 q 482 739 372 739 q 605 716 551 739 q 690 651 658 693 q 583 897 682 824 l 365 813 l 351 860 l 529 929 q 315 965 451 963 l 331 1060 q 656 978 539 1060 l 849 1053 l 861 1006 l 697 942 m 640 365 q 651 485 651 439 q 614 594 651 561 q 492 628 576 628 q 375 605 418 628 q 306 523 332 582 q 261 349 279 464 q 253 251 253 293 q 292 136 253 167 q 410 106 331 106 q 525 126 482 106 q 596 201 568 146 q 640 365 624 257 z "},"ď":{"ha":790,"x_min":114,"x_max":1076,"o":"m 328 -8 q 171 57 228 -8 q 114 242 114 122 q 129 396 114 324 q 190 592 153 515 q 302 710 228 668 q 500 751 376 751 q 675 718 600 751 l 729 1060 l 869 1060 l 701 0 l 581 0 l 574 78 q 458 17 524 42 q 328 -8 393 -8 m 383 106 q 486 122 438 106 q 588 168 535 139 l 657 603 q 506 638 592 638 q 384 612 431 638 q 310 528 338 586 q 264 371 282 471 q 253 267 253 308 q 288 144 253 182 q 383 106 324 106 m 933 1000 l 947 1093 l 1076 1093 l 1061 1000 l 1019 796 l 915 796 l 933 1000 z "},"đ":{"ha":796,"x_min":114,"x_max":939,"o":"m 929 868 l 839 868 l 701 0 l 581 0 l 574 78 q 458 17 524 42 q 328 -8 393 -8 q 171 57 228 -8 q 114 242 114 122 q 129 396 114 324 q 190 592 153 515 q 302 710 228 668 q 500 751 376 751 q 675 718 600 751 l 699 868 l 515 868 l 525 926 l 708 926 l 729 1060 l 869 1060 l 849 926 l 939 926 l 929 868 m 657 603 q 506 638 592 638 q 384 612 431 638 q 310 528 338 586 q 264 371 282 471 q 253 267 253 308 q 288 144 253 182 q 383 106 324 106 q 486 122 438 106 q 588 168 535 139 l 657 603 z "},"ḋ":{"ha":790,"x_min":114,"x_max":903,"o":"m 328 -8 q 171 57 228 -8 q 114 242 114 122 q 129 396 114 324 q 190 592 153 515 q 302 710 228 668 q 500 751 376 751 q 675 718 600 751 l 729 1060 l 869 1060 l 701 0 l 581 0 l 574 78 q 458 17 524 42 q 328 -8 393 -8 m 383 106 q 486 122 438 106 q 588 168 535 139 l 657 603 q 506 638 592 638 q 384 612 431 638 q 310 528 338 586 q 264 371 282 471 q 253 267 253 308 q 288 144 253 182 q 383 106 324 106 m 792 1188 q 778 1193 783 1188 q 772 1208 772 1199 l 772 1211 l 792 1328 q 818 1353 793 1353 l 883 1353 q 903 1333 903 1353 l 903 1328 l 885 1211 q 876 1194 883 1200 q 857 1188 868 1188 l 792 1188 z "},"ḍ":{"ha":790,"x_min":114,"x_max":869,"o":"m 328 -8 q 171 57 228 -8 q 114 242 114 122 q 129 396 114 324 q 190 592 153 515 q 302 710 228 668 q 500 751 376 751 q 675 718 600 751 l 729 1060 l 869 1060 l 701 0 l 581 0 l 574 78 q 458 17 524 42 q 328 -8 393 -8 m 383 106 q 486 122 438 106 q 588 168 535 139 l 657 603 q 506 638 592 638 q 384 612 431 638 q 310 528 338 586 q 264 371 282 471 q 253 267 253 308 q 288 144 253 182 q 383 106 324 106 m 318 -299 q 304 -293 310 -299 q 299 -278 299 -287 l 299 -275 l 318 -158 q 344 -133 319 -133 l 410 -133 q 429 -153 429 -133 l 429 -158 l 411 -275 q 402 -292 410 -286 q 383 -299 394 -299 l 318 -299 z "},"ḏ":{"ha":790,"x_min":114,"x_max":869,"o":"m 328 -8 q 171 57 228 -8 q 114 242 114 122 q 129 396 114 324 q 190 592 153 515 q 302 710 228 668 q 500 751 376 751 q 675 718 600 751 l 729 1060 l 869 1060 l 701 0 l 581 0 l 574 78 q 458 17 524 42 q 328 -8 393 -8 m 383 106 q 486 122 438 106 q 588 168 535 139 l 657 603 q 506 638 592 638 q 384 612 431 638 q 310 528 338 586 q 264 371 282 471 q 253 267 253 308 q 288 144 253 182 q 383 106 324 106 m 194 -189 l 569 -189 l 556 -272 l 181 -272 l 194 -189 z "},"e":{"ha":761,"x_min":115,"x_max":782,"o":"m 414 -8 q 186 58 257 -8 q 115 257 115 125 q 129 410 115 331 q 249 669 156 583 q 510 754 342 754 q 709 706 636 754 q 782 546 782 658 q 690 353 782 407 q 443 299 597 299 q 336 304 386 299 q 257 318 286 310 q 253 243 253 281 q 302 132 253 167 q 465 97 351 97 l 694 97 l 682 14 q 414 -8 554 -8 m 400 382 q 588 415 525 382 q 650 531 650 449 q 613 618 650 590 q 500 646 576 646 q 338 583 392 646 q 267 393 285 521 q 400 382 322 382 z "},"é":{"ha":761,"x_min":115,"x_max":782,"o":"m 414 -8 q 186 58 257 -8 q 115 257 115 125 q 129 410 115 331 q 249 669 156 583 q 510 754 342 754 q 709 706 636 754 q 782 546 782 658 q 690 353 782 407 q 443 299 597 299 q 336 304 386 299 q 257 318 286 310 q 253 243 253 281 q 302 132 253 167 q 465 97 351 97 l 694 97 l 682 14 q 414 -8 554 -8 m 400 382 q 588 415 525 382 q 650 531 650 449 q 613 618 650 590 q 500 646 576 646 q 338 583 392 646 q 267 393 285 521 q 400 382 322 382 m 638 1068 l 760 1068 l 567 876 l 479 876 l 638 1068 z "},"ĕ":{"ha":761,"x_min":115,"x_max":782,"o":"m 414 -8 q 186 58 257 -8 q 115 257 115 125 q 129 410 115 331 q 249 669 156 583 q 510 754 342 754 q 709 706 636 754 q 782 546 782 658 q 690 353 782 407 q 443 299 597 299 q 336 304 386 299 q 257 318 286 310 q 253 243 253 281 q 302 132 253 167 q 465 97 351 97 l 694 97 l 682 14 q 414 -8 554 -8 m 400 382 q 588 415 525 382 q 650 531 650 449 q 613 618 650 590 q 500 646 576 646 q 338 583 392 646 q 267 393 285 521 q 400 382 322 382 m 531 871 q 416 907 458 871 q 374 1019 374 943 q 376 1072 374 1033 l 443 1072 q 440 1036 440 1044 q 468 960 440 985 q 539 936 496 936 q 632 969 593 936 q 682 1072 671 1001 l 749 1072 q 675 919 733 967 q 531 871 617 871 z "},"ě":{"ha":761,"x_min":115,"x_max":782,"o":"m 414 -8 q 186 58 257 -8 q 115 257 115 125 q 129 410 115 331 q 249 669 156 583 q 510 754 342 754 q 709 706 636 754 q 782 546 782 658 q 690 353 782 407 q 443 299 597 299 q 336 304 386 299 q 257 318 286 310 q 253 243 253 281 q 302 132 253 167 q 465 97 351 97 l 694 97 l 682 14 q 414 -8 554 -8 m 400 382 q 588 415 525 382 q 650 531 650 449 q 613 618 650 590 q 500 646 576 646 q 338 583 392 646 q 267 393 285 521 q 400 382 322 382 m 372 1067 l 456 1067 l 550 942 l 697 1067 l 781 1067 l 588 876 l 490 876 l 372 1067 z "},"ḝ":{"ha":761,"x_min":115,"x_max":782,"o":"m 531 871 q 416 907 458 871 q 374 1019 374 943 q 376 1072 374 1033 l 443 1072 q 440 1036 440 1044 q 468 960 440 985 q 539 936 496 936 q 632 969 593 936 q 682 1072 671 1001 l 749 1072 q 675 919 733 967 q 531 871 617 871 m 443 299 q 336 304 386 299 q 257 318 286 310 q 253 243 253 281 q 302 132 253 167 q 465 97 351 97 l 694 97 l 682 14 q 438 -8 560 -7 l 376 -82 q 463 -160 463 -89 q 422 -240 463 -204 q 307 -275 381 -275 l 256 -275 l 264 -218 l 294 -215 q 353 -189 332 -211 q 375 -146 375 -167 q 300 -99 375 -104 l 374 -7 q 177 67 239 1 q 115 257 115 133 q 129 410 115 331 q 249 669 156 583 q 510 754 342 754 q 709 706 636 754 q 782 546 782 658 q 690 353 782 407 q 443 299 597 299 m 500 646 q 338 583 392 646 q 267 393 285 521 q 400 382 322 382 q 588 415 525 382 q 650 531 650 449 q 613 618 650 590 q 500 646 576 646 z "},"ê":{"ha":761,"x_min":115,"x_max":782,"o":"m 414 -8 q 186 58 257 -8 q 115 257 115 125 q 129 410 115 331 q 249 669 156 583 q 510 754 342 754 q 709 706 636 754 q 782 546 782 658 q 690 353 782 407 q 443 299 597 299 q 336 304 386 299 q 257 318 286 310 q 253 243 253 281 q 302 132 253 167 q 465 97 351 97 l 694 97 l 682 14 q 414 -8 554 -8 m 400 382 q 588 415 525 382 q 650 531 650 449 q 613 618 650 590 q 500 646 576 646 q 338 583 392 646 q 267 393 285 521 q 400 382 322 382 m 519 1067 l 615 1067 l 735 876 l 651 876 l 554 1003 l 408 876 l 325 876 l 519 1067 z "},"ế":{"ha":761,"x_min":115,"x_max":904,"o":"m 414 -8 q 186 58 257 -8 q 115 257 115 125 q 129 410 115 331 q 249 669 156 583 q 510 754 342 754 q 709 706 636 754 q 782 546 782 658 q 690 353 782 407 q 443 299 597 299 q 336 304 386 299 q 257 318 286 310 q 253 243 253 281 q 302 132 253 167 q 465 97 351 97 l 694 97 l 682 14 q 414 -8 554 -8 m 400 382 q 588 415 525 382 q 650 531 650 449 q 613 618 650 590 q 500 646 576 646 q 338 583 392 646 q 267 393 285 521 q 400 382 322 382 m 794 1165 l 904 1165 l 738 986 l 663 986 l 794 1165 m 497 1018 l 594 1018 l 721 876 l 638 876 l 533 953 l 396 876 l 313 876 l 497 1018 z "},"ệ":{"ha":761,"x_min":115,"x_max":782,"o":"m 414 -8 q 186 58 257 -8 q 115 257 115 125 q 129 410 115 331 q 249 669 156 583 q 510 754 342 754 q 709 706 636 754 q 782 546 782 658 q 690 353 782 407 q 443 299 597 299 q 336 304 386 299 q 257 318 286 310 q 253 243 253 281 q 302 132 253 167 q 465 97 351 97 l 694 97 l 682 14 q 414 -8 554 -8 m 400 382 q 588 415 525 382 q 650 531 650 449 q 613 618 650 590 q 500 646 576 646 q 338 583 392 646 q 267 393 285 521 q 400 382 322 382 m 519 1067 l 615 1067 l 735 876 l 651 876 l 554 1003 l 408 876 l 325 876 l 519 1067 m 335 -299 q 321 -293 326 -299 q 315 -278 315 -287 l 315 -275 l 335 -158 q 361 -133 336 -133 l 426 -133 q 446 -153 446 -133 l 446 -158 l 428 -275 q 419 -292 426 -286 q 400 -299 411 -299 l 335 -299 z "},"ề":{"ha":761,"x_min":115,"x_max":782,"o":"m 414 -8 q 186 58 257 -8 q 115 257 115 125 q 129 410 115 331 q 249 669 156 583 q 510 754 342 754 q 709 706 636 754 q 782 546 782 658 q 690 353 782 407 q 443 299 597 299 q 336 304 386 299 q 257 318 286 310 q 253 243 253 281 q 302 132 253 167 q 465 97 351 97 l 694 97 l 682 14 q 414 -8 554 -8 m 400 382 q 588 415 525 382 q 650 531 650 449 q 613 618 650 590 q 500 646 576 646 q 338 583 392 646 q 267 393 285 521 q 400 382 322 382 m 231 1165 l 340 1165 l 415 986 l 340 986 l 231 1165 m 492 1018 l 589 1018 l 715 876 l 632 876 l 528 953 l 389 876 l 306 876 l 492 1018 z "},"ể":{"ha":761,"x_min":115,"x_max":842,"o":"m 414 -8 q 186 58 257 -8 q 115 257 115 125 q 129 410 115 331 q 249 669 156 583 q 510 754 342 754 q 709 706 636 754 q 782 546 782 658 q 690 353 782 407 q 443 299 597 299 q 336 304 386 299 q 257 318 286 310 q 253 243 253 281 q 302 132 253 167 q 465 97 351 97 l 694 97 l 682 14 q 414 -8 554 -8 m 400 382 q 588 415 525 382 q 650 531 650 449 q 613 618 650 590 q 500 646 576 646 q 338 583 392 646 q 267 393 285 521 q 400 382 322 382 m 697 1007 q 769 1082 769 1032 q 726 1114 769 1114 q 676 1106 699 1114 l 685 1163 q 751 1174 721 1174 q 842 1097 842 1174 q 689 950 842 992 l 697 1007 m 501 1018 l 599 1018 l 725 876 l 642 876 l 538 953 l 400 876 l 315 876 l 501 1018 z "},"ễ":{"ha":761,"x_min":115,"x_max":799,"o":"m 414 -8 q 186 58 257 -8 q 115 257 115 125 q 129 410 115 331 q 249 669 156 583 q 510 754 342 754 q 709 706 636 754 q 782 546 782 658 q 690 353 782 407 q 443 299 597 299 q 336 304 386 299 q 257 318 286 310 q 253 243 253 281 q 302 132 253 167 q 465 97 351 97 l 694 97 l 682 14 q 414 -8 554 -8 m 400 382 q 588 415 525 382 q 650 531 650 449 q 613 618 650 590 q 500 646 576 646 q 338 583 392 646 q 267 393 285 521 q 400 382 322 382 m 324 1079 q 471 1203 350 1203 q 519 1195 497 1203 q 572 1174 542 1188 q 615 1156 597 1163 q 651 1150 632 1150 q 703 1165 682 1150 q 728 1207 724 1179 l 799 1207 q 748 1110 785 1140 q 650 1081 711 1081 q 602 1088 625 1081 q 551 1108 579 1094 q 505 1127 522 1121 q 469 1133 488 1133 q 420 1119 440 1133 q 394 1079 400 1104 l 324 1079 m 501 1018 l 599 1018 l 724 876 l 640 876 l 538 953 l 399 876 l 315 876 l 501 1018 z "},"ȅ":{"ha":761,"x_min":115,"x_max":782,"o":"m 414 -8 q 186 58 257 -8 q 115 257 115 125 q 129 410 115 331 q 249 669 156 583 q 510 754 342 754 q 709 706 636 754 q 782 546 782 658 q 690 353 782 407 q 443 299 597 299 q 336 304 386 299 q 257 318 286 310 q 253 243 253 281 q 302 132 253 167 q 465 97 351 97 l 694 97 l 682 14 q 414 -8 554 -8 m 400 382 q 588 415 525 382 q 650 531 650 449 q 613 618 650 590 q 500 646 576 646 q 338 583 392 646 q 267 393 285 521 q 400 382 322 382 m 264 1068 l 379 1068 l 485 876 l 403 876 l 264 1068 m 481 1068 l 596 1068 l 701 876 l 619 876 l 481 1068 z "},"ë":{"ha":761,"x_min":115,"x_max":782,"o":"m 414 -8 q 186 58 257 -8 q 115 257 115 125 q 129 410 115 331 q 249 669 156 583 q 510 754 342 754 q 709 706 636 754 q 782 546 782 658 q 690 353 782 407 q 443 299 597 299 q 336 304 386 299 q 257 318 286 310 q 253 243 253 281 q 302 132 253 167 q 465 97 351 97 l 694 97 l 682 14 q 414 -8 554 -8 m 400 382 q 588 415 525 382 q 650 531 650 449 q 613 618 650 590 q 500 646 576 646 q 338 583 392 646 q 267 393 285 521 q 400 382 322 382 m 347 900 q 328 921 328 900 l 347 1040 q 375 1065 349 1065 l 439 1065 q 460 1046 460 1065 q 439 924 460 1051 q 431 906 438 913 q 413 900 424 900 l 347 900 m 629 900 q 610 921 610 900 l 629 1040 q 657 1065 631 1065 l 721 1065 q 742 1046 742 1065 q 722 924 742 1053 q 713 906 721 913 q 694 900 706 900 l 629 900 z "},"ė":{"ha":761,"x_min":115,"x_max":782,"o":"m 414 -8 q 186 58 257 -8 q 115 257 115 125 q 129 410 115 331 q 249 669 156 583 q 510 754 342 754 q 709 706 636 754 q 782 546 782 658 q 690 353 782 407 q 443 299 597 299 q 336 304 386 299 q 257 318 286 310 q 253 243 253 281 q 302 132 253 167 q 465 97 351 97 l 694 97 l 682 14 q 414 -8 554 -8 m 400 382 q 588 415 525 382 q 650 531 650 449 q 613 618 650 590 q 500 646 576 646 q 338 583 392 646 q 267 393 285 521 q 400 382 322 382 m 500 910 q 486 915 492 910 q 481 931 481 921 l 481 933 l 500 1050 q 526 1075 501 1075 l 592 1075 q 611 1056 611 1075 l 611 1050 l 593 933 q 584 916 592 922 q 565 910 576 910 l 500 910 z "},"ẹ":{"ha":761,"x_min":115,"x_max":782,"o":"m 414 -8 q 186 58 257 -8 q 115 257 115 125 q 129 410 115 331 q 249 669 156 583 q 510 754 342 754 q 709 706 636 754 q 782 546 782 658 q 690 353 782 407 q 443 299 597 299 q 336 304 386 299 q 257 318 286 310 q 253 243 253 281 q 302 132 253 167 q 465 97 351 97 l 694 97 l 682 14 q 414 -8 554 -8 m 400 382 q 588 415 525 382 q 650 531 650 449 q 613 618 650 590 q 500 646 576 646 q 338 583 392 646 q 267 393 285 521 q 400 382 322 382 m 335 -299 q 321 -293 326 -299 q 315 -278 315 -287 l 315 -275 l 335 -158 q 361 -133 336 -133 l 426 -133 q 446 -153 446 -133 l 446 -158 l 428 -275 q 419 -292 426 -286 q 400 -299 411 -299 l 335 -299 z "},"è":{"ha":761,"x_min":115,"x_max":782,"o":"m 414 -8 q 186 58 257 -8 q 115 257 115 125 q 129 410 115 331 q 249 669 156 583 q 510 754 342 754 q 709 706 636 754 q 782 546 782 658 q 690 353 782 407 q 443 299 597 299 q 336 304 386 299 q 257 318 286 310 q 253 243 253 281 q 302 132 253 167 q 465 97 351 97 l 694 97 l 682 14 q 414 -8 554 -8 m 400 382 q 588 415 525 382 q 650 531 650 449 q 613 618 650 590 q 500 646 576 646 q 338 583 392 646 q 267 393 285 521 q 400 382 322 382 m 378 1068 l 493 1068 l 599 876 l 517 876 l 378 1068 z "},"ẻ":{"ha":761,"x_min":115,"x_max":782,"o":"m 414 -8 q 186 58 257 -8 q 115 257 115 125 q 129 410 115 331 q 249 669 156 583 q 510 754 342 754 q 709 706 636 754 q 782 546 782 658 q 690 353 782 407 q 443 299 597 299 q 336 304 386 299 q 257 318 286 310 q 253 243 253 281 q 302 132 253 167 q 465 97 351 97 l 694 97 l 682 14 q 414 -8 554 -8 m 400 382 q 588 415 525 382 q 650 531 650 449 q 613 618 650 590 q 500 646 576 646 q 338 583 392 646 q 267 393 285 521 q 400 382 322 382 m 497 897 q 581 985 581 922 q 529 1025 581 1025 q 479 1017 504 1025 l 488 1074 q 557 1083 518 1083 q 657 996 657 1083 q 486 833 657 881 l 497 897 z "},"ȇ":{"ha":761,"x_min":115,"x_max":782,"o":"m 414 -8 q 186 58 257 -8 q 115 257 115 125 q 129 410 115 331 q 249 669 156 583 q 510 754 342 754 q 709 706 636 754 q 782 546 782 658 q 690 353 782 407 q 443 299 597 299 q 336 304 386 299 q 257 318 286 310 q 253 243 253 281 q 302 132 253 167 q 465 97 351 97 l 694 97 l 682 14 q 414 -8 554 -8 m 400 382 q 588 415 525 382 q 650 531 650 449 q 613 618 650 590 q 500 646 576 646 q 338 583 392 646 q 267 393 285 521 q 400 382 322 382 m 338 874 q 411 1026 353 978 q 556 1074 469 1074 q 670 1038 628 1074 q 713 925 713 1001 q 710 874 713 910 l 643 874 q 646 908 646 899 q 618 984 646 960 q 546 1008 590 1008 q 454 976 493 1008 q 404 874 415 944 l 338 874 z "},"ē":{"ha":761,"x_min":115,"x_max":782,"o":"m 414 -8 q 186 58 257 -8 q 115 257 115 125 q 129 410 115 331 q 249 669 156 583 q 510 754 342 754 q 709 706 636 754 q 782 546 782 658 q 690 353 782 407 q 443 299 597 299 q 336 304 386 299 q 257 318 286 310 q 253 243 253 281 q 302 132 253 167 q 465 97 351 97 l 694 97 l 682 14 q 414 -8 554 -8 m 400 382 q 588 415 525 382 q 650 531 650 449 q 613 618 650 590 q 500 646 576 646 q 338 583 392 646 q 267 393 285 521 q 400 382 322 382 m 367 1006 l 742 1006 l 728 922 l 353 922 l 367 1006 z "},"ḗ":{"ha":761,"x_min":115,"x_max":788,"o":"m 414 -8 q 186 58 257 -8 q 115 257 115 125 q 129 410 115 331 q 249 669 156 583 q 510 754 342 754 q 709 706 636 754 q 782 546 782 658 q 690 353 782 407 q 443 299 597 299 q 336 304 386 299 q 257 318 286 310 q 253 243 253 281 q 302 132 253 167 q 465 97 351 97 l 694 97 l 682 14 q 414 -8 554 -8 m 400 382 q 588 415 525 382 q 650 531 650 449 q 613 618 650 590 q 500 646 576 646 q 338 583 392 646 q 267 393 285 521 q 400 382 322 382 m 367 1006 l 742 1006 l 728 922 l 353 922 l 367 1006 m 665 1260 l 788 1260 l 594 1068 l 507 1068 l 665 1260 z "},"ḕ":{"ha":761,"x_min":115,"x_max":782,"o":"m 414 -8 q 186 58 257 -8 q 115 257 115 125 q 129 410 115 331 q 249 669 156 583 q 510 754 342 754 q 709 706 636 754 q 782 546 782 658 q 690 353 782 407 q 443 299 597 299 q 336 304 386 299 q 257 318 286 310 q 253 243 253 281 q 302 132 253 167 q 465 97 351 97 l 694 97 l 682 14 q 414 -8 554 -8 m 400 382 q 588 415 525 382 q 650 531 650 449 q 613 618 650 590 q 500 646 576 646 q 338 583 392 646 q 267 393 285 521 q 400 382 322 382 m 367 1006 l 742 1006 l 728 922 l 353 922 l 367 1006 m 378 1260 l 493 1260 l 599 1068 l 517 1068 l 378 1260 z "},"ę":{"ha":761,"x_min":115,"x_max":782,"o":"m 443 299 q 336 304 386 299 q 257 318 286 310 q 253 243 253 281 q 302 132 253 167 q 465 97 351 97 l 694 97 l 682 14 l 679 14 q 606 -45 631 -11 q 581 -107 581 -79 q 605 -158 581 -140 q 674 -176 629 -176 l 683 -176 l 672 -244 q 633 -247 653 -247 q 538 -219 571 -247 q 504 -144 504 -190 q 531 -64 504 -103 q 607 3 557 -25 q 414 -8 493 -8 q 186 58 257 -8 q 115 257 115 125 q 129 410 115 331 q 249 669 156 583 q 510 754 342 754 q 709 706 636 754 q 782 546 782 658 q 690 353 782 407 q 443 299 597 299 m 500 646 q 338 583 392 646 q 267 393 285 521 q 400 382 322 382 q 588 415 525 382 q 650 531 650 449 q 613 618 650 590 q 500 646 576 646 z "},"ẽ":{"ha":761,"x_min":115,"x_max":814,"o":"m 414 -8 q 186 58 257 -8 q 115 257 115 125 q 129 410 115 331 q 249 669 156 583 q 510 754 342 754 q 709 706 636 754 q 782 546 782 658 q 690 353 782 407 q 443 299 597 299 q 336 304 386 299 q 257 318 286 310 q 253 243 253 281 q 302 132 253 167 q 465 97 351 97 l 694 97 l 682 14 q 414 -8 554 -8 m 400 382 q 588 415 525 382 q 650 531 650 449 q 613 618 650 590 q 500 646 576 646 q 338 583 392 646 q 267 393 285 521 q 400 382 322 382 m 293 896 q 353 1013 310 976 q 454 1049 396 1049 q 510 1038 483 1049 q 569 1008 536 1028 q 621 983 603 990 q 658 975 639 975 q 715 996 692 975 q 744 1054 738 1017 l 814 1054 q 656 897 781 897 q 603 907 628 897 q 540 938 579 917 q 490 963 508 954 q 450 971 471 971 q 394 951 418 971 q 364 896 371 932 l 293 896 z "},"ə":{"ha":763,"x_min":101,"x_max":768,"o":"m 469 753 q 697 686 626 753 q 768 488 768 619 q 754 335 768 414 q 635 76 728 161 q 374 -10 542 -10 q 174 38 247 -10 q 101 199 101 86 q 194 392 101 338 q 440 446 286 446 q 547 440 497 446 q 626 426 597 435 q 631 501 631 464 q 581 613 631 578 q 418 647 532 647 l 189 647 l 201 731 q 469 753 329 753 m 483 363 q 296 329 358 363 q 233 214 233 296 q 270 126 233 154 q 383 99 307 99 q 545 161 492 99 q 617 351 599 224 q 483 363 561 363 z "},"f":{"ha":525,"x_min":131,"x_max":683,"o":"m 240 628 l 131 628 l 144 718 l 258 743 l 278 856 q 347 1012 294 956 q 518 1068 400 1068 q 683 1057 614 1068 l 668 956 l 540 956 q 448 924 475 956 q 411 821 421 892 l 399 743 l 610 743 l 592 628 l 381 628 l 282 0 l 142 0 l 240 628 z "},"ḟ":{"ha":525,"x_min":131,"x_max":683,"o":"m 240 628 l 131 628 l 144 718 l 258 743 l 278 856 q 347 1012 294 956 q 518 1068 400 1068 q 683 1057 614 1068 l 668 956 l 540 956 q 448 924 475 956 q 411 821 421 892 l 399 743 l 610 743 l 592 628 l 381 628 l 282 0 l 142 0 l 240 628 m 472 1188 q 458 1193 464 1188 q 453 1208 453 1199 l 453 1211 l 472 1328 q 499 1353 474 1353 l 564 1353 q 583 1333 583 1353 l 583 1328 l 565 1211 q 556 1194 564 1200 q 538 1188 549 1188 l 472 1188 z "},"g":{"ha":790,"x_min":64,"x_max":814,"o":"m 64 -315 l 79 -219 l 308 -219 q 472 -183 407 -219 q 550 -65 536 -147 l 574 78 q 447 15 518 38 q 314 -8 376 -8 q 167 60 222 -8 q 113 240 113 129 q 129 406 113 297 q 253 669 158 588 q 515 751 347 751 q 684 741 606 751 q 814 715 763 731 l 686 -86 q 571 -272 665 -214 q 326 -329 476 -329 q 261 -326 306 -329 l 64 -315 m 379 106 q 480 121 432 106 q 588 168 528 136 l 660 628 l 631 631 q 570 635 613 632 q 494 638 528 638 q 341 578 396 638 q 265 389 286 518 q 253 263 253 306 q 288 145 253 185 q 379 106 322 106 z "},"ğ":{"ha":790,"x_min":64,"x_max":814,"o":"m 64 -315 l 79 -219 l 308 -219 q 472 -183 407 -219 q 550 -65 536 -147 l 574 78 q 447 15 518 38 q 314 -8 376 -8 q 167 60 222 -8 q 113 240 113 129 q 129 406 113 297 q 253 669 158 588 q 515 751 347 751 q 684 741 606 751 q 814 715 763 731 l 686 -86 q 571 -272 665 -214 q 326 -329 476 -329 q 261 -326 306 -329 l 64 -315 m 379 106 q 480 121 432 106 q 588 168 528 136 l 660 628 l 631 631 q 570 635 613 632 q 494 638 528 638 q 341 578 396 638 q 265 389 286 518 q 253 263 253 306 q 288 145 253 185 q 379 106 322 106 m 533 871 q 419 907 461 871 q 376 1019 376 943 q 379 1072 376 1033 l 446 1072 q 443 1036 443 1044 q 471 960 443 985 q 542 936 499 936 q 635 969 596 936 q 685 1072 674 1001 l 751 1072 q 678 919 736 967 q 533 871 619 871 z "},"ǧ":{"ha":790,"x_min":64,"x_max":814,"o":"m 64 -315 l 79 -219 l 308 -219 q 472 -183 407 -219 q 550 -65 536 -147 l 574 78 q 447 15 518 38 q 314 -8 376 -8 q 167 60 222 -8 q 113 240 113 129 q 129 406 113 297 q 253 669 158 588 q 515 751 347 751 q 684 741 606 751 q 814 715 763 731 l 686 -86 q 571 -272 665 -214 q 326 -329 476 -329 q 261 -326 306 -329 l 64 -315 m 379 106 q 480 121 432 106 q 588 168 528 136 l 660 628 l 631 631 q 570 635 613 632 q 494 638 528 638 q 341 578 396 638 q 265 389 286 518 q 253 263 253 306 q 288 145 253 185 q 379 106 322 106 m 375 1067 l 458 1067 l 553 942 l 700 1067 l 783 1067 l 590 876 l 493 876 l 375 1067 z "},"ĝ":{"ha":790,"x_min":64,"x_max":814,"o":"m 64 -315 l 79 -219 l 308 -219 q 472 -183 407 -219 q 550 -65 536 -147 l 574 78 q 447 15 518 38 q 314 -8 376 -8 q 167 60 222 -8 q 113 240 113 129 q 129 406 113 297 q 253 669 158 588 q 515 751 347 751 q 684 741 606 751 q 814 715 763 731 l 686 -86 q 571 -272 665 -214 q 326 -329 476 -329 q 261 -326 306 -329 l 64 -315 m 379 106 q 480 121 432 106 q 588 168 528 136 l 660 628 l 631 631 q 570 635 613 632 q 494 638 528 638 q 341 578 396 638 q 265 389 286 518 q 253 263 253 306 q 288 145 253 185 q 379 106 322 106 m 522 1067 l 618 1067 l 738 876 l 654 876 l 557 1003 l 411 876 l 328 876 l 522 1067 z "},"ģ":{"ha":790,"x_min":64,"x_max":814,"o":"m 64 -315 l 79 -219 l 308 -219 q 472 -183 407 -219 q 550 -65 536 -147 l 574 78 q 447 15 518 38 q 314 -8 376 -8 q 167 60 222 -8 q 113 240 113 129 q 129 406 113 297 q 253 669 158 588 q 515 751 347 751 q 684 741 606 751 q 814 715 763 731 l 686 -86 q 571 -272 665 -214 q 326 -329 476 -329 q 261 -326 306 -329 l 64 -315 m 379 106 q 480 121 432 106 q 588 168 528 136 l 660 628 l 631 631 q 570 635 613 632 q 494 638 528 638 q 341 578 396 638 q 265 389 286 518 q 253 263 253 306 q 288 145 253 185 q 379 106 322 106 m 443 863 q 499 1014 460 971 q 629 1057 539 1057 l 689 1057 l 679 1000 l 638 992 q 583 976 603 986 q 549 940 563 965 q 529 863 536 914 l 443 863 z "},"ġ":{"ha":790,"x_min":64,"x_max":814,"o":"m 64 -315 l 79 -219 l 308 -219 q 472 -183 407 -219 q 550 -65 536 -147 l 574 78 q 447 15 518 38 q 314 -8 376 -8 q 167 60 222 -8 q 113 240 113 129 q 129 406 113 297 q 253 669 158 588 q 515 751 347 751 q 684 741 606 751 q 814 715 763 731 l 686 -86 q 571 -272 665 -214 q 326 -329 476 -329 q 261 -326 306 -329 l 64 -315 m 379 106 q 480 121 432 106 q 588 168 528 136 l 660 628 l 631 631 q 570 635 613 632 q 494 638 528 638 q 341 578 396 638 q 265 389 286 518 q 253 263 253 306 q 288 145 253 185 q 379 106 322 106 m 503 910 q 489 915 494 910 q 483 931 483 921 l 483 933 l 503 1050 q 529 1075 504 1075 l 594 1075 q 614 1056 614 1075 l 614 1050 l 596 933 q 587 916 594 922 q 568 910 579 910 l 503 910 z "},"ḡ":{"ha":790,"x_min":64,"x_max":814,"o":"m 64 -315 l 79 -219 l 308 -219 q 472 -183 407 -219 q 550 -65 536 -147 l 574 78 q 447 15 518 38 q 314 -8 376 -8 q 167 60 222 -8 q 113 240 113 129 q 129 406 113 297 q 253 669 158 588 q 515 751 347 751 q 684 741 606 751 q 814 715 763 731 l 686 -86 q 571 -272 665 -214 q 326 -329 476 -329 q 261 -326 306 -329 l 64 -315 m 379 106 q 480 121 432 106 q 588 168 528 136 l 660 628 l 631 631 q 570 635 613 632 q 494 638 528 638 q 341 578 396 638 q 265 389 286 518 q 253 263 253 306 q 288 145 253 185 q 379 106 322 106 m 369 1006 l 744 1006 l 731 922 l 356 922 l 369 1006 z "},"h":{"ha":806,"x_min":89,"x_max":803,"o":"m 257 1060 l 396 1060 l 333 663 q 463 728 390 703 q 617 753 536 753 q 803 571 803 753 q 797 496 803 531 l 718 0 l 579 0 l 654 476 q 657 521 657 492 q 627 603 657 578 q 540 628 597 628 q 427 610 478 628 q 317 554 376 592 l 228 0 l 89 0 l 257 1060 z "},"ħ":{"ha":807,"x_min":89,"x_max":803,"o":"m 617 753 q 803 571 803 753 q 797 496 803 531 l 718 0 l 579 0 l 654 476 q 657 521 657 492 q 627 603 657 578 q 540 628 597 628 q 427 610 478 628 q 317 554 376 592 l 228 0 l 89 0 l 226 868 l 136 868 l 146 926 l 236 926 l 257 1060 l 396 1060 l 375 926 l 561 926 l 551 868 l 365 868 l 333 663 q 463 728 390 703 q 617 753 536 753 z "},"ḫ":{"ha":806,"x_min":89,"x_max":803,"o":"m 257 1060 l 396 1060 l 333 663 q 463 728 390 703 q 617 753 536 753 q 803 571 803 753 q 797 496 803 531 l 718 0 l 579 0 l 654 476 q 657 521 657 492 q 627 603 657 578 q 540 628 597 628 q 427 610 478 628 q 317 554 376 592 l 228 0 l 89 0 l 257 1060 m 358 -310 q 244 -274 286 -310 q 201 -161 201 -237 q 204 -110 201 -146 l 271 -110 q 268 -144 268 -135 q 296 -220 268 -196 q 367 -244 324 -244 q 460 -212 421 -244 q 510 -110 499 -181 l 576 -110 q 503 -262 561 -214 q 358 -310 444 -310 z "},"ĥ":{"ha":806,"x_min":89,"x_max":803,"o":"m 257 1060 l 396 1060 l 333 663 q 463 728 390 703 q 617 753 536 753 q 803 571 803 753 q 797 496 803 531 l 718 0 l 579 0 l 654 476 q 657 521 657 492 q 627 603 657 578 q 540 628 597 628 q 427 610 478 628 q 317 554 376 592 l 228 0 l 89 0 l 257 1060 m 436 1344 l 532 1344 l 651 1154 l 568 1154 l 471 1281 l 325 1154 l 242 1154 l 436 1344 z "},"ḥ":{"ha":806,"x_min":89,"x_max":803,"o":"m 257 1060 l 396 1060 l 333 663 q 463 728 390 703 q 617 753 536 753 q 803 571 803 753 q 797 496 803 531 l 718 0 l 579 0 l 654 476 q 657 521 657 492 q 627 603 657 578 q 540 628 597 628 q 427 610 478 628 q 317 554 376 592 l 228 0 l 89 0 l 257 1060 m 317 -299 q 303 -293 308 -299 q 297 -278 297 -287 l 297 -275 l 317 -158 q 343 -133 318 -133 l 408 -133 q 428 -153 428 -133 l 428 -158 l 410 -275 q 401 -292 408 -286 q 382 -299 393 -299 l 317 -299 z "},"i":{"ha":315,"x_min":89,"x_max":396,"o":"m 244 868 q 228 875 233 868 q 225 892 224 882 l 243 1008 q 271 1033 247 1033 l 375 1033 q 393 1008 396 1033 l 375 892 q 349 868 371 868 l 244 868 m 207 743 l 346 743 l 229 0 l 89 0 l 207 743 z "},"ı":{"ha":317,"x_min":89,"x_max":346,"o":"m 207 743 l 346 743 l 229 0 l 89 0 l 207 743 z "},"í":{"ha":317,"x_min":89,"x_max":533,"o":"m 207 743 l 346 743 l 229 0 l 89 0 l 207 743 m 411 1068 l 533 1068 l 340 876 l 253 876 l 411 1068 z "},"ĭ":{"ha":317,"x_min":89,"x_max":522,"o":"m 207 743 l 346 743 l 229 0 l 89 0 l 207 743 m 304 871 q 190 907 232 871 q 147 1019 147 943 q 150 1072 147 1033 l 217 1072 q 214 1036 214 1044 q 242 960 214 985 q 313 936 269 936 q 406 969 367 936 q 456 1072 444 1001 l 522 1072 q 449 919 507 967 q 304 871 390 871 z "},"î":{"ha":317,"x_min":89,"x_max":508,"o":"m 207 743 l 346 743 l 229 0 l 89 0 l 207 743 m 293 1067 l 389 1067 l 508 876 l 425 876 l 328 1003 l 182 876 l 99 876 l 293 1067 z "},"ȉ":{"ha":317,"x_min":38,"x_max":475,"o":"m 207 743 l 346 743 l 229 0 l 89 0 l 207 743 m 38 1068 l 153 1068 l 258 876 l 176 876 l 38 1068 m 254 1068 l 369 1068 l 475 876 l 393 876 l 254 1068 z "},"ï":{"ha":317,"x_min":89,"x_max":515,"o":"m 207 743 l 346 743 l 229 0 l 89 0 l 207 743 m 121 900 q 101 921 101 900 l 121 1040 q 149 1065 122 1065 l 213 1065 q 233 1046 233 1065 q 213 924 233 1051 q 204 906 211 913 q 186 900 197 900 l 121 900 m 403 900 q 383 921 383 900 l 403 1040 q 431 1065 404 1065 l 494 1065 q 515 1046 515 1065 q 496 924 515 1053 q 487 906 494 913 q 468 900 479 900 l 403 900 z "},"ḯ":{"ha":317,"x_min":89,"x_max":553,"o":"m 207 743 l 346 743 l 229 0 l 89 0 l 207 743 m 121 900 q 101 921 101 900 l 121 1040 q 149 1065 122 1065 l 213 1065 q 233 1046 233 1065 q 213 924 233 1051 q 204 906 211 913 q 186 900 197 900 l 121 900 m 403 900 q 383 921 383 900 l 403 1040 q 431 1065 404 1065 l 494 1065 q 515 1046 515 1065 q 496 924 515 1053 q 487 906 494 913 q 468 900 479 900 l 403 900 m 431 1315 l 553 1315 l 360 1124 l 272 1124 l 431 1315 z "},"ị":{"ha":315,"x_min":72,"x_max":393,"o":"m 244 868 q 228 875 233 868 q 225 892 224 882 l 243 1008 q 271 1033 247 1033 l 375 1033 q 393 1008 396 1033 l 375 892 q 349 868 371 868 l 244 868 m 207 743 l 346 743 l 229 0 l 89 0 l 207 743 m 92 -299 q 78 -293 83 -299 q 72 -278 72 -287 l 72 -275 l 92 -158 q 118 -133 93 -133 l 183 -133 q 203 -153 203 -133 l 203 -158 l 185 -275 q 176 -292 183 -286 q 157 -299 168 -299 l 92 -299 z "},"ì":{"ha":317,"x_min":89,"x_max":372,"o":"m 207 743 l 346 743 l 229 0 l 89 0 l 207 743 m 151 1068 l 267 1068 l 372 876 l 290 876 l 151 1068 z "},"ỉ":{"ha":317,"x_min":89,"x_max":431,"o":"m 207 743 l 346 743 l 229 0 l 89 0 l 207 743 m 271 897 q 354 985 354 922 q 303 1025 354 1025 q 253 1017 278 1025 l 261 1074 q 331 1083 292 1083 q 431 996 431 1083 q 260 833 431 881 l 271 897 z "},"ȋ":{"ha":317,"x_min":89,"x_max":486,"o":"m 207 743 l 346 743 l 229 0 l 89 0 l 207 743 m 111 874 q 185 1026 126 978 q 329 1074 243 1074 q 444 1038 401 1074 q 486 925 486 1001 q 483 874 486 910 l 417 874 q 419 908 419 899 q 392 984 419 960 q 319 1008 364 1008 q 228 976 267 1008 q 178 874 189 944 l 111 874 z "},"ī":{"ha":317,"x_min":89,"x_max":515,"o":"m 207 743 l 346 743 l 229 0 l 89 0 l 207 743 m 140 1006 l 515 1006 l 501 922 l 126 922 l 140 1006 z "},"į":{"ha":315,"x_min":51,"x_max":393,"o":"m 244 868 q 228 875 233 868 q 225 892 224 882 l 243 1008 q 271 1033 247 1033 l 375 1033 q 393 1008 396 1033 l 375 892 q 349 868 371 868 l 244 868 m 207 743 l 346 743 l 229 0 l 89 0 l 207 743 m 181 -261 q 85 -233 118 -261 q 51 -158 51 -204 q 83 -70 51 -112 q 175 0 114 -28 l 228 0 q 153 -59 179 -25 q 128 -121 128 -93 q 152 -172 128 -154 q 221 -190 176 -190 l 231 -190 l 219 -258 q 181 -261 200 -261 z "},"ĩ":{"ha":317,"x_min":67,"x_max":588,"o":"m 207 743 l 346 743 l 229 0 l 89 0 l 207 743 m 67 896 q 126 1013 83 976 q 228 1049 169 1049 q 283 1038 257 1049 q 343 1008 310 1028 q 394 983 376 990 q 432 975 413 975 q 488 996 465 975 q 518 1054 511 1017 l 588 1054 q 429 897 554 897 q 377 907 401 897 q 314 938 353 917 q 263 963 282 954 q 224 971 244 971 q 168 951 192 971 q 138 896 144 932 l 67 896 z "},"j":{"ha":315,"x_min":36,"x_max":396,"o":"m 244 868 q 228 875 233 868 q 225 892 224 882 l 243 1008 q 271 1033 247 1033 l 375 1033 q 393 1008 396 1033 l 375 892 q 349 868 371 868 l 244 868 m 207 743 l 346 743 l 228 -6 q 139 -329 206 -146 l 36 -329 l 207 743 z "},"ȷ":{"ha":317,"x_min":36,"x_max":346,"o":"m 207 743 l 346 743 l 228 -6 q 139 -329 206 -146 l 36 -329 l 207 743 z "},"ĵ":{"ha":317,"x_min":36,"x_max":508,"o":"m 207 743 l 346 743 l 228 -6 q 139 -329 206 -146 l 36 -329 l 207 743 m 293 1067 l 389 1067 l 508 876 l 425 876 l 328 1003 l 182 876 l 99 876 l 293 1067 z "},"k":{"ha":747,"x_min":89,"x_max":767,"o":"m 257 1060 l 396 1060 l 300 456 q 505 535 422 467 q 628 743 588 603 l 767 743 q 517 407 696 492 l 728 0 l 582 0 l 399 364 q 340 353 372 357 q 283 349 307 349 l 228 0 l 89 0 l 257 1060 z "},"ķ":{"ha":747,"x_min":89,"x_max":767,"o":"m 257 1060 l 396 1060 l 300 456 q 505 535 422 467 q 628 743 588 603 l 767 743 q 517 407 696 492 l 728 0 l 582 0 l 399 364 q 340 353 372 357 q 283 349 307 349 l 228 0 l 89 0 l 257 1060 m 233 -229 l 274 -222 q 329 -205 310 -215 q 362 -169 349 -194 q 382 -92 375 -143 l 468 -92 q 437 -206 457 -165 q 380 -267 417 -247 q 282 -286 343 -286 l 224 -286 l 233 -229 z "},"ĸ":{"ha":747,"x_min":88,"x_max":767,"o":"m 206 743 l 344 743 l 297 440 q 502 523 419 451 q 626 743 585 594 l 767 743 q 660 515 725 597 q 514 392 596 433 l 726 0 l 582 0 l 396 349 q 337 338 369 342 q 281 333 304 333 l 228 0 l 88 0 l 206 743 z "},"l":{"ha":419,"x_min":119,"x_max":410,"o":"m 308 0 q 168 41 217 0 q 119 154 119 82 q 129 256 119 203 l 257 1060 l 396 1060 l 275 299 q 269 251 274 288 q 264 192 264 215 q 283 131 264 149 q 343 108 303 113 l 410 100 l 393 0 l 308 0 z "},"ĺ":{"ha":419,"x_min":119,"x_max":581,"o":"m 308 0 q 168 41 217 0 q 119 154 119 82 q 129 256 119 203 l 257 1060 l 396 1060 l 275 299 q 269 251 274 288 q 264 192 264 215 q 283 131 264 149 q 343 108 303 113 l 410 100 l 393 0 l 308 0 m 458 1346 l 581 1346 l 388 1154 l 300 1154 l 458 1346 z "},"ľ":{"ha":419,"x_min":119,"x_max":604,"o":"m 308 0 q 168 41 217 0 q 119 154 119 82 q 129 256 119 203 l 257 1060 l 396 1060 l 275 299 q 269 251 274 288 q 264 192 264 215 q 283 131 264 149 q 343 108 303 113 l 410 100 l 393 0 l 308 0 m 461 1000 l 475 1093 l 604 1093 l 589 1000 l 547 796 l 443 796 l 461 1000 z "},"ļ":{"ha":419,"x_min":89,"x_max":410,"o":"m 308 0 q 168 41 217 0 q 119 154 119 82 q 129 256 119 203 l 257 1060 l 396 1060 l 275 299 q 269 251 274 288 q 264 192 264 215 q 283 131 264 149 q 343 108 303 113 l 410 100 l 393 0 l 308 0 m 99 -229 l 139 -222 q 194 -205 175 -215 q 227 -169 214 -194 q 247 -92 240 -143 l 333 -92 q 302 -206 322 -165 q 245 -267 282 -247 q 147 -286 208 -286 l 89 -286 l 99 -229 z "},"ŀ":{"ha":453,"x_min":119,"x_max":561,"o":"m 308 0 q 168 41 217 0 q 119 154 119 82 q 129 256 119 203 l 257 1060 l 396 1060 l 275 299 q 269 251 274 288 q 264 192 264 215 q 283 131 264 149 q 343 108 303 113 l 410 100 l 393 0 l 308 0 m 440 507 q 424 513 431 507 q 419 531 418 519 l 433 614 q 461 639 436 639 l 540 639 q 561 614 565 639 l 547 531 q 519 507 543 507 l 440 507 z "},"ḷ":{"ha":419,"x_min":119,"x_max":410,"o":"m 308 0 q 168 41 217 0 q 119 154 119 82 q 129 256 119 203 l 257 1060 l 396 1060 l 275 299 q 269 251 274 288 q 264 192 264 215 q 283 131 264 149 q 343 108 303 113 l 410 100 l 393 0 l 308 0 m 172 -299 q 158 -293 164 -299 q 153 -278 153 -287 l 153 -275 l 172 -158 q 199 -133 174 -133 l 264 -133 q 283 -153 283 -133 l 283 -158 l 265 -275 q 256 -292 264 -286 q 238 -299 249 -299 l 172 -299 z "},"ḻ":{"ha":419,"x_min":35,"x_max":424,"o":"m 308 0 q 168 41 217 0 q 119 154 119 82 q 129 256 119 203 l 257 1060 l 396 1060 l 275 299 q 269 251 274 288 q 264 192 264 215 q 283 131 264 149 q 343 108 303 113 l 410 100 l 393 0 l 308 0 m 49 -189 l 424 -189 l 410 -272 l 35 -272 l 49 -189 z "},"ł":{"ha":419,"x_min":72,"x_max":475,"o":"m 275 299 q 269 251 274 288 q 264 192 264 215 q 283 131 264 149 q 343 108 303 113 l 410 100 l 393 0 l 308 0 q 168 41 217 0 q 119 154 119 82 q 129 256 119 203 l 172 522 l 72 488 l 83 567 l 185 601 l 257 1060 l 396 1060 l 331 647 l 475 697 l 464 618 l 318 568 l 275 299 z "},"m":{"ha":1296,"x_min":89,"x_max":1293,"o":"m 206 743 l 319 743 l 333 663 q 614 753 469 753 q 730 726 688 753 q 797 642 772 699 q 941 724 861 694 q 1096 753 1021 753 q 1293 574 1293 753 q 1285 483 1293 524 l 1208 0 l 1068 0 l 1144 481 q 1149 519 1149 497 q 1028 628 1149 628 q 911 607 965 628 q 797 546 857 586 q 793 471 800 510 l 718 0 l 579 0 l 654 472 q 658 521 658 501 q 539 628 658 628 q 428 610 476 628 q 317 554 381 592 l 228 0 l 89 0 l 206 743 z "},"ṁ":{"ha":1296,"x_min":89,"x_max":1293,"o":"m 206 743 l 319 743 l 333 663 q 614 753 469 753 q 730 726 688 753 q 797 642 772 699 q 941 724 861 694 q 1096 753 1021 753 q 1293 574 1293 753 q 1285 483 1293 524 l 1208 0 l 1068 0 l 1144 481 q 1149 519 1149 497 q 1028 628 1149 628 q 911 607 965 628 q 797 546 857 586 q 793 471 800 510 l 718 0 l 579 0 l 654 472 q 658 521 658 501 q 539 628 658 628 q 428 610 476 628 q 317 554 381 592 l 228 0 l 89 0 l 206 743 m 760 910 q 746 915 751 910 q 740 931 740 921 l 740 933 l 760 1050 q 786 1075 761 1075 l 851 1075 q 871 1056 871 1075 l 871 1050 l 853 933 q 844 916 851 922 q 825 910 836 910 l 760 910 z "},"ṃ":{"ha":1296,"x_min":89,"x_max":1293,"o":"m 206 743 l 319 743 l 333 663 q 614 753 469 753 q 730 726 688 753 q 797 642 772 699 q 941 724 861 694 q 1096 753 1021 753 q 1293 574 1293 753 q 1285 483 1293 524 l 1208 0 l 1068 0 l 1144 481 q 1149 519 1149 497 q 1028 628 1149 628 q 911 607 965 628 q 797 546 857 586 q 793 471 800 510 l 718 0 l 579 0 l 654 472 q 658 521 658 501 q 539 628 658 628 q 428 610 476 628 q 317 554 381 592 l 228 0 l 89 0 l 206 743 m 567 -299 q 553 -293 558 -299 q 547 -278 547 -287 l 547 -275 l 567 -158 q 593 -133 568 -133 l 658 -133 q 678 -153 678 -133 l 678 -158 l 660 -275 q 651 -292 658 -286 q 632 -299 643 -299 l 567 -299 z "},"n":{"ha":806,"x_min":89,"x_max":803,"o":"m 206 743 l 319 743 l 333 663 q 464 728 392 704 q 613 753 536 753 q 756 706 708 753 q 803 581 803 658 q 789 443 803 529 l 718 0 l 579 0 l 649 439 q 658 521 658 511 q 539 628 658 628 q 427 610 478 628 q 317 554 376 592 l 228 0 l 89 0 l 206 743 z "},"ń":{"ha":806,"x_min":89,"x_max":803,"o":"m 206 743 l 319 743 l 333 663 q 464 728 392 704 q 613 753 536 753 q 756 706 708 753 q 803 581 803 658 q 789 443 803 529 l 718 0 l 579 0 l 649 439 q 658 521 658 511 q 539 628 658 628 q 427 610 478 628 q 317 554 376 592 l 228 0 l 89 0 l 206 743 m 649 1068 l 771 1068 l 578 876 l 490 876 l 649 1068 z "},"ň":{"ha":806,"x_min":89,"x_max":803,"o":"m 206 743 l 319 743 l 333 663 q 464 728 392 704 q 613 753 536 753 q 756 706 708 753 q 803 581 803 658 q 789 443 803 529 l 718 0 l 579 0 l 649 439 q 658 521 658 511 q 539 628 658 628 q 427 610 478 628 q 317 554 376 592 l 228 0 l 89 0 l 206 743 m 383 1067 l 467 1067 l 561 942 l 708 1067 l 792 1067 l 599 876 l 501 876 l 383 1067 z "},"ņ":{"ha":806,"x_min":89,"x_max":803,"o":"m 206 743 l 319 743 l 333 663 q 464 728 392 704 q 613 753 536 753 q 756 706 708 753 q 803 581 803 658 q 789 443 803 529 l 718 0 l 579 0 l 649 439 q 658 521 658 511 q 539 628 658 628 q 427 610 478 628 q 317 554 376 592 l 228 0 l 89 0 l 206 743 m 244 -229 l 285 -222 q 340 -205 321 -215 q 373 -169 360 -194 q 393 -92 386 -143 l 479 -92 q 448 -206 468 -165 q 391 -267 428 -247 q 293 -286 354 -286 l 235 -286 l 244 -229 z "},"ṅ":{"ha":806,"x_min":89,"x_max":803,"o":"m 206 743 l 319 743 l 333 663 q 464 728 392 704 q 613 753 536 753 q 756 706 708 753 q 803 581 803 658 q 789 443 803 529 l 718 0 l 579 0 l 649 439 q 658 521 658 511 q 539 628 658 628 q 427 610 478 628 q 317 554 376 592 l 228 0 l 89 0 l 206 743 m 318 -299 q 304 -293 310 -299 q 299 -278 299 -287 l 299 -275 l 318 -158 q 344 -133 319 -133 l 410 -133 q 429 -153 429 -133 l 429 -158 l 411 -275 q 402 -292 410 -286 q 383 -299 394 -299 l 318 -299 z "},"ṇ":{"ha":806,"x_min":89,"x_max":803,"o":"m 206 743 l 319 743 l 333 663 q 464 728 392 704 q 613 753 536 753 q 756 706 708 753 q 803 581 803 658 q 789 443 803 529 l 718 0 l 579 0 l 649 439 q 658 521 658 511 q 539 628 658 628 q 427 610 478 628 q 317 554 376 592 l 228 0 l 89 0 l 206 743 m 318 -299 q 304 -293 310 -299 q 299 -278 299 -287 l 299 -275 l 318 -158 q 344 -133 319 -133 l 410 -133 q 429 -153 429 -133 l 429 -158 l 411 -275 q 402 -292 410 -286 q 383 -299 394 -299 l 318 -299 z "},"ŋ":{"ha":806,"x_min":89,"x_max":803,"o":"m 803 581 q 789 443 803 529 l 724 33 l 714 -28 q 638 -217 697 -140 q 493 -329 579 -294 l 381 -329 q 507 -214 458 -285 q 574 -32 556 -143 l 581 10 l 649 439 q 658 521 658 511 q 539 628 658 628 q 427 610 478 628 q 317 554 376 592 l 228 0 l 89 0 l 206 743 l 319 743 l 333 663 q 464 728 392 704 q 613 753 536 753 q 756 706 708 753 q 803 581 803 658 z "},"ṉ":{"ha":806,"x_min":89,"x_max":803,"o":"m 206 743 l 319 743 l 333 663 q 464 728 392 704 q 613 753 536 753 q 756 706 708 753 q 803 581 803 658 q 789 443 803 529 l 718 0 l 579 0 l 649 439 q 658 521 658 511 q 539 628 658 628 q 427 610 478 628 q 317 554 376 592 l 228 0 l 89 0 l 206 743 m 194 -189 l 569 -189 l 556 -272 l 181 -272 l 194 -189 z "},"ñ":{"ha":806,"x_min":89,"x_max":825,"o":"m 206 743 l 319 743 l 333 663 q 464 728 392 704 q 613 753 536 753 q 756 706 708 753 q 803 581 803 658 q 789 443 803 529 l 718 0 l 579 0 l 649 439 q 658 521 658 511 q 539 628 658 628 q 427 610 478 628 q 317 554 376 592 l 228 0 l 89 0 l 206 743 m 304 896 q 364 1013 321 976 q 465 1049 407 1049 q 521 1038 494 1049 q 581 1008 547 1028 q 632 983 614 990 q 669 975 650 975 q 726 996 703 975 q 756 1054 749 1017 l 825 1054 q 667 897 792 897 q 615 907 639 897 q 551 938 590 917 q 501 963 519 954 q 461 971 482 971 q 406 951 429 971 q 375 896 382 932 l 304 896 z "},"o":{"ha":790,"x_min":114,"x_max":792,"o":"m 394 -8 q 114 246 114 -8 q 125 383 114 310 q 194 610 149 531 q 315 720 240 689 q 514 751 390 751 q 680 723 619 751 q 766 637 740 694 q 792 488 792 579 q 779 339 792 421 q 713 128 758 203 q 591 22 667 53 q 394 -8 515 -8 m 410 106 q 525 126 482 106 q 596 201 568 146 q 640 361 624 256 q 653 493 653 456 q 617 607 653 574 q 494 640 581 640 q 376 617 419 640 q 307 535 333 594 q 263 361 281 476 q 253 251 253 301 q 292 136 253 167 q 410 106 331 106 z "},"ó":{"ha":790,"x_min":114,"x_max":792,"o":"m 394 -8 q 114 246 114 -8 q 125 383 114 310 q 194 610 149 531 q 315 720 240 689 q 514 751 390 751 q 680 723 619 751 q 766 637 740 694 q 792 488 792 579 q 779 339 792 421 q 713 128 758 203 q 591 22 667 53 q 394 -8 515 -8 m 410 106 q 525 126 482 106 q 596 201 568 146 q 640 361 624 256 q 653 493 653 456 q 617 607 653 574 q 494 640 581 640 q 376 617 419 640 q 307 535 333 594 q 263 361 281 476 q 253 251 253 301 q 292 136 253 167 q 410 106 331 106 m 635 1068 l 757 1068 l 564 876 l 476 876 l 635 1068 z "},"ŏ":{"ha":790,"x_min":114,"x_max":792,"o":"m 394 -8 q 114 246 114 -8 q 125 383 114 310 q 194 610 149 531 q 315 720 240 689 q 514 751 390 751 q 680 723 619 751 q 766 637 740 694 q 792 488 792 579 q 779 339 792 421 q 713 128 758 203 q 591 22 667 53 q 394 -8 515 -8 m 410 106 q 525 126 482 106 q 596 201 568 146 q 640 361 624 256 q 653 493 653 456 q 617 607 653 574 q 494 640 581 640 q 376 617 419 640 q 307 535 333 594 q 263 361 281 476 q 253 251 253 301 q 292 136 253 167 q 410 106 331 106 m 528 871 q 413 907 456 871 q 371 1019 371 943 q 374 1072 371 1033 l 440 1072 q 438 1036 438 1044 q 465 960 438 985 q 536 936 493 936 q 629 969 590 936 q 679 1072 668 1001 l 746 1072 q 672 919 731 967 q 528 871 614 871 z "},"ô":{"ha":790,"x_min":114,"x_max":792,"o":"m 394 -8 q 114 246 114 -8 q 125 383 114 310 q 194 610 149 531 q 315 720 240 689 q 514 751 390 751 q 680 723 619 751 q 766 637 740 694 q 792 488 792 579 q 779 339 792 421 q 713 128 758 203 q 591 22 667 53 q 394 -8 515 -8 m 410 106 q 525 126 482 106 q 596 201 568 146 q 640 361 624 256 q 653 493 653 456 q 617 607 653 574 q 494 640 581 640 q 376 617 419 640 q 307 535 333 594 q 263 361 281 476 q 253 251 253 301 q 292 136 253 167 q 410 106 331 106 m 517 1067 l 613 1067 l 732 876 l 649 876 l 551 1003 l 406 876 l 322 876 l 517 1067 z "},"ố":{"ha":790,"x_min":114,"x_max":901,"o":"m 394 -8 q 114 246 114 -8 q 125 383 114 310 q 194 610 149 531 q 315 720 240 689 q 514 751 390 751 q 680 723 619 751 q 766 637 740 694 q 792 488 792 579 q 779 339 792 421 q 713 128 758 203 q 591 22 667 53 q 394 -8 515 -8 m 410 106 q 525 126 482 106 q 596 201 568 146 q 640 361 624 256 q 653 493 653 456 q 617 607 653 574 q 494 640 581 640 q 376 617 419 640 q 307 535 333 594 q 263 361 281 476 q 253 251 253 301 q 292 136 253 167 q 410 106 331 106 m 792 1165 l 901 1165 l 735 986 l 660 986 l 792 1165 m 494 1018 l 592 1018 l 718 876 l 635 876 l 531 953 l 393 876 l 310 876 l 494 1018 z "},"ộ":{"ha":790,"x_min":114,"x_max":792,"o":"m 394 -8 q 114 246 114 -8 q 125 383 114 310 q 194 610 149 531 q 315 720 240 689 q 514 751 390 751 q 680 723 619 751 q 766 637 740 694 q 792 488 792 579 q 779 339 792 421 q 713 128 758 203 q 591 22 667 53 q 394 -8 515 -8 m 410 106 q 525 126 482 106 q 596 201 568 146 q 640 361 624 256 q 653 493 653 456 q 617 607 653 574 q 494 640 581 640 q 376 617 419 640 q 307 535 333 594 q 263 361 281 476 q 253 251 253 301 q 292 136 253 167 q 410 106 331 106 m 517 1067 l 613 1067 l 732 876 l 649 876 l 551 1003 l 406 876 l 322 876 l 517 1067 m 304 -299 q 290 -293 296 -299 q 285 -278 285 -287 l 285 -275 l 304 -158 q 331 -133 306 -133 l 396 -133 q 415 -153 415 -133 l 415 -158 l 397 -275 q 388 -292 396 -286 q 369 -299 381 -299 l 304 -299 z "},"ồ":{"ha":790,"x_min":114,"x_max":792,"o":"m 394 -8 q 114 246 114 -8 q 125 383 114 310 q 194 610 149 531 q 315 720 240 689 q 514 751 390 751 q 680 723 619 751 q 766 637 740 694 q 792 488 792 579 q 779 339 792 421 q 713 128 758 203 q 591 22 667 53 q 394 -8 515 -8 m 410 106 q 525 126 482 106 q 596 201 568 146 q 640 361 624 256 q 653 493 653 456 q 617 607 653 574 q 494 640 581 640 q 376 617 419 640 q 307 535 333 594 q 263 361 281 476 q 253 251 253 301 q 292 136 253 167 q 410 106 331 106 m 228 1165 l 338 1165 l 413 986 l 338 986 l 228 1165 m 489 1018 l 586 1018 l 713 876 l 629 876 l 525 953 l 386 876 l 303 876 l 489 1018 z "},"ổ":{"ha":790,"x_min":114,"x_max":839,"o":"m 394 -8 q 114 246 114 -8 q 125 383 114 310 q 194 610 149 531 q 315 720 240 689 q 514 751 390 751 q 680 723 619 751 q 766 637 740 694 q 792 488 792 579 q 779 339 792 421 q 713 128 758 203 q 591 22 667 53 q 394 -8 515 -8 m 410 106 q 525 126 482 106 q 596 201 568 146 q 640 361 624 256 q 653 493 653 456 q 617 607 653 574 q 494 640 581 640 q 376 617 419 640 q 307 535 333 594 q 263 361 281 476 q 253 251 253 301 q 292 136 253 167 q 410 106 331 106 m 694 1007 q 767 1082 767 1032 q 724 1114 767 1114 q 674 1106 696 1114 l 682 1163 q 749 1174 718 1174 q 839 1097 839 1174 q 686 950 839 992 l 694 1007 m 499 1018 l 596 1018 l 722 876 l 639 876 l 535 953 l 397 876 l 313 876 l 499 1018 z "},"ỗ":{"ha":790,"x_min":114,"x_max":796,"o":"m 394 -8 q 114 246 114 -8 q 125 383 114 310 q 194 610 149 531 q 315 720 240 689 q 514 751 390 751 q 680 723 619 751 q 766 637 740 694 q 792 488 792 579 q 779 339 792 421 q 713 128 758 203 q 591 22 667 53 q 394 -8 515 -8 m 410 106 q 525 126 482 106 q 596 201 568 146 q 640 361 624 256 q 653 493 653 456 q 617 607 653 574 q 494 640 581 640 q 376 617 419 640 q 307 535 333 594 q 263 361 281 476 q 253 251 253 301 q 292 136 253 167 q 410 106 331 106 m 321 1079 q 468 1203 347 1203 q 517 1195 494 1203 q 569 1174 539 1188 q 612 1156 594 1163 q 649 1150 629 1150 q 700 1165 679 1150 q 725 1207 721 1179 l 796 1207 q 745 1110 782 1140 q 647 1081 708 1081 q 599 1088 622 1081 q 549 1108 576 1094 q 502 1127 519 1121 q 467 1133 485 1133 q 417 1119 438 1133 q 392 1079 397 1104 l 321 1079 m 499 1018 l 596 1018 l 721 876 l 638 876 l 535 953 l 396 876 l 313 876 l 499 1018 z "},"ȍ":{"ha":790,"x_min":114,"x_max":792,"o":"m 394 -8 q 114 246 114 -8 q 125 383 114 310 q 194 610 149 531 q 315 720 240 689 q 514 751 390 751 q 680 723 619 751 q 766 637 740 694 q 792 488 792 579 q 779 339 792 421 q 713 128 758 203 q 591 22 667 53 q 394 -8 515 -8 m 410 106 q 525 126 482 106 q 596 201 568 146 q 640 361 624 256 q 653 493 653 456 q 617 607 653 574 q 494 640 581 640 q 376 617 419 640 q 307 535 333 594 q 263 361 281 476 q 253 251 253 301 q 292 136 253 167 q 410 106 331 106 m 261 1068 l 376 1068 l 482 876 l 400 876 l 261 1068 m 478 1068 l 593 1068 l 699 876 l 617 876 l 478 1068 z "},"ö":{"ha":790,"x_min":114,"x_max":792,"o":"m 394 -8 q 114 246 114 -8 q 125 383 114 310 q 194 610 149 531 q 315 720 240 689 q 514 751 390 751 q 680 723 619 751 q 766 637 740 694 q 792 488 792 579 q 779 339 792 421 q 713 128 758 203 q 591 22 667 53 q 394 -8 515 -8 m 410 106 q 525 126 482 106 q 596 201 568 146 q 640 361 624 256 q 653 493 653 456 q 617 607 653 574 q 494 640 581 640 q 376 617 419 640 q 307 535 333 594 q 263 361 281 476 q 253 251 253 301 q 292 136 253 167 q 410 106 331 106 m 344 900 q 325 921 325 900 l 344 1040 q 372 1065 346 1065 l 436 1065 q 457 1046 457 1065 q 436 924 457 1051 q 428 906 435 913 q 410 900 421 900 l 344 900 m 626 900 q 607 921 607 900 l 626 1040 q 654 1065 628 1065 l 718 1065 q 739 1046 739 1065 q 719 924 739 1053 q 710 906 718 913 q 692 900 703 900 l 626 900 z "},"ȫ":{"ha":790,"x_min":114,"x_max":792,"o":"m 394 -8 q 114 246 114 -8 q 125 383 114 310 q 194 610 149 531 q 315 720 240 689 q 514 751 390 751 q 680 723 619 751 q 766 637 740 694 q 792 488 792 579 q 779 339 792 421 q 713 128 758 203 q 591 22 667 53 q 394 -8 515 -8 m 410 106 q 525 126 482 106 q 596 201 568 146 q 640 361 624 256 q 653 493 653 456 q 617 607 653 574 q 494 640 581 640 q 376 617 419 640 q 307 535 333 594 q 263 361 281 476 q 253 251 253 301 q 292 136 253 167 q 410 106 331 106 m 343 888 q 324 908 324 888 l 343 1028 q 371 1053 344 1053 l 435 1053 q 456 1033 456 1053 q 435 911 456 1039 q 426 894 433 900 q 408 888 419 888 l 343 888 m 625 888 q 606 908 606 888 l 625 1028 q 653 1053 626 1053 l 717 1053 q 738 1033 738 1053 q 718 911 738 1040 q 709 894 717 900 q 690 888 701 888 l 625 888 m 378 1219 l 753 1219 l 739 1136 l 364 1136 l 378 1219 z "},"ȱ":{"ha":790,"x_min":114,"x_max":792,"o":"m 394 -8 q 114 246 114 -8 q 125 383 114 310 q 194 610 149 531 q 315 720 240 689 q 514 751 390 751 q 680 723 619 751 q 766 637 740 694 q 792 488 792 579 q 779 339 792 421 q 713 128 758 203 q 591 22 667 53 q 394 -8 515 -8 m 410 106 q 525 126 482 106 q 596 201 568 146 q 640 361 624 256 q 653 493 653 456 q 617 607 653 574 q 494 640 581 640 q 376 617 419 640 q 307 535 333 594 q 263 361 281 476 q 253 251 253 301 q 292 136 253 167 q 410 106 331 106 m 493 890 q 479 896 485 890 q 474 911 474 901 l 474 914 l 493 1031 q 519 1056 494 1056 l 585 1056 q 604 1036 604 1056 l 604 1031 l 586 914 q 577 897 585 903 q 558 890 569 890 l 493 890 m 388 1219 l 763 1219 l 749 1136 l 374 1136 l 388 1219 z "},"ọ":{"ha":790,"x_min":114,"x_max":792,"o":"m 394 -8 q 114 246 114 -8 q 125 383 114 310 q 194 610 149 531 q 315 720 240 689 q 514 751 390 751 q 680 723 619 751 q 766 637 740 694 q 792 488 792 579 q 779 339 792 421 q 713 128 758 203 q 591 22 667 53 q 394 -8 515 -8 m 410 106 q 525 126 482 106 q 596 201 568 146 q 640 361 624 256 q 653 493 653 456 q 617 607 653 574 q 494 640 581 640 q 376 617 419 640 q 307 535 333 594 q 263 361 281 476 q 253 251 253 301 q 292 136 253 167 q 410 106 331 106 m 304 -299 q 290 -293 296 -299 q 285 -278 285 -287 l 285 -275 l 304 -158 q 331 -133 306 -133 l 396 -133 q 415 -153 415 -133 l 415 -158 l 397 -275 q 388 -292 396 -286 q 369 -299 381 -299 l 304 -299 z "},"ò":{"ha":790,"x_min":114,"x_max":792,"o":"m 394 -8 q 114 246 114 -8 q 125 383 114 310 q 194 610 149 531 q 315 720 240 689 q 514 751 390 751 q 680 723 619 751 q 766 637 740 694 q 792 488 792 579 q 779 339 792 421 q 713 128 758 203 q 591 22 667 53 q 394 -8 515 -8 m 410 106 q 525 126 482 106 q 596 201 568 146 q 640 361 624 256 q 653 493 653 456 q 617 607 653 574 q 494 640 581 640 q 376 617 419 640 q 307 535 333 594 q 263 361 281 476 q 253 251 253 301 q 292 136 253 167 q 410 106 331 106 m 375 1068 l 490 1068 l 596 876 l 514 876 l 375 1068 z "},"ỏ":{"ha":790,"x_min":114,"x_max":792,"o":"m 394 -8 q 114 246 114 -8 q 125 383 114 310 q 194 610 149 531 q 315 720 240 689 q 514 751 390 751 q 680 723 619 751 q 766 637 740 694 q 792 488 792 579 q 779 339 792 421 q 713 128 758 203 q 591 22 667 53 q 394 -8 515 -8 m 410 106 q 525 126 482 106 q 596 201 568 146 q 640 361 624 256 q 653 493 653 456 q 617 607 653 574 q 494 640 581 640 q 376 617 419 640 q 307 535 333 594 q 263 361 281 476 q 253 251 253 301 q 292 136 253 167 q 410 106 331 106 m 494 897 q 578 985 578 922 q 526 1025 578 1025 q 476 1017 501 1025 l 485 1074 q 554 1083 515 1083 q 654 996 654 1083 q 483 833 654 881 l 494 897 z "},"ơ":{"ha":803,"x_min":114,"x_max":907,"o":"m 907 899 q 849 746 892 801 q 744 672 806 690 q 792 488 792 614 q 779 339 792 421 q 713 128 758 203 q 591 22 667 53 q 394 -8 515 -8 q 114 246 114 -8 q 125 383 114 310 q 194 610 149 531 q 315 720 240 689 q 514 751 390 751 q 614 743 569 751 l 676 743 q 762 779 729 743 q 807 899 794 815 l 907 899 m 640 361 q 653 493 653 456 q 617 607 653 574 q 494 640 581 640 q 376 617 419 640 q 307 535 333 594 q 263 361 281 476 q 253 251 253 301 q 292 136 253 167 q 410 106 331 106 q 525 126 482 106 q 596 201 568 146 q 640 361 624 256 z "},"ớ":{"ha":803,"x_min":114,"x_max":907,"o":"m 907 899 q 849 746 892 801 q 744 672 806 690 q 792 488 792 614 q 779 339 792 421 q 713 128 758 203 q 591 22 667 53 q 394 -8 515 -8 q 114 246 114 -8 q 125 383 114 310 q 194 610 149 531 q 315 720 240 689 q 514 751 390 751 q 614 743 569 751 l 676 743 q 762 779 729 743 q 807 899 794 815 l 907 899 m 640 361 q 653 493 653 456 q 617 607 653 574 q 494 640 581 640 q 376 617 419 640 q 307 535 333 594 q 263 361 281 476 q 253 251 253 301 q 292 136 253 167 q 410 106 331 106 q 525 126 482 106 q 596 201 568 146 q 640 361 624 256 m 615 1068 l 738 1068 l 544 876 l 457 876 l 615 1068 z "},"ợ":{"ha":803,"x_min":114,"x_max":907,"o":"m 907 899 q 849 746 892 801 q 744 672 806 690 q 792 488 792 614 q 779 339 792 421 q 713 128 758 203 q 591 22 667 53 q 394 -8 515 -8 q 114 246 114 -8 q 125 383 114 310 q 194 610 149 531 q 315 720 240 689 q 514 751 390 751 q 614 743 569 751 l 676 743 q 762 779 729 743 q 807 899 794 815 l 907 899 m 640 361 q 653 493 653 456 q 617 607 653 574 q 494 640 581 640 q 376 617 419 640 q 307 535 333 594 q 263 361 281 476 q 253 251 253 301 q 292 136 253 167 q 410 106 331 106 q 525 126 482 106 q 596 201 568 146 q 640 361 624 256 m 318 -299 q 304 -293 310 -299 q 299 -278 299 -287 l 299 -275 l 318 -158 q 344 -133 319 -133 l 410 -133 q 429 -153 429 -133 l 429 -158 l 411 -275 q 402 -292 410 -286 q 383 -299 394 -299 l 318 -299 z "},"ờ":{"ha":803,"x_min":114,"x_max":907,"o":"m 907 899 q 849 746 892 801 q 744 672 806 690 q 792 488 792 614 q 779 339 792 421 q 713 128 758 203 q 591 22 667 53 q 394 -8 515 -8 q 114 246 114 -8 q 125 383 114 310 q 194 610 149 531 q 315 720 240 689 q 514 751 390 751 q 614 743 569 751 l 676 743 q 762 779 729 743 q 807 899 794 815 l 907 899 m 640 361 q 653 493 653 456 q 617 607 653 574 q 494 640 581 640 q 376 617 419 640 q 307 535 333 594 q 263 361 281 476 q 253 251 253 301 q 292 136 253 167 q 410 106 331 106 q 525 126 482 106 q 596 201 568 146 q 640 361 624 256 m 356 1068 l 471 1068 l 576 876 l 494 876 l 356 1068 z "},"ở":{"ha":803,"x_min":114,"x_max":907,"o":"m 907 899 q 849 746 892 801 q 744 672 806 690 q 792 488 792 614 q 779 339 792 421 q 713 128 758 203 q 591 22 667 53 q 394 -8 515 -8 q 114 246 114 -8 q 125 383 114 310 q 194 610 149 531 q 315 720 240 689 q 514 751 390 751 q 614 743 569 751 l 676 743 q 762 779 729 743 q 807 899 794 815 l 907 899 m 640 361 q 653 493 653 456 q 617 607 653 574 q 494 640 581 640 q 376 617 419 640 q 307 535 333 594 q 263 361 281 476 q 253 251 253 301 q 292 136 253 167 q 410 106 331 106 q 525 126 482 106 q 596 201 568 146 q 640 361 624 256 m 475 897 q 558 985 558 922 q 507 1025 558 1025 q 457 1017 482 1025 l 465 1074 q 535 1083 496 1083 q 635 996 635 1083 q 464 833 635 881 l 475 897 z "},"ỡ":{"ha":803,"x_min":114,"x_max":907,"o":"m 907 899 q 849 746 892 801 q 744 672 806 690 q 792 488 792 614 q 779 339 792 421 q 713 128 758 203 q 591 22 667 53 q 394 -8 515 -8 q 114 246 114 -8 q 125 383 114 310 q 194 610 149 531 q 315 720 240 689 q 514 751 390 751 q 614 743 569 751 l 676 743 q 762 779 729 743 q 807 899 794 815 l 907 899 m 640 361 q 653 493 653 456 q 617 607 653 574 q 494 640 581 640 q 376 617 419 640 q 307 535 333 594 q 263 361 281 476 q 253 251 253 301 q 292 136 253 167 q 410 106 331 106 q 525 126 482 106 q 596 201 568 146 q 640 361 624 256 m 271 896 q 331 1013 288 976 q 432 1049 374 1049 q 488 1038 461 1049 q 547 1008 514 1028 q 599 983 581 990 q 636 975 617 975 q 692 996 669 975 q 722 1054 715 1017 l 792 1054 q 633 897 758 897 q 581 907 606 897 q 518 938 557 917 q 467 963 486 954 q 428 971 449 971 q 372 951 396 971 q 342 896 349 932 l 271 896 z "},"ő":{"ha":790,"x_min":114,"x_max":843,"o":"m 394 -8 q 114 246 114 -8 q 125 383 114 310 q 194 610 149 531 q 315 720 240 689 q 514 751 390 751 q 680 723 619 751 q 766 637 740 694 q 792 488 792 579 q 779 339 792 421 q 713 128 758 203 q 591 22 667 53 q 394 -8 515 -8 m 410 106 q 525 126 482 106 q 596 201 568 146 q 640 361 624 256 q 653 493 653 456 q 617 607 653 574 q 494 640 581 640 q 376 617 419 640 q 307 535 333 594 q 263 361 281 476 q 253 251 253 301 q 292 136 253 167 q 410 106 331 106 m 518 1068 l 628 1068 l 442 876 l 360 876 l 518 1068 m 733 1068 l 843 1068 l 656 876 l 574 876 l 733 1068 z "},"ȏ":{"ha":790,"x_min":114,"x_max":792,"o":"m 394 -8 q 114 246 114 -8 q 125 383 114 310 q 194 610 149 531 q 315 720 240 689 q 514 751 390 751 q 680 723 619 751 q 766 637 740 694 q 792 488 792 579 q 779 339 792 421 q 713 128 758 203 q 591 22 667 53 q 394 -8 515 -8 m 410 106 q 525 126 482 106 q 596 201 568 146 q 640 361 624 256 q 653 493 653 456 q 617 607 653 574 q 494 640 581 640 q 376 617 419 640 q 307 535 333 594 q 263 361 281 476 q 253 251 253 301 q 292 136 253 167 q 410 106 331 106 m 335 874 q 408 1026 350 978 q 553 1074 467 1074 q 667 1038 625 1074 q 710 925 710 1001 q 707 874 710 910 l 640 874 q 643 908 643 899 q 615 984 643 960 q 543 1008 588 1008 q 451 976 490 1008 q 401 874 413 944 l 335 874 z "},"ō":{"ha":790,"x_min":114,"x_max":792,"o":"m 394 -8 q 114 246 114 -8 q 125 383 114 310 q 194 610 149 531 q 315 720 240 689 q 514 751 390 751 q 680 723 619 751 q 766 637 740 694 q 792 488 792 579 q 779 339 792 421 q 713 128 758 203 q 591 22 667 53 q 394 -8 515 -8 m 410 106 q 525 126 482 106 q 596 201 568 146 q 640 361 624 256 q 653 493 653 456 q 617 607 653 574 q 494 640 581 640 q 376 617 419 640 q 307 535 333 594 q 263 361 281 476 q 253 251 253 301 q 292 136 253 167 q 410 106 331 106 m 364 1006 l 739 1006 l 725 922 l 350 922 l 364 1006 z "},"ṓ":{"ha":790,"x_min":114,"x_max":792,"o":"m 394 -8 q 114 246 114 -8 q 125 383 114 310 q 194 610 149 531 q 315 720 240 689 q 514 751 390 751 q 680 723 619 751 q 766 637 740 694 q 792 488 792 579 q 779 339 792 421 q 713 128 758 203 q 591 22 667 53 q 394 -8 515 -8 m 410 106 q 525 126 482 106 q 596 201 568 146 q 640 361 624 256 q 653 493 653 456 q 617 607 653 574 q 494 640 581 640 q 376 617 419 640 q 307 535 333 594 q 263 361 281 476 q 253 251 253 301 q 292 136 253 167 q 410 106 331 106 m 364 1006 l 739 1006 l 725 922 l 350 922 l 364 1006 m 668 1260 l 790 1260 l 597 1068 l 510 1068 l 668 1260 z "},"ṑ":{"ha":790,"x_min":114,"x_max":792,"o":"m 394 -8 q 114 246 114 -8 q 125 383 114 310 q 194 610 149 531 q 315 720 240 689 q 514 751 390 751 q 680 723 619 751 q 766 637 740 694 q 792 488 792 579 q 779 339 792 421 q 713 128 758 203 q 591 22 667 53 q 394 -8 515 -8 m 410 106 q 525 126 482 106 q 596 201 568 146 q 640 361 624 256 q 653 493 653 456 q 617 607 653 574 q 494 640 581 640 q 376 617 419 640 q 307 535 333 594 q 263 361 281 476 q 253 251 253 301 q 292 136 253 167 q 410 106 331 106 m 364 1006 l 739 1006 l 725 922 l 350 922 l 364 1006 m 375 1260 l 490 1260 l 596 1068 l 514 1068 l 375 1260 z "},"ǫ":{"ha":790,"x_min":114,"x_max":792,"o":"m 514 751 q 680 723 619 751 q 766 637 740 694 q 792 488 792 579 q 779 339 792 421 q 692 97 754 175 q 511 0 629 19 q 437 -59 463 -25 q 411 -121 411 -93 q 435 -172 411 -154 q 504 -190 460 -190 l 514 -190 l 503 -258 q 464 -261 483 -261 q 368 -233 401 -261 q 335 -158 335 -204 q 363 -75 335 -115 q 444 -7 390 -35 q 394 -8 428 -8 q 114 246 114 -8 q 125 383 114 310 q 194 610 149 531 q 315 720 240 689 q 514 751 390 751 m 640 361 q 653 493 653 456 q 617 607 653 574 q 494 640 581 640 q 376 617 419 640 q 307 535 333 594 q 263 361 281 476 q 253 251 253 301 q 292 136 253 167 q 410 106 331 106 q 525 126 482 106 q 596 201 568 146 q 640 361 624 256 z "},"ø":{"ha":786,"x_min":63,"x_max":842,"o":"m 757 654 q 792 488 792 596 q 779 339 792 421 q 713 128 758 203 q 591 22 667 53 q 394 -8 515 -8 q 185 54 256 -8 l 133 0 l 63 0 l 151 93 q 114 246 114 151 q 125 383 114 310 q 194 610 149 531 q 315 720 240 689 q 514 751 390 751 q 724 694 658 751 l 771 743 l 842 743 l 757 654 m 253 251 q 257 204 253 225 l 628 593 q 494 640 594 640 q 376 617 419 640 q 307 535 333 594 q 263 361 281 476 q 253 251 253 301 m 653 493 q 649 540 653 519 l 278 151 q 328 116 296 126 q 410 106 361 106 q 525 126 482 106 q 596 201 568 146 q 640 361 624 256 q 653 493 653 456 z "},"ǿ":{"ha":786,"x_min":63,"x_max":842,"o":"m 757 654 q 792 488 792 596 q 779 339 792 421 q 713 128 758 203 q 591 22 667 53 q 394 -8 515 -8 q 185 54 256 -8 l 133 0 l 63 0 l 151 93 q 114 246 114 151 q 125 383 114 310 q 194 610 149 531 q 315 720 240 689 q 514 751 390 751 q 724 694 658 751 l 771 743 l 842 743 l 757 654 m 253 251 q 257 204 253 225 l 628 593 q 494 640 594 640 q 376 617 419 640 q 307 535 333 594 q 263 361 281 476 q 253 251 253 301 m 653 493 q 649 540 653 519 l 278 151 q 328 116 296 126 q 410 106 361 106 q 525 126 482 106 q 596 201 568 146 q 640 361 624 256 q 653 493 653 456 m 593 1068 l 715 1068 l 522 876 l 435 876 l 593 1068 z "},"õ":{"ha":790,"x_min":114,"x_max":811,"o":"m 394 -8 q 114 246 114 -8 q 125 383 114 310 q 194 610 149 531 q 315 720 240 689 q 514 751 390 751 q 680 723 619 751 q 766 637 740 694 q 792 488 792 579 q 779 339 792 421 q 713 128 758 203 q 591 22 667 53 q 394 -8 515 -8 m 410 106 q 525 126 482 106 q 596 201 568 146 q 640 361 624 256 q 653 493 653 456 q 617 607 653 574 q 494 640 581 640 q 376 617 419 640 q 307 535 333 594 q 263 361 281 476 q 253 251 253 301 q 292 136 253 167 q 410 106 331 106 m 290 896 q 350 1013 307 976 q 451 1049 393 1049 q 507 1038 481 1049 q 567 1008 533 1028 q 618 983 600 990 q 656 975 636 975 q 712 996 689 975 q 742 1054 735 1017 l 811 1054 q 653 897 778 897 q 601 907 625 897 q 538 938 576 917 q 487 963 506 954 q 447 971 468 971 q 392 951 415 971 q 361 896 368 932 l 290 896 z "}}}
